  0
SECTION
  2
HEADER
  9
$ACADVER
  1
AC1024
  9
$ACADMAINTVER
 70
6
  9
$DWGCODEPAGE
  3
ANSI_1252
  9
$LASTSAVEDBY
  1
ezdxf
  9
$INSBASE
 10
0.0
 20
0.0
 30
0.0
  9
$EXTMIN
 10
1e+20
 20
1e+20
 30
1e+20
  9
$EXTMAX
 10
-1e+20
 20
-1e+20
 30
-1e+20
  9
$LIMMIN
 10
0.0
 20
0.0
  9
$LIMMAX
 10
420.0
 20
297.0
  9
$ORTHOMODE
 70
0
  9
$REGENMODE
 70
1
  9
$FILLMODE
 70
1
  9
$QTEXTMODE
 70
0
  9
$MIRRTEXT
 70
1
  9
$LTSCALE
 40
1.0
  9
$ATTMODE
 70
1
  9
$TEXTSIZE
 40
2.5
  9
$TRACEWID
 40
1.0
  9
$TEXTSTYLE
  7
Standard
  9
$CLAYER
  8
0
  9
$CELTYPE
  6
ByLayer
  9
$CECOLOR
 62
256
  9
$CELTSCALE
 40
1.0
  9
$DISPSILH
 70
0
  9
$DIMSCALE
 40
1.0
  9
$DIMASZ
 40
2.5
  9
$DIMEXO
 40
0.625
  9
$DIMDLI
 40
3.75
  9
$DIMRND
 40
0.0
  9
$DIMDLE
 40
0.0
  9
$DIMEXE
 40
1.25
  9
$DIMTP
 40
0.0
  9
$DIMTM
 40
0.0
  9
$DIMTXT
 40
2.5
  9
$DIMCEN
 40
2.5
  9
$DIMTSZ
 40
0.0
  9
$DIMTOL
 70
0
  9
$DIMLIM
 70
0
  9
$DIMTIH
 70
0
  9
$DIMTOH
 70
0
  9
$DIMSE1
 70
0
  9
$DIMSE2
 70
0
  9
$DIMTAD
 70
1
  9
$DIMZIN
 70
8
  9
$DIMBLK
  1

  9
$DIMASO
 70
1
  9
$DIMSHO
 70
1
  9
$DIMPOST
  1

  9
$DIMAPOST
  1

  9
$DIMALT
 70
0
  9
$DIMALTD
 70
3
  9
$DIMALTF
 40
0.03937007874
  9
$DIMLFAC
 40
1.0
  9
$DIMTOFL
 70
1
  9
$DIMTVP
 40
0.0
  9
$DIMTIX
 70
0
  9
$DIMSOXD
 70
0
  9
$DIMSAH
 70
0
  9
$DIMBLK1
  1

  9
$DIMBLK2
  1

  9
$DIMSTYLE
  2
ISO-25
  9
$DIMCLRD
 70
0
  9
$DIMCLRE
 70
0
  9
$DIMCLRT
 70
0
  9
$DIMTFAC
 40
1.0
  9
$DIMGAP
 40
0.625
  9
$DIMJUST
 70
0
  9
$DIMSD1
 70
0
  9
$DIMSD2
 70
0
  9
$DIMTOLJ
 70
0
  9
$DIMTZIN
 70
8
  9
$DIMALTZ
 70
0
  9
$DIMALTTZ
 70
0
  9
$DIMUPT
 70
0
  9
$DIMDEC
 70
2
  9
$DIMTDEC
 70
2
  9
$DIMALTU
 70
2
  9
$DIMALTTD
 70
3
  9
$DIMTXSTY
  7
Standard
  9
$DIMAUNIT
 70
0
  9
$DIMADEC
 70
0
  9
$DIMALTRND
 40
0.0
  9
$DIMAZIN
 70
0
  9
$DIMDSEP
 70
44
  9
$DIMATFIT
 70
3
  9
$DIMFRAC
 70
0
  9
$DIMLDRBLK
  1

  9
$DIMLUNIT
 70
2
  9
$DIMLWD
 70
-2
  9
$DIMLWE
 70
-2
  9
$DIMTMOVE
 70
0
  9
$DIMFXL
 40
1.0
  9
$DIMFXLON
 70
0
  9
$DIMJOGANG
 40
0.785398163397
  9
$DIMTFILL
 70
0
  9
$DIMTFILLCLR
 70
0
  9
$DIMARCSYM
 70
0
  9
$DIMLTYPE
  6

  9
$DIMLTEX1
  6

  9
$DIMLTEX2
  6

  9
$DIMTXTDIRECTION
 70
0
  9
$LUNITS
 70
2
  9
$LUPREC
 70
4
  9
$SKETCHINC
 40
1.0
  9
$FILLETRAD
 40
10.0
  9
$AUNITS
 70
0
  9
$AUPREC
 70
2
  9
$MENU
  1
.
  9
$ELEVATION
 40
0.0
  9
$PELEVATION
 40
0.0
  9
$THICKNESS
 40
0.0
  9
$LIMCHECK
 70
0
  9
$CHAMFERA
 40
0.0
  9
$CHAMFERB
 40
0.0
  9
$CHAMFERC
 40
0.0
  9
$CHAMFERD
 40
0.0
  9
$SKPOLY
 70
0
  9
$TDCREATE
 40
2460369.7862962964
  9
$TDUCREATE
 40
2458532.153996898
  9
$TDUPDATE
 40
2460369.7862962964
  9
$TDUUPDATE
 40
2458532.1544311
  9
$TDINDWG
 40
0.0
  9
$TDUSRTIMER
 40
0.0
  9
$USRTIMER
 70
1
  9
$ANGBASE
 50
0.0
  9
$ANGDIR
 70
0
  9
$PDMODE
 70
0
  9
$PDSIZE
 40
0.0
  9
$PLINEWID
 40
0.0
  9
$SPLFRAME
 70
0
  9
$SPLINETYPE
 70
6
  9
$SPLINESEGS
 70
8
  9
$HANDSEED
  5
33
  9
$SURFTAB1
 70
6
  9
$SURFTAB2
 70
6
  9
$SURFTYPE
 70
6
  9
$SURFU
 70
6
  9
$SURFV
 70
6
  9
$UCSBASE
  2

  9
$UCSNAME
  2

  9
$UCSORG
 10
0.0
 20
0.0
 30
0.0
  9
$UCSXDIR
 10
1.0
 20
0.0
 30
0.0
  9
$UCSYDIR
 10
0.0
 20
1.0
 30
0.0
  9
$UCSORTHOREF
  2

  9
$UCSORTHOVIEW
 70
0
  9
$UCSORGTOP
 10
0.0
 20
0.0
 30
0.0
  9
$UCSORGBOTTOM
 10
0.0
 20
0.0
 30
0.0
  9
$UCSORGLEFT
 10
0.0
 20
0.0
 30
0.0
  9
$UCSORGRIGHT
 10
0.0
 20
0.0
 30
0.0
  9
$UCSORGFRONT
 10
0.0
 20
0.0
 30
0.0
  9
$UCSORGBACK
 10
0.0
 20
0.0
 30
0.0
  9
$PUCSBASE
  2

  9
$PUCSNAME
  2

  9
$PUCSORG
 10
0.0
 20
0.0
 30
0.0
  9
$PUCSXDIR
 10
1.0
 20
0.0
 30
0.0
  9
$PUCSYDIR
 10
0.0
 20
1.0
 30
0.0
  9
$PUCSORTHOREF
  2

  9
$PUCSORTHOVIEW
 70
0
  9
$PUCSORGTOP
 10
0.0
 20
0.0
 30
0.0
  9
$PUCSORGBOTTOM
 10
0.0
 20
0.0
 30
0.0
  9
$PUCSORGLEFT
 10
0.0
 20
0.0
 30
0.0
  9
$PUCSORGRIGHT
 10
0.0
 20
0.0
 30
0.0
  9
$PUCSORGFRONT
 10
0.0
 20
0.0
 30
0.0
  9
$PUCSORGBACK
 10
0.0
 20
0.0
 30
0.0
  9
$USERI1
 70
0
  9
$USERI2
 70
0
  9
$USERI3
 70
0
  9
$USERI4
 70
0
  9
$USERI5
 70
0
  9
$USERR1
 40
0.0
  9
$USERR2
 40
0.0
  9
$USERR3
 40
0.0
  9
$USERR4
 40
0.0
  9
$USERR5
 40
0.0
  9
$WORLDVIEW
 70
1
  9
$SHADEDGE
 70
3
  9
$SHADEDIF
 70
70
  9
$TILEMODE
 70
1
  9
$MAXACTVP
 70
64
  9
$PINSBASE
 10
0.0
 20
0.0
 30
0.0
  9
$PLIMCHECK
 70
0
  9
$PEXTMIN
 10
1e+20
 20
1e+20
 30
1e+20
  9
$PEXTMAX
 10
-1e+20
 20
-1e+20
 30
-1e+20
  9
$PLIMMIN
 10
0.0
 20
0.0
  9
$PLIMMAX
 10
420.0
 20
297.0
  9
$UNITMODE
 70
0
  9
$VISRETAIN
 70
1
  9
$PLINEGEN
 70
0
  9
$PSLTSCALE
 70
1
  9
$TREEDEPTH
 70
3020
  9
$CMLSTYLE
  2
Standard
  9
$CMLJUST
 70
0
  9
$CMLSCALE
 40
20.0
  9
$PROXYGRAPHICS
 70
1
  9
$MEASUREMENT
 70
1
  9
$CELWEIGHT
370
-1
  9
$ENDCAPS
280
0
  9
$JOINSTYLE
280
0
  9
$LWDISPLAY
290
0
  9
$INSUNITS
 70
6
  9
$HYPERLINKBASE
  1

  9
$STYLESHEET
  1

  9
$XEDIT
290
1
  9
$CEPSNTYPE
380
0
  9
$PSTYLEMODE
290
1
  9
$FINGERPRINTGUID
  2
{8C6C6200-6730-4815-844D-253E6CB29A1A}
  9
$VERSIONGUID
  2
{3E33AE8E-EFD2-495C-B0B0-177C5D44FF55}
  9
$EXTNAMES
290
1
  9
$PSVPSCALE
 40
0.0
  9
$OLESTARTUP
290
0
  9
$SORTENTS
280
127
  9
$INDEXCTL
280
0
  9
$HIDETEXT
280
1
  9
$XCLIPFRAME
280
0
  9
$HALOGAP
280
0
  9
$OBSCOLOR
 70
257
  9
$OBSLTYPE
280
0
  9
$INTERSECTIONDISPLAY
280
0
  9
$INTERSECTIONCOLOR
 70
257
  9
$DIMASSOC
280
2
  9
$PROJECTNAME
  1

  9
$CAMERADISPLAY
290
0
  9
$LENSLENGTH
 40
50.0
  9
$CAMERAHEIGHT
 40
0.0
  9
$STEPSPERSEC
 40
24.0
  9
$STEPSIZE
 40
100.0
  9
$3DDWFPREC
 40
2.0
  9
$PSOLWIDTH
 40
0.005
  9
$PSOLHEIGHT
 40
0.08
  9
$LOFTANG1
 40
1.570796326795
  9
$LOFTANG2
 40
1.570796326795
  9
$LOFTMAG1
 40
0.0
  9
$LOFTMAG2
 40
0.0
  9
$LOFTPARAM
 70
7
  9
$LOFTNORMALS
280
1
  9
$LATITUDE
 40
37.795
  9
$LONGITUDE
 40
-122.394
  9
$NORTHDIRECTION
 40
0.0
  9
$TIMEZONE
 70
-8000
  9
$LIGHTGLYPHDISPLAY
280
1
  9
$TILEMODELIGHTSYNCH
280
1
  9
$CMATERIAL
347
20
  9
$SOLIDHIST
280
0
  9
$SHOWHIST
280
1
  9
$DWFFRAME
280
2
  9
$DGNFRAME
280
2
  9
$REALWORLDSCALE
290
1
  9
$INTERFERECOLOR
 62
256
  9
$CSHADOW
280
0
  9
$SHADOWPLANELOCATION
 40
0.0
  0
ENDSEC
  0
SECTION
  2
CLASSES
  0
CLASS
  1
ACDBDICTIONARYWDFLT
  2
AcDbDictionaryWithDefault
  3
ObjectDBX Classes
 90
0
 91
0
280
0
281
0
  0
CLASS
  1
SUN
  2
AcDbSun
  3
SCENEOE
 90
1153
 91
0
280
0
281
0
  0
CLASS
  1
VISUALSTYLE
  2
AcDbVisualStyle
  3
ObjectDBX Classes
 90
4095
 91
0
280
0
281
0
  0
CLASS
  1
MATERIAL
  2
AcDbMaterial
  3
ObjectDBX Classes
 90
1153
 91
0
280
0
281
0
  0
CLASS
  1
SCALE
  2
AcDbScale
  3
ObjectDBX Classes
 90
1153
 91
0
280
0
281
0
  0
CLASS
  1
TABLESTYLE
  2
AcDbTableStyle
  3
ObjectDBX Classes
 90
4095
 91
0
280
0
281
0
  0
CLASS
  1
MLEADERSTYLE
  2
AcDbMLeaderStyle
  3
ACDB_MLEADERSTYLE_CLASS
 90
4095
 91
0
280
0
281
0
  0
CLASS
  1
DICTIONARYVAR
  2
AcDbDictionaryVar
  3
ObjectDBX Classes
 90
0
 91
0
280
0
281
0
  0
CLASS
  1
CELLSTYLEMAP
  2
AcDbCellStyleMap
  3
ObjectDBX Classes
 90
1152
 91
0
280
0
281
0
  0
CLASS
  1
MENTALRAYRENDERSETTINGS
  2
AcDbMentalRayRenderSettings
  3
SCENEOE
 90
1024
 91
0
280
0
281
0
  0
CLASS
  1
ACDBDETAILVIEWSTYLE
  2
AcDbDetailViewStyle
  3
ObjectDBX Classes
 90
1025
 91
0
280
0
281
0
  0
CLASS
  1
ACDBSECTIONVIEWSTYLE
  2
AcDbSectionViewStyle
  3
ObjectDBX Classes
 90
1025
 91
0
280
0
281
0
  0
CLASS
  1
RASTERVARIABLES
  2
AcDbRasterVariables
  3
ISM
 90
0
 91
0
280
0
281
0
  0
CLASS
  1
ACDBPLACEHOLDER
  2
AcDbPlaceHolder
  3
ObjectDBX Classes
 90
0
 91
0
280
0
281
0
  0
CLASS
  1
LAYOUT
  2
AcDbLayout
  3
ObjectDBX Classes
 90
0
 91
0
280
0
281
0
  0
ENDSEC
  0
SECTION
  2
TABLES
  0
TABLE
  2
VPORT
  5
8
330
0
100
AcDbSymbolTable
 70
1
  0
VPORT
  5
23
330
8
100
AcDbSymbolTableRecord
100
AcDbViewportTableRecord
  2
*Active
 70
0
 10
0.0
 20
0.0
 11
1.0
 21
1.0
 12
0.0
 22
0.0
 13
0.0
 23
0.0
 14
0.5
 24
0.5
 15
0.5
 25
0.5
 16
0.0
 26
0.0
 36
1.0
 17
0.0
 27
0.0
 37
0.0
 40
1000.0
 41
1.34
 42
50.0
 43
0.0
 44
0.0
 50
0.0
 51
0.0
 71
0
 72
1000
 73
1
 74
3
 75
0
 76
0
 77
0
 78
0
281
0
 65
0
146
0.0
  0
ENDTAB
  0
TABLE
  2
LTYPE
  5
2
330
0
100
AcDbSymbolTable
 70
3
  0
LTYPE
  5
24
330
2
100
AcDbSymbolTableRecord
100
AcDbLinetypeTableRecord
  2
ByBlock
 70
0
  3

 72
65
 73
0
 40
0.0
  0
LTYPE
  5
25
330
2
100
AcDbSymbolTableRecord
100
AcDbLinetypeTableRecord
  2
ByLayer
 70
0
  3

 72
65
 73
0
 40
0.0
  0
LTYPE
  5
26
330
2
100
AcDbSymbolTableRecord
100
AcDbLinetypeTableRecord
  2
Continuous
 70
0
  3

 72
65
 73
0
 40
0.0
  0
ENDTAB
  0
TABLE
  2
LAYER
  5
1
330
0
100
AcDbSymbolTable
 70
2
  0
LAYER
  5
27
330
1
100
AcDbSymbolTableRecord
100
AcDbLayerTableRecord
  2
0
 70
0
 62
7
  6
Continuous
370
-3
390
13
347
21
  0
LAYER
  5
28
330
1
100
AcDbSymbolTableRecord
100
AcDbLayerTableRecord
  2
Defpoints
 70
0
 62
7
  6
Continuous
290
0
370
-3
390
13
347
21
  0
ENDTAB
  0
TABLE
  2
STYLE
  5
5
330
0
100
AcDbSymbolTable
 70
1
  0
STYLE
  5
29
330
5
100
AcDbSymbolTableRecord
100
AcDbTextStyleTableRecord
  2
Standard
 70
0
 40
0.0
 41
1.0
 50
0.0
 71
0
 42
2.5
  3
txt
  4

  0
ENDTAB
  0
TABLE
  2
VIEW
  5
7
330
0
100
AcDbSymbolTable
 70
0
  0
ENDTAB
  0
TABLE
  2
UCS
  5
6
330
0
100
AcDbSymbolTable
 70
0
  0
ENDTAB
  0
TABLE
  2
APPID
  5
3
330
0
100
AcDbSymbolTable
 70
3
  0
APPID
  5
2A
330
3
100
AcDbSymbolTableRecord
100
AcDbRegAppTableRecord
  2
ACAD
 70
0
  0
APPID
  5
30
330
3
100
AcDbSymbolTableRecord
100
AcDbRegAppTableRecord
  2
HATCHBACKGROUNDCOLOR
 70
0
  0
APPID
  5
31
330
3
100
AcDbSymbolTableRecord
100
AcDbRegAppTableRecord
  2
EZDXF
 70
0
  0
ENDTAB
  0
TABLE
  2
DIMSTYLE
  5
4
330
0
100
AcDbSymbolTable
 70
1
100
AcDbDimStyleTable
  0
DIMSTYLE
105
2B
330
4
100
AcDbSymbolTableRecord
100
AcDbDimStyleTableRecord
  2
Standard
 70
0
 40
1.0
 41
2.5
 42
0.625
 43
3.75
 44
1.25
 45
0.0
 46
0.0
 47
0.0
 48
0.0
 49
2.5
140
2.5
141
2.5
142
0.0
143
0.03937007874
144
1.0
145
0.0
146
1.0
147
0.625
148
0.0
 69
0
 70
0
 71
0
 72
0
 73
0
 74
0
 75
0
 76
0
 77
1
 78
8
 79
3
170
0
171
3
172
1
173
0
174
0
175
0
176
0
177
0
178
0
179
2
271
2
272
2
273
2
274
3
275
0
276
0
277
2
278
44
279
0
280
0
281
0
282
0
283
0
284
8
285
0
286
0
288
0
289
3
290
0
371
-2
372
-2
  0
ENDTAB
  0
TABLE
  2
BLOCK_RECORD
  5
9
330
0
100
AcDbSymbolTable
 70
2
  0
BLOCK_RECORD
  5
17
330
9
100
AcDbSymbolTableRecord
100
AcDbBlockTableRecord
  2
*Model_Space
340
1A
 70
0
280
1
281
0
  0
BLOCK_RECORD
  5
1B
330
9
100
AcDbSymbolTableRecord
100
AcDbBlockTableRecord
  2
*Paper_Space
340
1E
 70
0
280
1
281
0
  0
ENDTAB
  0
ENDSEC
  0
SECTION
  2
BLOCKS
  0
BLOCK
  5
18
330
17
100
AcDbEntity
  8
0
100
AcDbBlockBegin
  2
*Model_Space
 70
0
 10
0.0
 20
0.0
 30
0.0
  3
*Model_Space
  1

  0
ENDBLK
  5
19
330
17
100
AcDbEntity
  8
0
100
AcDbBlockEnd
  0
BLOCK
  5
1C
330
1B
100
AcDbEntity
  8
0
100
AcDbBlockBegin
  2
*Paper_Space
 70
0
 10
0.0
 20
0.0
 30
0.0
  3
*Paper_Space
  1

  0
ENDBLK
  5
1D
330
1B
100
AcDbEntity
  8
0
100
AcDbBlockEnd
  0
ENDSEC
  0
SECTION
  2
ENTITIES
  0
LWPOLYLINE
  5
2F
330
17
100
AcDbEntity
  8
0
100
AcDbPolyline
 90
585
 70
0
 10
1.0
 20
0.0
 10
1.0016934122994683
 20
0.034117841938922956
 10
1.0149412548180907
 20
0.19140678685013168
 10
1.0524667885681178
 20
0.47663765901592775
 10
1.127373065718445
 20
0.8904081665360861
 10
1.2523458330669386
 20
1.4286417668938716
 10
1.4395510224876524
 20
2.085711639761344
 10
1.7005143238884313
 20
2.8547357698062323
 10
2.046006392536978
 20
3.727694418616614
 10
2.485935540912321
 20
4.695525285525616
 10
3.029249068993402
 20
5.748220175721034
 10
4.039334401583632
 20
5.748220175721034
 10
4.582647929664713
 20
4.695525285525616
 10
5.022577078040056
 20
3.727694418616614
 10
5.368069146688603
 20
2.8547357698062323
 10
5.629032448089382
 20
2.085711639761344
 10
5.8162376375100955
 20
1.4286417668938716
 10
5.941210404858589
 20
0.8904081665360861
 10
6.016116682008917
 20
0.47663765901592775
 10
6.053642215758944
 20
0.19140678685013168
 10
6.066890058277567
 20
0.034117841938922956
 10
6.070288694782281
 20
-0.058374143427580086
 10
6.081103700668169
 20
-0.15774569414324865
 10
6.101785277997574
 20
-0.25554110202683167
 10
6.132126783286238
 20
-0.35078322768961984
 10
6.171825054242888
 20
-0.44252044329485246
 10
6.220483438866626
 20
-0.5298361409084934
 10
6.277615758662618
 20
-0.6118578909427193
 10
6.3426511663768945
 20
-0.6877661591839741
 10
6.414939849713423
 20
-0.7568024953079282
 10
6.4937595240437656
 20
-0.8182771110644108
 10
6.578322649236335
 20
-0.8715757724135882
 10
6.667784298497059
 20
-0.9161659367494549
 10
6.761250600598615
 20
-0.9516020738895161
 10
6.857787671146254
 20
-0.977530117665097
 10
6.956430943641981
 20
-0.9936910036334645
 10
7.056194807114141
 20
-0.9999232575641008
 10
7.156082454016482
 20
-0.9961646088358406
 10
7.25509583999961
 20
-0.9824526126243325
 10
7.352245656040261
 20
-0.9589242746631385
 10
7.446561213290016
 20
-0.9258146823277321
 10
7.537100141877412
 20
-0.8834546557201531
 10
7.622957806756196
 20
-0.8322674422239008
 10
7.703276346519669
 20
-0.7727644875559871
 10
7.7772532448682945
 20
-0.7055403255703919
 10
7.844149349087285
 20
-0.6312666378723208
 10
7.903296255416194
 20
-0.5506855425976376
 10
7.954102987518354
 20
-0.4646021794137566
 10
7.99606190132107
 20
-0.373876664830236
 10
8.0287537572274
 20
-0.27941549819892586
 10
8.05185190901962
 20
-0.18216250427209502
 10
8.065125567600251
 20
-0.0830894028174964
 10
8.070276882876502
 20
0.034117841938922956
 10
8.083524725395126
 20
0.19140678685013168
 10
8.121050259145152
 20
0.47663765901592775
 10
8.19595653629548
 20
0.8904081665360861
 10
8.320929303643974
 20
1.4286417668938716
 10
8.508134493064688
 20
2.085711639761344
 10
8.769097794465466
 20
2.8547357698062323
 10
9.114589863114013
 20
3.727694418616614
 10
9.554519011489356
 20
4.695525285525616
 10
10.097832539570437
 20
5.748220175721034
 10
11.107917872160666
 20
5.748220175721034
 10
11.651231400241748
 20
4.695525285525616
 10
12.09116054861709
 20
3.727694418616614
 10
12.436652617265636
 20
2.8547357698062323
 10
12.697615918666417
 20
2.085711639761344
 10
12.88482110808713
 20
1.4286417668938716
 10
13.009793875435623
 20
0.8904081665360861
 10
13.084700152585953
 20
0.47663765901592775
 10
13.122225686335979
 20
0.19140678685013168
 10
13.1354735288546
 20
0.034117841938922956
 10
13.138872165359317
 20
-0.058374143427580086
 10
13.149687171245205
 20
-0.15774569414324865
 10
13.170368748574608
 20
-0.25554110202683167
 10
13.200710253863273
 20
-0.35078322768961984
 10
13.240408524819923
 20
-0.44252044329485246
 10
13.289066909443662
 20
-0.5298361409084934
 10
13.346199229239652
 20
-0.6118578909427193
 10
13.411234636953928
 20
-0.6877661591839741
 10
13.483523320290457
 20
-0.7568024953079282
 10
13.5623429946208
 20
-0.8182771110644108
 10
13.64690611981337
 20
-0.8715757724135882
 10
13.736367769074093
 20
-0.9161659367494549
 10
13.82983407117565
 20
-0.9516020738895161
 10
13.926371141723289
 20
-0.977530117665097
 10
14.025014414219015
 20
-0.9936910036334645
 10
14.124778277691176
 20
-0.9999232575641008
 10
14.224665924593516
 20
-0.9961646088358406
 10
14.323679310576644
 20
-0.9824526126243325
 10
14.420829126617296
 20
-0.9589242746631385
 10
14.51514468386705
 20
-0.9258146823277321
 10
14.605683612454445
 20
-0.8834546557201531
 10
14.69154127733323
 20
-0.8322674422239008
 10
14.771859817096704
 20
-0.7727644875559871
 10
14.84583671544533
 20
-0.7055403255703919
 10
14.91273281966432
 20
-0.6312666378723208
 10
14.97187972599323
 20
-0.5506855425976376
 10
15.02268645809539
 20
-0.4646021794137566
 10
15.064645371898106
 20
-0.373876664830236
 10
15.097337227804434
 20
-0.27941549819892586
 10
15.120435379596653
 20
-0.18216250427209502
 10
15.133709038177287
 20
-0.0830894028174964
 10
15.138860353453538
 20
0.034117841938922956
 10
15.15210819597216
 20
0.19140678685013168
 10
15.189633729722187
 20
0.47663765901592775
 10
15.264540006872513
 20
0.8904081665360861
 10
15.389512774221007
 20
1.4286417668938716
 10
15.576717963641721
 20
2.085711639761344
 10
15.8376812650425
 20
2.8547357698062323
 10
16.183173333691048
 20
3.727694418616614
 10
16.62310248206639
 20
4.695525285525616
 10
17.166416010147472
 20
5.748220175721034
 10
18.1765013427377
 20
5.748220175721034
 10
18.71981487081878
 20
4.695525285525616
 10
19.159744019194125
 20
3.727694418616614
 10
19.505236087842672
 20
2.8547357698062323
 10
19.76619938924345
 20
2.085711639761344
 10
19.953404578664163
 20
1.4286417668938716
 10
20.078377346012658
 20
0.8904081665360861
 10
20.153283623162984
 20
0.47663765901592775
 10
20.190809156913012
 20
0.19140678685013168
 10
20.204056999431636
 20
0.034117841938922956
 10
20.20745563593635
 20
-0.058374143427580086
 10
20.218270641822237
 20
-0.15774569414324865
 10
20.238952219151642
 20
-0.25554110202683167
 10
20.269293724440306
 20
-0.35078322768961984
 10
20.30899199539696
 20
-0.44252044329485246
 10
20.357650380020694
 20
-0.5298361409084934
 10
20.414782699816687
 20
-0.6118578909427193
 10
20.479818107530964
 20
-0.6877661591839741
 10
20.55210679086749
 20
-0.7568024953079282
 10
20.630926465197835
 20
-0.8182771110644108
 10
20.715489590390405
 20
-0.8715757724135882
 10
20.80495123965113
 20
-0.9161659367494549
 10
20.898417541752686
 20
-0.9516020738895161
 10
20.994954612300322
 20
-0.977530117665097
 10
21.09359788479605
 20
-0.9936910036334645
 10
21.19336174826821
 20
-0.9999232575641008
 10
21.29324939517055
 20
-0.9961646088358406
 10
21.39226278115368
 20
-0.9824526126243325
 10
21.48941259719433
 20
-0.9589242746631385
 10
21.583728154444085
 20
-0.9258146823277321
 10
21.67426708303148
 20
-0.8834546557201531
 10
21.760124747910265
 20
-0.8322674422239008
 10
21.840443287673736
 20
-0.7727644875559871
 10
21.91442018602236
 20
-0.7055403255703919
 10
21.981316290241352
 20
-0.6312666378723208
 10
22.040463196570265
 20
-0.5506855425976376
 10
22.091269928672425
 20
-0.4646021794137566
 10
22.13322884247514
 20
-0.373876664830236
 10
22.16592069838147
 20
-0.27941549819892586
 10
22.18901885017369
 20
-0.18216250427209502
 10
22.20229250875432
 20
-0.0830894028174964
 10
22.20744382403057
 20
0.034117841938922956
 10
22.220691666549193
 20
0.19140678685013168
 10
22.25821720029922
 20
0.47663765901592775
 10
22.333123477449547
 20
0.8904081665360861
 10
22.458096244798043
 20
1.4286417668938716
 10
22.645301434218755
 20
2.085711639761344
 10
22.906264735619533
 20
2.8547357698062323
 10
23.25175680426808
 20
3.727694418616614
 10
23.691685952643425
 20
4.695525285525616
 10
24.234999480724504
 20
5.748220175721034
 10
25.245084813314733
 20
5.748220175721034
 10
25.788398341395816
 20
4.695525285525616
 10
26.22832748977116
 20
3.727694418616614
 10
26.573819558419707
 20
2.8547357698062323
 10
26.834782859820486
 20
2.085711639761344
 10
27.021988049241198
 20
1.4286417668938716
 10
27.14696081658969
 20
0.8904081665360861
 10
27.22186709374002
 20
0.47663765901592775
 10
27.259392627490048
 20
0.19140678685013168
 10
27.272640470008668
 20
0.034117841938922956
 10
27.276039106513384
 20
-0.058374143427580086
 10
27.286854112399272
 20
-0.15774569414324865
 10
27.307535689728677
 20
-0.25554110202683167
 10
27.33787719501734
 20
-0.35078322768961984
 10
27.37757546597399
 20
-0.44252044329485246
 10
27.42623385059773
 20
-0.5298361409084934
 10
27.483366170393722
 20
-0.6118578909427193
 10
27.548401578108
 20
-0.6877661591839741
 10
27.620690261444526
 20
-0.7568024953079282
 10
27.69950993577487
 20
-0.8182771110644108
 10
27.784073060967437
 20
-0.8715757724135882
 10
27.873534710228164
 20
-0.9161659367494549
 10
27.967001012329717
 20
-0.9516020738895161
 10
28.063538082877358
 20
-0.977530117665097
 10
28.162181355373082
 20
-0.9936910036334645
 10
28.261945218845245
 20
-0.9999232575641008
 10
28.361832865747584
 20
-0.9961646088358406
 10
28.460846251730715
 20
-0.9824526126243325
 10
28.557996067771363
 20
-0.9589242746631385
 10
28.65231162502112
 20
-0.9258146823277321
 10
28.742850553608513
 20
-0.8834546557201531
 10
28.8287082184873
 20
-0.8322674422239008
 10
28.90902675825077
 20
-0.7727644875559871
 10
28.983003656599397
 20
-0.7055403255703919
 10
29.049899760818388
 20
-0.6312666378723208
 10
29.109046667147297
 20
-0.5506855425976376
 10
29.159853399249457
 20
-0.4646021794137566
 10
29.201812313052173
 20
-0.373876664830236
 10
29.2345041689585
 20
-0.27941549819892586
 10
29.25760232075072
 20
-0.18216250427209502
 10
29.270875979331354
 20
-0.0830894028174964
 10
29.276027294607605
 20
0.034117841938922956
 10
29.28927513712623
 20
0.19140678685013168
 10
29.326800670876256
 20
0.47663765901592775
 10
29.401706948026582
 20
0.8904081665360861
 10
29.526679715375078
 20
1.4286417668938716
 10
29.71388490479579
 20
2.085711639761344
 10
29.97484820619657
 20
2.8547357698062323
 10
30.320340274845115
 20
3.727694418616614
 10
30.76026942322046
 20
4.695525285525616
 10
31.30358295130154
 20
5.748220175721034
 10
32.31366828389177
 20
5.748220175721034
 10
32.85698181197285
 20
4.695525285525616
 10
33.29691096034819
 20
3.727694418616614
 10
33.64240302899674
 20
2.8547357698062323
 10
33.90336633039752
 20
2.085711639761344
 10
34.09057151981823
 20
1.4286417668938716
 10
34.21554428716673
 20
0.8904081665360861
 10
34.290450564317055
 20
0.47663765901592775
 10
34.32797609806708
 20
0.19140678685013168
 10
34.34122394058571
 20
0.034117841938922956
 10
34.34462257709042
 20
-0.058374143427580086
 10
34.35543758297631
 20
-0.15774569414324865
 10
34.37611916030571
 20
-0.25554110202683167
 10
34.40646066559437
 20
-0.35078322768961984
 10
34.44615893655103
 20
-0.44252044329485246
 10
34.494817321174764
 20
-0.5298361409084934
 10
34.551949640970754
 20
-0.6118578909427193
 10
34.61698504868503
 20
-0.6877661591839741
 10
34.68927373202156
 20
-0.7568024953079282
 10
34.7680934063519
 20
-0.8182771110644108
 10
34.852656531544476
 20
-0.8715757724135882
 10
34.942118180805195
 20
-0.9161659367494549
 10
35.035584482906756
 20
-0.9516020738895161
 10
35.13212155345439
 20
-0.977530117665097
 10
35.23076482595012
 20
-0.9936910036334645
 10
35.33052868942228
 20
-0.9999232575641008
 10
35.43041633632462
 20
-0.9961646088358406
 10
35.529429722307746
 20
-0.9824526126243325
 10
35.6265795383484
 20
-0.9589242746631385
 10
35.72089509559815
 20
-0.9258146823277321
 10
35.81143402418555
 20
-0.8834546557201531
 10
35.89729168906433
 20
-0.8322674422239008
 10
35.97761022882781
 20
-0.7727644875559871
 10
36.05158712717643
 20
-0.7055403255703919
 10
36.11848323139542
 20
-0.6312666378723208
 10
36.177630137724336
 20
-0.5506855425976376
 10
36.228436869826496
 20
-0.4646021794137566
 10
36.27039578362921
 20
-0.373876664830236
 10
36.30308763953554
 20
-0.27941549819892586
 10
36.32618579132776
 20
-0.18216250427209502
 10
36.33945944990839
 20
-0.0830894028174964
 10
36.34461076518464
 20
0.034117841938922956
 10
36.357858607703264
 20
0.19140678685013168
 10
36.39538414145329
 20
0.47663765901592775
 10
36.47029041860362
 20
0.8904081665360861
 10
36.59526318595211
 20
1.4286417668938716
 10
36.78246837537283
 20
2.085711639761344
 10
37.04343167677361
 20
2.8547357698062323
 10
37.388923745422154
 20
3.727694418616614
 10
37.828852893797496
 20
4.695525285525616
 10
38.372166421878575
 20
5.748220175721034
 10
39.382251754468804
 20
5.748220175721034
 10
39.92556528254988
 20
4.695525285525616
 10
40.36549443092523
 20
3.727694418616614
 10
40.71098649957378
 20
2.8547357698062323
 10
40.971949800974556
 20
2.085711639761344
 10
41.159154990395265
 20
1.4286417668938716
 10
41.28412775774376
 20
0.8904081665360861
 10
41.359034034894094
 20
0.47663765901592775
 10
41.396559568644115
 20
0.19140678685013168
 10
41.40980741116274
 20
0.034117841938922956
 10
41.41320604766746
 20
-0.058374143427580086
 10
41.424021053553346
 20
-0.15774569414324865
 10
41.444702630882745
 20
-0.25554110202683167
 10
41.47504413617141
 20
-0.35078322768961984
 10
41.51474240712806
 20
-0.44252044329485246
 10
41.5634007917518
 20
-0.5298361409084934
 10
41.62053311154779
 20
-0.6118578909427193
 10
41.68556851926207
 20
-0.6877661591839741
 10
41.75785720259859
 20
-0.7568024953079282
 10
41.83667687692894
 20
-0.8182771110644108
 10
41.92124000212151
 20
-0.8715757724135882
 10
42.010701651382234
 20
-0.9161659367494549
 10
42.10416795348379
 20
-0.9516020738895161
 10
42.20070502403143
 20
-0.977530117665097
 10
42.29934829652716
 20
-0.9936910036334645
 10
42.39911215999931
 20
-0.9999232575641008
 10
42.49899980690166
 20
-0.9961646088358406
 10
42.598013192884785
 20
-0.9824526126243325
 10
42.695163008925434
 20
-0.9589242746631385
 10
42.78947856617519
 20
-0.9258146823277321
 10
42.88001749476258
 20
-0.8834546557201531
 10
42.96587515964137
 20
-0.8322674422239008
 10
43.04619369940484
 20
-0.7727644875559871
 10
43.12017059775347
 20
-0.7055403255703919
 10
43.187066701972455
 20
-0.6312666378723208
 10
43.24621360830137
 20
-0.5506855425976376
 10
43.29702034040353
 20
-0.4646021794137566
 10
43.338979254206244
 20
-0.373876664830236
 10
43.37167111011257
 20
-0.27941549819892586
 10
43.39476926190479
 20
-0.18216250427209502
 10
43.40804292048543
 20
-0.0830894028174964
 10
43.41319423576167
 20
0.034117841938922956
 10
43.426442078280296
 20
0.19140678685013168
 10
43.46396761203032
 20
0.47663765901592775
 10
43.53887388918065
 20
0.8904081665360861
 10
43.663846656529145
 20
1.4286417668938716
 10
43.851051845949854
 20
2.085711639761344
 10
44.11201514735064
 20
2.8547357698062323
 10
44.457507215999186
 20
3.727694418616614
 10
44.89743636437453
 20
4.695525285525616
 10
45.44074989245561
 20
5.748220175721034
 10
46.450835225045836
 20
5.748220175721034
 10
46.99414875312692
 20
4.695525285525616
 10
47.43407790150226
 20
3.727694418616614
 10
47.77956997015081
 20
2.8547357698062323
 10
48.04053327155159
 20
2.085711639761344
 10
48.227738460972304
 20
1.4286417668938716
 10
48.35271122832079
 20
0.8904081665360861
 10
48.42761750547112
 20
0.47663765901592775
 10
48.46514303922115
 20
0.19140678685013168
 10
48.47839088173977
 20
0.034117841938922956
 10
48.48178951824448
 20
-0.058374143427580086
 10
48.49260452413037
 20
-0.15774569414324865
 10
48.51328610145978
 20
-0.25554110202683167
 10
48.543627606748444
 20
-0.35078322768961984
 10
48.58332587770509
 20
-0.44252044329485246
 10
48.63198426232883
 20
-0.5298361409084934
 10
48.689116582124825
 20
-0.6118578909427193
 10
48.7541519898391
 20
-0.6877661591839741
 10
48.826440673175625
 20
-0.7568024953079282
 10
48.90526034750597
 20
-0.8182771110644108
 10
48.98982347269854
 20
-0.8715757724135882
 10
49.079285121959266
 20
-0.9161659367494549
 10
49.17275142406082
 20
-0.9516020738895161
 10
49.26928849460846
 20
-0.977530117665097
 10
49.36793176710419
 20
-0.9936910036334645
 10
49.467695630576344
 20
-0.9999232575641008
 10
49.56758327747869
 20
-0.9961646088358406
 10
49.66659666346182
 20
-0.9824526126243325
 10
49.763746479502466
 20
-0.9589242746631385
 10
49.85806203675222
 20
-0.9258146823277321
 10
49.948600965339615
 20
-0.8834546557201531
 10
50.0344586302184
 20
-0.8322674422239008
 10
50.11477716998188
 20
-0.7727644875559871
 10
50.188754068330496
 20
-0.7055403255703919
 10
50.255650172549494
 20
-0.6312666378723208
 10
50.3147970788784
 20
-0.5506855425976376
 10
50.36560381098056
 20
-0.4646021794137566
 10
50.407562724783276
 20
-0.373876664830236
 10
50.440254580689604
 20
-0.27941549819892586
 10
50.46335273248182
 20
-0.18216250427209502
 10
50.47662639106245
 20
-0.0830894028174964
 10
50.48177770633871
 20
0.034117841938922956
 10
50.495025548857335
 20
0.19140678685013168
 10
50.53255108260736
 20
0.47663765901592775
 10
50.60745735975769
 20
0.8904081665360861
 10
50.732430127106184
 20
1.4286417668938716
 10
50.91963531652689
 20
2.085711639761344
 10
51.18059861792768
 20
2.8547357698062323
 10
51.526090686576225
 20
3.727694418616614
 10
51.96601983495157
 20
4.695525285525616
 10
52.509333363032646
 20
5.748220175721034
 10
53.519418695622875
 20
5.748220175721034
 10
54.06273222370396
 20
4.695525285525616
 10
54.5026613720793
 20
3.727694418616614
 10
54.84815344072785
 20
2.8547357698062323
 10
55.10911674212863
 20
2.085711639761344
 10
55.29632193154934
 20
1.4286417668938716
 10
55.42129469889783
 20
0.8904081665360861
 10
55.49620097604816
 20
0.47663765901592775
 10
55.533726509798186
 20
0.19140678685013168
 10
55.54697435231681
 20
0.034117841938922956
 10
55.55037298882152
 20
-0.058374143427580086
 10
55.56118799470741
 20
-0.15774569414324865
 10
55.581869572036815
 20
-0.25554110202683167
 10
55.61221107732548
 20
-0.35078322768961984
 10
55.65190934828213
 20
-0.44252044329485246
 10
55.70056773290587
 20
-0.5298361409084934
 10
55.757700052701864
 20
-0.6118578909427193
 10
55.82273546041614
 20
-0.6877661591839741
 10
55.895024143752664
 20
-0.7568024953079282
 10
55.97384381808301
 20
-0.8182771110644108
 10
56.05840694327558
 20
-0.8715757724135882
 10
56.147868592536305
 20
-0.9161659367494549
 10
56.24133489463786
 20
-0.9516020738895161
 10
56.3378719651855
 20
-0.977530117665097
 10
56.43651523768123
 20
-0.9936910036334645
 10
56.53627910115338
 20
-0.9999232575641008
 10
56.63616674805573
 20
-0.9961646088358406
 10
56.735180134038856
 20
-0.9824526126243325
 10
56.832329950079504
 20
-0.9589242746631385
 10
56.92664550732926
 20
-0.9258146823277321
 10
57.017184435916654
 20
-0.8834546557201531
 10
57.10304210079544
 20
-0.8322674422239008
 10
57.18336064055892
 20
-0.7727644875559871
 10
57.257337538907535
 20
-0.7055403255703919
 10
57.32423364312653
 20
-0.6312666378723208
 10
57.38338054945544
 20
-0.5506855425976376
 10
57.4341872815576
 20
-0.4646021794137566
 10
57.476146195360315
 20
-0.373876664830236
 10
57.50883805126664
 20
-0.27941549819892586
 10
57.53193620305886
 20
-0.18216250427209502
 10
57.54520986163949
 20
-0.0830894028174964
 10
57.55036117691574
 20
0.034117841938922956
 10
57.56360901943437
 20
0.19140678685013168
 10
57.601134553184394
 20
0.47663765901592775
 10
57.67604083033472
 20
0.8904081665360861
 10
57.801013597683216
 20
1.4286417668938716
 10
57.98821878710393
 20
2.085711639761344
 10
58.24918208850471
 20
2.8547357698062323
 10
58.59467415715326
 20
3.727694418616614
 10
59.0346033055286
 20
4.695525285525616
 10
59.57791683360968
 20
5.748220175721034
 10
60.58800216619991
 20
5.748220175721034
 10
61.131315694280985
 20
4.695525285525616
 10
61.571244842656334
 20
3.727694418616614
 10
61.91673691130488
 20
2.8547357698062323
 10
62.17770021270566
 20
2.085711639761344
 10
62.36490540212637
 20
1.4286417668938716
 10
62.48987816947486
 20
0.8904081665360861
 10
62.5647844466252
 20
0.47663765901592775
 10
62.60230998037522
 20
0.19140678685013168
 10
62.61555782289384
 20
0.034117841938922956
 10
62.61895645939856
 20
-0.058374143427580086
 10
62.62977146528445
 20
-0.15774569414324865
 10
62.65045304261385
 20
-0.25554110202683167
 10
62.680794547902515
 20
-0.35078322768961984
 10
62.720492818859164
 20
-0.44252044329485246
 10
62.769151203482906
 20
-0.5298361409084934
 10
62.826283523278896
 20
-0.6118578909427193
 10
62.89131893099317
 20
-0.6877661591839741
 10
62.963607614329696
 20
-0.7568024953079282
 10
63.04242728866004
 20
-0.8182771110644108
 10
63.12699041385261
 20
-0.8715757724135882
 10
63.21645206311334
 20
-0.9161659367494549
 10
63.30991836521489
 20
-0.9516020738895161
 10
63.40645543576253
 20
-0.977530117665097
 10
63.50509870825826
 20
-0.9936910036334645
 10
63.604862571730415
 20
-0.9999232575641008
 10
63.70475021863276
 20
-0.9961646088358406
 10
63.80376360461589
 20
-0.9824526126243325
 10
63.900913420656536
 20
-0.9589242746631385
 10
63.995228977906294
 20
-0.9258146823277321
 10
64.08576790649369
 20
-0.8834546557201531
 10
64.17162557137247
 20
-0.8322674422239008
 10
64.25194411113594
 20
-0.7727644875559871
 10
64.32592100948457
 20
-0.7055403255703919
 10
64.39281711370356
 20
-0.6312666378723208
 10
64.45196402003248
 20
-0.5506855425976376
 10
64.50277075213464
 20
-0.4646021794137566
 10
64.54472966593735
 20
-0.373876664830236
 10
64.57742152184368
 20
-0.27941549819892586
 10
64.6005196736359
 20
-0.18216250427209502
 10
64.61379333221653
 20
-0.0830894028174964
 10
64.61894464749278
 20
0.034117841938922956
 10
64.6321924900114
 20
0.19140678685013168
 10
64.66971802376142
 20
0.47663765901592775
 10
64.74462430091175
 20
0.8904081665360861
 10
64.86959706826025
 20
1.4286417668938716
 10
65.05680225768096
 20
2.085711639761344
 10
65.31776555908174
 20
2.8547357698062323
 10
65.66325762773029
 20
3.727694418616614
 10
66.10318677610563
 20
4.695525285525616
 10
66.64650030418672
 20
5.748220175721034
 10
67.65658563677694
 20
5.748220175721034
 10
68.19989916485802
 20
4.695525285525616
 10
68.63982831323337
 20
3.727694418616614
 10
68.9853203818819
 20
2.8547357698062323
 10
69.24628368328268
 20
2.085711639761344
 10
69.4334888727034
 20
1.4286417668938716
 10
69.5584616400519
 20
0.8904081665360861
 10
69.63336791720222
 20
0.47663765901592775
 10
69.67089345095225
 20
0.19140678685013168
 10
69.68414129347087
 20
0.034117841938922956
 10
69.68753992997559
 20
-0.058374143427580086
 10
69.69835493586147
 20
-0.15774569414324865
 10
69.71903651319089
 20
-0.25554110202683167
 10
69.74937801847955
 20
-0.35078322768961984
 10
69.7890762894362
 20
-0.44252044329485246
 10
69.83773467405993
 20
-0.5298361409084934
 10
69.89486699385593
 20
-0.6118578909427193
 10
69.9599024015702
 20
-0.6877661591839741
 10
70.03219108490673
 20
-0.7568024953079282
 10
70.11101075923708
 20
-0.8182771110644108
 10
70.19557388442965
 20
-0.8715757724135882
 10
70.28503553369036
 20
-0.9161659367494549
 10
70.37850183579192
 20
-0.9516020738895161
 10
70.47503890633956
 20
-0.977530117665097
 10
70.57368217883528
 20
-0.9936910036334645
 10
70.67344604230745
 20
-0.9999232575641008
 10
70.77333368920979
 20
-0.9961646088358406
 10
70.87234707519292
 20
-0.9824526126243325
 10
70.96949689123358
 20
-0.9589242746631385
 10
71.06381244848332
 20
-0.9258146823277321
 10
71.15435137707072
 20
-0.8834546557201531
 10
71.2402090419495
 20
-0.8322674422239008
 10
71.32052758171298
 20
-0.7727644875559871
 10
71.3945044800616
 20
-0.7055403255703919
 10
71.4614005842806
 20
-0.6312666378723208
 10
71.5205474906095
 20
-0.5506855425976376
 10
71.57135422271166
 20
-0.4646021794137566
 10
71.61331313651438
 20
-0.373876664830236
 10
71.64600499242071
 20
-0.27941549819892586
 10
71.66910314421293
 20
-0.18216250427209502
 10
71.68237680279356
 20
-0.0830894028174964
 10
71.68752811806982
 20
0.034117841938922956
 10
71.70077596058844
 20
0.19140678685013168
 10
71.73830149433846
 20
0.47663765901592775
 10
71.81320777148879
 20
0.8904081665360861
 10
71.93818053883729
 20
1.4286417668938716
 10
72.125385728258
 20
2.085711639761344
 10
72.38634902965877
 20
2.8547357698062323
 10
72.73184109830733
 20
3.727694418616614
 10
73.17177024668267
 20
4.695525285525616
 10
73.71508377476376
 20
5.748220175721034
 10
74.72516910735398
 20
5.748220175721034
 10
75.26848263543506
 20
4.695525285525616
 10
75.7084117838104
 20
3.727694418616614
 10
76.05390385245894
 20
2.8547357698062323
 10
76.31486715385972
 20
2.085711639761344
 10
76.50207234328045
 20
1.4286417668938716
 10
76.62704511062894
 20
0.8904081665360861
 10
76.70195138777926
 20
0.47663765901592775
 10
76.73947692152929
 20
0.19140678685013168
 10
76.75272476404791
 20
0.034117841938922956
 10
76.75612340055262
 20
-0.058374143427580086
 10
76.76693840643851
 20
-0.15774569414324865
 10
76.78761998376793
 20
-0.25554110202683167
 10
76.81796148905659
 20
-0.35078322768961984
 10
76.85765976001323
 20
-0.44252044329485246
 10
76.90631814463697
 20
-0.5298361409084934
 10
76.96345046443297
 20
-0.6118578909427193
 10
77.02848587214724
 20
-0.6877661591839741
 10
77.10077455548377
 20
-0.7568024953079282
 10
77.17959422981411
 20
-0.8182771110644108
 10
77.26415735500669
 20
-0.8715757724135882
 10
77.3536190042674
 20
-0.9161659367494549
 10
77.44708530636896
 20
-0.9516020738895161
 10
77.5436223769166
 20
-0.977530117665097
 10
77.64226564941232
 20
-0.9936910036334645
 10
77.74202951288449
 20
-0.9999232575641008
 10
77.84191715978683
 20
-0.9961646088358406
 10
77.94093054576996
 20
-0.9824526126243325
 10
78.03808036181061
 20
-0.9589242746631385
 10
78.13239591906036
 20
-0.9258146823277321
 10
78.22293484764776
 20
-0.8834546557201531
 10
78.30879251252654
 20
-0.8322674422239008
 10
78.38911105229002
 20
-0.7727644875559871
 10
78.46308795063864
 20
-0.7055403255703919
 10
78.52998405485764
 20
-0.6312666378723208
 10
78.58913096118654
 20
-0.5506855425976376
 10
78.6399376932887
 20
-0.4646021794137566
 10
78.68189660709142
 20
-0.373876664830236
 10
78.71458846299775
 20
-0.27941549819892586
 10
78.73768661478996
 20
-0.18216250427209502
 10
78.7509602733706
 20
-0.0830894028174964
 10
78.75611158864686
 20
0.034117841938922956
 10
78.76935943116548
 20
0.19140678685013168
 10
78.8068849649155
 20
0.47663765901592775
 10
78.88179124206583
 20
0.8904081665360861
 10
79.00676400941433
 20
1.4286417668938716
 10
79.19396919883503
 20
2.085711639761344
 10
79.45493250023581
 20
2.8547357698062323
 10
79.80042456888437
 20
3.727694418616614
 10
80.24035371725971
 20
4.695525285525616
 10
80.7836672453408
 20
5.748220175721034
 10
81.79375257793102
 20
5.748220175721034
 10
82.3370661060121
 20
4.695525285525616
 10
82.77699525438744
 20
3.727694418616614
 10
83.12248732303598
 20
2.8547357698062323
 10
83.38345062443676
 20
2.085711639761344
 10
83.57065581385748
 20
1.4286417668938716
 10
83.69562858120598
 20
0.8904081665360861
 10
83.7705348583563
 20
0.47663765901592775
 10
83.80806039210633
 20
0.19140678685013168
 10
83.82130823462495
 20
0.034117841938922956
 10
83.82130823462495
 20
-10.0
 10
1.0
 20
-10.0
 10
1.0
 20
0.0
  0
ENDSEC
  0
SECTION
  2
OBJECTS
  0
DICTIONARY
  5
A
330
0
100
AcDbDictionary
280
0
281
1
  3
ACAD_COLOR
350
B
  3
ACAD_GROUP
350
C
  3
ACAD_LAYOUT
350
D
  3
ACAD_MATERIAL
350
E
  3
ACAD_MLEADERSTYLE
350
F
  3
ACAD_MLINESTYLE
350
10
  3
ACAD_PLOTSETTINGS
350
11
  3
ACAD_PLOTSTYLENAME
350
12
  3
ACAD_SCALELIST
350
14
  3
ACAD_TABLESTYLE
350
15
  3
ACAD_VISUALSTYLE
350
16
  3
EZDXF_META
350
2D
  0
DICTIONARY
  5
B
330
A
100
AcDbDictionary
280
0
281
1
  0
DICTIONARY
  5
C
330
A
100
AcDbDictionary
280
0
281
1
  0
DICTIONARY
  5
D
330
A
100
AcDbDictionary
280
0
281
1
  3
Model
350
1A
  3
Layout1
350
1E
  0
DICTIONARY
  5
E
330
A
100
AcDbDictionary
280
0
281
1
  3
ByBlock
350
1F
  3
ByLayer
350
20
  3
Global
350
21
  0
DICTIONARY
  5
F
330
A
100
AcDbDictionary
280
0
281
1
  3
Standard
350
2C
  0
DICTIONARY
  5
10
330
A
100
AcDbDictionary
280
0
281
1
  3
Standard
350
22
  0
DICTIONARY
  5
11
330
A
100
AcDbDictionary
280
0
281
1
  0
ACDBDICTIONARYWDFLT
  5
12
330
A
100
AcDbDictionary
280
0
281
1
  3
Normal
350
13
100
AcDbDictionaryWithDefault
340
13
  0
ACDBPLACEHOLDER
  5
13
330
12
  0
DICTIONARY
  5
14
330
A
100
AcDbDictionary
280
0
281
1
  0
DICTIONARY
  5
15
330
A
100
AcDbDictionary
280
0
281
1
  0
DICTIONARY
  5
16
330
A
100
AcDbDictionary
280
0
281
1
  0
LAYOUT
  5
1A
330
D
100
AcDbPlotSettings
  1

  2
Adobe PDF
  4
A3
  6

 40
7.5
 41
20.0
 42
7.5
 43
20.0
 44
420.0
 45
297.0
 46
0.0
 47
0.0
 48
0.0
 49
0.0
140
0.0
141
0.0
142
1.0
143
1.0
 70
1024
 72
1
 73
0
 74
5
  7

 75
16
 76
0
 77
2
 78
300
147
1.0
148
0.0
149
0.0
100
AcDbLayout
  1
Model
 70
1
 71
0
 10
0.0
 20
0.0
 11
420.0
 21
297.0
 12
0.0
 22
0.0
 32
0.0
 14
1e+20
 24
1e+20
 34
1e+20
 15
-1e+20
 25
-1e+20
 35
-1e+20
146
0.0
 13
0.0
 23
0.0
 33
0.0
 16
1.0
 26
0.0
 36
0.0
 17
0.0
 27
1.0
 37
0.0
 76
1
330
17
  0
LAYOUT
  5
1E
330
D
100
AcDbPlotSettings
  1

  2
Adobe PDF
  4
A3
  6

 40
7.5
 41
20.0
 42
7.5
 43
20.0
 44
420.0
 45
297.0
 46
0.0
 47
0.0
 48
0.0
 49
0.0
140
0.0
141
0.0
142
1.0
143
1.0
 70
0
 72
1
 73
0
 74
5
  7

 75
16
 76
0
 77
2
 78
300
147
1.0
148
0.0
149
0.0
100
AcDbLayout
  1
Layout1
 70
1
 71
1
 10
0.0
 20
0.0
 11
420.0
 21
297.0
 12
0.0
 22
0.0
 32
0.0
 14
1e+20
 24
1e+20
 34
1e+20
 15
-1e+20
 25
-1e+20
 35
-1e+20
146
0.0
 13
0.0
 23
0.0
 33
0.0
 16
1.0
 26
0.0
 36
0.0
 17
0.0
 27
1.0
 37
0.0
 76
1
330
1B
  0
MATERIAL
  5
1F
102
{ACAD_REACTORS
330
E
102
}
330
E
100
AcDbMaterial
  1
ByBlock
  2

 70
0
 40
1.0
 71
1
 41
1.0
 91
-1023410177
 42
1.0
 72
1
  3

 73
1
 74
1
 75
1
 44
0.5
 73
0
 45
1.0
 46
1.0
 77
1
  4

 78
1
 79
1
170
1
 48
1.0
171
1
  6

172
1
173
1
174
1
140
1.0
141
1.0
175
1
  7

176
1
177
1
178
1
143
1.0
179
1
  8

270
1
271
1
272
1
145
1.0
146
1.0
273
1
  9

274
1
275
1
276
1
 42
1.0
 72
1
  3

 73
1
 74
1
 75
1
 94
63
  0
MATERIAL
  5
20
102
{ACAD_REACTORS
330
E
102
}
330
E
100
AcDbMaterial
  1
ByLayer
  2

 70
0
 40
1.0
 71
1
 41
1.0
 91
-1023410177
 42
1.0
 72
1
  3

 73
1
 74
1
 75
1
 44
0.5
 73
0
 45
1.0
 46
1.0
 77
1
  4

 78
1
 79
1
170
1
 48
1.0
171
1
  6

172
1
173
1
174
1
140
1.0
141
1.0
175
1
  7

176
1
177
1
178
1
143
1.0
179
1
  8

270
1
271
1
272
1
145
1.0
146
1.0
273
1
  9

274
1
275
1
276
1
 42
1.0
 72
1
  3

 73
1
 74
1
 75
1
 94
63
  0
MATERIAL
  5
21
102
{ACAD_REACTORS
330
E
102
}
330
E
100
AcDbMaterial
  1
Global
  2

 70
0
 40
1.0
 71
1
 41
1.0
 91
-1023410177
 42
1.0
 72
1
  3

 73
1
 74
1
 75
1
 44
0.5
 73
0
 45
1.0
 46
1.0
 77
1
  4

 78
1
 79
1
170
1
 48
1.0
171
1
  6

172
1
173
1
174
1
140
1.0
141
1.0
175
1
  7

176
1
177
1
178
1
143
1.0
179
1
  8

270
1
271
1
272
1
145
1.0
146
1.0
273
1
  9

274
1
275
1
276
1
 42
1.0
 72
1
  3

 73
1
 74
1
 75
1
 94
63
  0
MLINESTYLE
  5
22
102
{ACAD_REACTORS
330
10
102
}
330
10
100
AcDbMlineStyle
  2
Standard
 70
0
  3

 62
256
 51
90.0
 52
90.0
 71
2
 49
0.5
 62
256
  6
BYLAYER
 49
-0.5
 62
256
  6
BYLAYER
  0
MLEADERSTYLE
  5
2C
102
{ACAD_REACTORS
330
F
102
}
330
F
100
AcDbMLeaderStyle
179
2
170
2
171
1
172
0
 90
2
 40
0.0
 41
0.0
173
1
 91
-1056964608
 92
-2
290
1
 42
2.0
291
1
 43
8.0
  3
Standard
 44
4.0
300

342
29
174
1
175
1
176
0
178
1
 93
-1056964608
 45
4.0
292
0
297
0
 46
4.0
 94
-1056964608
 47
1.0
 49
1.0
140
1.0
294
1
141
0.0
177
0
142
1.0
295
0
296
0
143
3.75
271
0
272
9
273
9
  0
DICTIONARY
  5
2D
330
A
100
AcDbDictionary
281
1
  3
CREATED_BY_EZDXF
350
2E
  3
WRITTEN_BY_EZDXF
350
32
  0
DICTIONARYVAR
  5
2E
330
2D
100
DictionaryVariables
280
0
  1
1.1.4 @ 2024-02-29T00:52:16.439224+00:00
  0
DICTIONARYVAR
  5
32
330
2D
100
DictionaryVariables
280
0
  1
1.1.4 @ 2024-02-29T00:52:16.449144+00:00
  0
ENDSEC
  0
EOF
