  0
SECTION
  2
HEADER
  9
$ACADVER
  1
AC1024
  9
$ACADMAINTVER
 70
6
  9
$DWGCODEPAGE
  3
ANSI_1252
  9
$LASTSAVEDBY
  1
ezdxf
  9
$INSBASE
 10
0.0
 20
0.0
 30
0.0
  9
$EXTMIN
 10
-100
 20
-100
 30
-100
  9
$EXTMAX
 10
100
 20
100
 30
100
  9
$LIMMIN
 10
0.0
 20
0.0
  9
$LIMMAX
 10
420.0
 20
297.0
  9
$ORTHOMODE
 70
0
  9
$REGENMODE
 70
1
  9
$FILLMODE
 70
1
  9
$QTEXTMODE
 70
0
  9
$MIRRTEXT
 70
1
  9
$LTSCALE
 40
1.0
  9
$ATTMODE
 70
1
  9
$TEXTSIZE
 40
2.5
  9
$TRACEWID
 40
1.0
  9
$TEXTSTYLE
  7
Standard
  9
$CLAYER
  8
0
  9
$CELTYPE
  6
ByLayer
  9
$CECOLOR
 62
256
  9
$CELTSCALE
 40
1.0
  9
$DISPSILH
 70
0
  9
$DIMSCALE
 40
1.0
  9
$DIMASZ
 40
2.5
  9
$DIMEXO
 40
0.625
  9
$DIMDLI
 40
3.75
  9
$DIMRND
 40
0.0
  9
$DIMDLE
 40
0.0
  9
$DIMEXE
 40
1.25
  9
$DIMTP
 40
0.0
  9
$DIMTM
 40
0.0
  9
$DIMTXT
 40
2.5
  9
$DIMCEN
 40
2.5
  9
$DIMTSZ
 40
0.0
  9
$DIMTOL
 70
0
  9
$DIMLIM
 70
0
  9
$DIMTIH
 70
0
  9
$DIMTOH
 70
0
  9
$DIMSE1
 70
0
  9
$DIMSE2
 70
0
  9
$DIMTAD
 70
1
  9
$DIMZIN
 70
8
  9
$DIMBLK
  1

  9
$DIMASO
 70
1
  9
$DIMSHO
 70
1
  9
$DIMPOST
  1

  9
$DIMAPOST
  1

  9
$DIMALT
 70
0
  9
$DIMALTD
 70
3
  9
$DIMALTF
 40
0.03937007874
  9
$DIMLFAC
 40
1.0
  9
$DIMTOFL
 70
1
  9
$DIMTVP
 40
0.0
  9
$DIMTIX
 70
0
  9
$DIMSOXD
 70
0
  9
$DIMSAH
 70
0
  9
$DIMBLK1
  1

  9
$DIMBLK2
  1

  9
$DIMSTYLE
  2
ISO-25
  9
$DIMCLRD
 70
0
  9
$DIMCLRE
 70
0
  9
$DIMCLRT
 70
0
  9
$DIMTFAC
 40
1.0
  9
$DIMGAP
 40
0.625
  9
$DIMJUST
 70
0
  9
$DIMSD1
 70
0
  9
$DIMSD2
 70
0
  9
$DIMTOLJ
 70
0
  9
$DIMTZIN
 70
8
  9
$DIMALTZ
 70
0
  9
$DIMALTTZ
 70
0
  9
$DIMUPT
 70
0
  9
$DIMDEC
 70
2
  9
$DIMTDEC
 70
2
  9
$DIMALTU
 70
2
  9
$DIMALTTD
 70
3
  9
$DIMTXSTY
  7
Standard
  9
$DIMAUNIT
 70
0
  9
$DIMADEC
 70
0
  9
$DIMALTRND
 40
0.0
  9
$DIMAZIN
 70
0
  9
$DIMDSEP
 70
44
  9
$DIMATFIT
 70
3
  9
$DIMFRAC
 70
0
  9
$DIMLDRBLK
  1

  9
$DIMLUNIT
 70
2
  9
$DIMLWD
 70
-2
  9
$DIMLWE
 70
-2
  9
$DIMTMOVE
 70
0
  9
$DIMFXL
 40
1.0
  9
$DIMFXLON
 70
0
  9
$DIMJOGANG
 40
0.785398163397
  9
$DIMTFILL
 70
0
  9
$DIMTFILLCLR
 70
0
  9
$DIMARCSYM
 70
0
  9
$DIMLTYPE
  6

  9
$DIMLTEX1
  6

  9
$DIMLTEX2
  6

  9
$DIMTXTDIRECTION
 70
0
  9
$LUNITS
 70
2
  9
$LUPREC
 70
4
  9
$SKETCHINC
 40
1.0
  9
$FILLETRAD
 40
10.0
  9
$AUNITS
 70
0
  9
$AUPREC
 70
2
  9
$MENU
  1
.
  9
$ELEVATION
 40
0.0
  9
$PELEVATION
 40
0.0
  9
$THICKNESS
 40
0.0
  9
$LIMCHECK
 70
0
  9
$CHAMFERA
 40
0.0
  9
$CHAMFERB
 40
0.0
  9
$CHAMFERC
 40
0.0
  9
$CHAMFERD
 40
0.0
  9
$SKPOLY
 70
0
  9
$TDCREATE
 40
2458904.445625
  9
$TDUCREATE
 40
2458532.153996898
  9
$TDUPDATE
 40
2458904.445625
  9
$TDUUPDATE
 40
2458532.1544311
  9
$TDINDWG
 40
0.0
  9
$TDUSRTIMER
 40
0.0
  9
$USRTIMER
 70
1
  9
$ANGBASE
 50
0.0
  9
$ANGDIR
 70
0
  9
$PDMODE
 70
0
  9
$PDSIZE
 40
0.0
  9
$PLINEWID
 40
0.0
  9
$SPLFRAME
 70
0
  9
$SPLINETYPE
 70
6
  9
$SPLINESEGS
 70
8
  9
$HANDSEED
  5
209
  9
$SURFTAB1
 70
6
  9
$SURFTAB2
 70
6
  9
$SURFTYPE
 70
6
  9
$SURFU
 70
6
  9
$SURFV
 70
6
  9
$UCSBASE
  2

  9
$UCSNAME
  2

  9
$UCSORG
 10
0.0
 20
0.0
 30
0.0
  9
$UCSXDIR
 10
1.0
 20
0.0
 30
0.0
  9
$UCSYDIR
 10
0.0
 20
1.0
 30
0.0
  9
$UCSORTHOREF
  2

  9
$UCSORTHOVIEW
 70
0
  9
$UCSORGTOP
 10
0.0
 20
0.0
 30
0.0
  9
$UCSORGBOTTOM
 10
0.0
 20
0.0
 30
0.0
  9
$UCSORGLEFT
 10
0.0
 20
0.0
 30
0.0
  9
$UCSORGRIGHT
 10
0.0
 20
0.0
 30
0.0
  9
$UCSORGFRONT
 10
0.0
 20
0.0
 30
0.0
  9
$UCSORGBACK
 10
0.0
 20
0.0
 30
0.0
  9
$PUCSBASE
  2

  9
$PUCSNAME
  2

  9
$PUCSORG
 10
0.0
 20
0.0
 30
0.0
  9
$PUCSXDIR
 10
1.0
 20
0.0
 30
0.0
  9
$PUCSYDIR
 10
0.0
 20
1.0
 30
0.0
  9
$PUCSORTHOREF
  2

  9
$PUCSORTHOVIEW
 70
0
  9
$PUCSORGTOP
 10
0.0
 20
0.0
 30
0.0
  9
$PUCSORGBOTTOM
 10
0.0
 20
0.0
 30
0.0
  9
$PUCSORGLEFT
 10
0.0
 20
0.0
 30
0.0
  9
$PUCSORGRIGHT
 10
0.0
 20
0.0
 30
0.0
  9
$PUCSORGFRONT
 10
0.0
 20
0.0
 30
0.0
  9
$PUCSORGBACK
 10
0.0
 20
0.0
 30
0.0
  9
$USERI1
 70
0
  9
$USERI2
 70
0
  9
$USERI3
 70
0
  9
$USERI4
 70
0
  9
$USERI5
 70
0
  9
$USERR1
 40
0.0
  9
$USERR2
 40
0.0
  9
$USERR3
 40
0.0
  9
$USERR4
 40
0.0
  9
$USERR5
 40
0.0
  9
$WORLDVIEW
 70
1
  9
$SHADEDGE
 70
3
  9
$SHADEDIF
 70
70
  9
$TILEMODE
 70
1
  9
$MAXACTVP
 70
64
  9
$PINSBASE
 10
0.0
 20
0.0
 30
0.0
  9
$PLIMCHECK
 70
0
  9
$PEXTMIN
 10
1e+20
 20
1e+20
 30
1e+20
  9
$PEXTMAX
 10
-1e+20
 20
-1e+20
 30
-1e+20
  9
$PLIMMIN
 10
0.0
 20
0.0
  9
$PLIMMAX
 10
420.0
 20
297.0
  9
$UNITMODE
 70
0
  9
$VISRETAIN
 70
1
  9
$PLINEGEN
 70
0
  9
$PSLTSCALE
 70
1
  9
$TREEDEPTH
 70
3020
  9
$CMLSTYLE
  2
Standard
  9
$CMLJUST
 70
0
  9
$CMLSCALE
 40
20.0
  9
$PROXYGRAPHICS
 70
1
  9
$MEASUREMENT
 70
1
  9
$CELWEIGHT
370
-1
  9
$ENDCAPS
280
0
  9
$JOINSTYLE
280
0
  9
$LWDISPLAY
290
0
  9
$INSUNITS
 70
6
  9
$HYPERLINKBASE
  1

  9
$STYLESHEET
  1

  9
$XEDIT
290
1
  9
$CEPSNTYPE
380
0
  9
$PSTYLEMODE
290
1
  9
$FINGERPRINTGUID
  2
8988EC1A-5724-11EA-803D-C0B5D7C13410
  9
$VERSIONGUID
  2
898C4786-5724-11EA-80C5-C0B5D7C13410
  9
$EXTNAMES
290
1
  9
$PSVPSCALE
 40
0.0
  9
$OLESTARTUP
290
0
  9
$SORTENTS
280
127
  9
$INDEXCTL
280
0
  9
$HIDETEXT
280
1
  9
$XCLIPFRAME
280
2
  9
$HALOGAP
280
0
  9
$OBSCOLOR
 70
257
  9
$OBSLTYPE
280
0
  9
$INTERSECTIONDISPLAY
280
0
  9
$INTERSECTIONCOLOR
 70
257
  9
$DIMASSOC
280
2
  9
$PROJECTNAME
  1

  9
$CAMERADISPLAY
290
0
  9
$LENSLENGTH
 40
50.0
  9
$CAMERAHEIGHT
 40
0.0
  9
$STEPSPERSEC
 40
24.0
  9
$STEPSIZE
 40
100.0
  9
$3DDWFPREC
 40
2.0
  9
$PSOLWIDTH
 40
0.005
  9
$PSOLHEIGHT
 40
0.08
  9
$LOFTANG1
 40
1.570796326795
  9
$LOFTANG2
 40
1.570796326795
  9
$LOFTMAG1
 40
0.0
  9
$LOFTMAG2
 40
0.0
  9
$LOFTPARAM
 70
7
  9
$LOFTNORMALS
280
1
  9
$LATITUDE
 40
37.795
  9
$LONGITUDE
 40
-122.394
  9
$NORTHDIRECTION
 40
0.0
  9
$TIMEZONE
 70
-8000
  9
$LIGHTGLYPHDISPLAY
280
1
  9
$TILEMODELIGHTSYNCH
280
1
  9
$CMATERIAL
347
20
  9
$SOLIDHIST
280
0
  9
$SHOWHIST
280
1
  9
$DWFFRAME
280
2
  9
$DGNFRAME
280
2
  9
$REALWORLDSCALE
290
1
  9
$INTERFERECOLOR
 62
256
  9
$CSHADOW
280
0
  9
$SHADOWPLANELOCATION
 40
0.0
  0
ENDSEC
  0
SECTION
  2
CLASSES
  0
CLASS
  1
ACDBDICTIONARYWDFLT
  2
AcDbDictionaryWithDefault
  3
ObjectDBX Classes
 90
0
 91
0
280
0
281
0
  0
CLASS
  1
SUN
  2
AcDbSun
  3
SCENEOE
 90
1153
 91
0
280
0
281
0
  0
CLASS
  1
VISUALSTYLE
  2
AcDbVisualStyle
  3
ObjectDBX Classes
 90
4095
 91
0
280
0
281
0
  0
CLASS
  1
MATERIAL
  2
AcDbMaterial
  3
ObjectDBX Classes
 90
1153
 91
0
280
0
281
0
  0
CLASS
  1
SCALE
  2
AcDbScale
  3
ObjectDBX Classes
 90
1153
 91
0
280
0
281
0
  0
CLASS
  1
TABLESTYLE
  2
AcDbTableStyle
  3
ObjectDBX Classes
 90
4095
 91
0
280
0
281
0
  0
CLASS
  1
MLEADERSTYLE
  2
AcDbMLeaderStyle
  3
ACDB_MLEADERSTYLE_CLASS
 90
4095
 91
0
280
0
281
0
  0
CLASS
  1
DICTIONARYVAR
  2
AcDbDictionaryVar
  3
ObjectDBX Classes
 90
0
 91
0
280
0
281
0
  0
CLASS
  1
CELLSTYLEMAP
  2
AcDbCellStyleMap
  3
ObjectDBX Classes
 90
1152
 91
0
280
0
281
0
  0
CLASS
  1
MENTALRAYRENDERSETTINGS
  2
AcDbMentalRayRenderSettings
  3
SCENEOE
 90
1024
 91
0
280
0
281
0
  0
CLASS
  1
ACDBDETAILVIEWSTYLE
  2
AcDbDetailViewStyle
  3
ObjectDBX Classes
 90
1025
 91
0
280
0
281
0
  0
CLASS
  1
ACDBSECTIONVIEWSTYLE
  2
AcDbSectionViewStyle
  3
ObjectDBX Classes
 90
1025
 91
0
280
0
281
0
  0
CLASS
  1
RASTERVARIABLES
  2
AcDbRasterVariables
  3
ISM
 90
0
 91
0
280
0
281
0
  0
CLASS
  1
ACDBPLACEHOLDER
  2
AcDbPlaceHolder
  3
ObjectDBX Classes
 90
0
 91
0
280
0
281
0
  0
CLASS
  1
LAYOUT
  2
AcDbLayout
  3
ObjectDBX Classes
 90
0
 91
0
280
0
281
0
  0
ENDSEC
  0
SECTION
  2
TABLES
  0
TABLE
  2
VPORT
  5
8
330
0
100
AcDbSymbolTable
 70
1
  0
VPORT
  5
23
330
8
100
AcDbSymbolTableRecord
100
AcDbViewportTableRecord
  2
*Active
 70
0
 10
0.0
 20
0.0
 11
1.0
 21
1.0
 12
70.0
 22
50.0
 13
0.0
 23
0.0
 14
0.5
 24
0.5
 15
0.5
 25
0.5
 16
0.0
 26
0.0
 36
1.0
 17
0.0
 27
0.0
 37
0.0
 40
1.0
 41
1.34
 42
50.0
 43
0.0
 44
0.0
 50
0.0
 51
0.0
 71
0
 72
1000
 73
1
 74
3
 75
0
 76
0
 77
0
 78
0
281
0
 65
0
146
0.0
  0
ENDTAB
  0
TABLE
  2
LTYPE
  5
2
330
0
100
AcDbSymbolTable
 70
3
  0
LTYPE
  5
24
330
2
100
AcDbSymbolTableRecord
100
AcDbLinetypeTableRecord
  2
ByBlock
 70
0
  3

 72
65
 73
0
 40
0.0
  0
LTYPE
  5
25
330
2
100
AcDbSymbolTableRecord
100
AcDbLinetypeTableRecord
  2
ByLayer
 70
0
  3

 72
65
 73
0
 40
0.0
  0
LTYPE
  5
26
330
2
100
AcDbSymbolTableRecord
100
AcDbLinetypeTableRecord
  2
Continuous
 70
0
  3

 72
65
 73
0
 40
0.0
  0
ENDTAB
  0
TABLE
  2
LAYER
  5
1
330
0
100
AcDbSymbolTable
 70
3
  0
LAYER
  5
27
330
1
100
AcDbSymbolTableRecord
100
AcDbLayerTableRecord
  2
0
 70
0
 62
7
  6
Continuous
370
-3
390
13
347
21
  0
LAYER
  5
28
330
1
100
AcDbSymbolTableRecord
100
AcDbLayerTableRecord
  2
Defpoints
 70
0
 62
7
  6
Continuous
290
0
370
-3
390
13
347
21
  0
LAYER
  5
2D
330
1
100
AcDbSymbolTableRecord
100
AcDbLayerTableRecord
  2
TEXTLAYER
 70
0
 62
2
  6
Continuous
370
-3
390
13
347
21
  0
ENDTAB
  0
TABLE
  2
STYLE
  5
5
330
0
100
AcDbSymbolTable
 70
1
  0
STYLE
  5
29
330
5
100
AcDbSymbolTableRecord
100
AcDbTextStyleTableRecord
  2
Standard
 70
0
 40
0.0
 41
1.0
 50
0.0
 71
0
 42
2.5
  3
txt
  4

  0
ENDTAB
  0
TABLE
  2
VIEW
  5
7
330
0
100
AcDbSymbolTable
 70
0
  0
ENDTAB
  0
TABLE
  2
UCS
  5
6
330
0
100
AcDbSymbolTable
 70
0
  0
ENDTAB
  0
TABLE
  2
APPID
  5
3
330
0
100
AcDbSymbolTable
 70
1
  0
APPID
  5
2A
330
3
100
AcDbSymbolTableRecord
100
AcDbRegAppTableRecord
  2
ACAD
 70
0
  0
ENDTAB
  0
TABLE
  2
DIMSTYLE
  5
4
330
0
100
AcDbSymbolTable
 70
1
100
AcDbDimStyleTable
  0
DIMSTYLE
105
2B
330
4
100
AcDbSymbolTableRecord
100
AcDbDimStyleTableRecord
  2
Standard
 70
0
 40
1.0
 41
2.5
 42
0.625
 43
3.75
 44
1.25
 45
0.0
 46
0.0
 47
0.0
 48
0.0
 49
2.5
140
2.5
141
2.5
142
0.0
143
0.03937007874
144
1.0
145
0.0
146
1.0
147
0.625
148
0.0
 69
0
 70
0
 71
0
 72
0
 73
0
 74
0
 75
0
 76
0
 77
1
 78
8
 79
0
170
0
171
3
172
1
173
0
174
0
175
0
176
0
177
0
178
0
179
0
271
0
272
2
273
2
274
3
275
0
276
0
277
2
278
44
279
0
280
0
281
0
282
0
283
0
284
8
285
0
286
0
288
0
289
3
290
0
371
-2
372
-2
  0
ENDTAB
  0
TABLE
  2
BLOCK_RECORD
  5
9
330
0
100
AcDbSymbolTable
 70
2
  0
BLOCK_RECORD
  5
17
330
9
100
AcDbSymbolTableRecord
100
AcDbBlockTableRecord
  2
*Model_Space
340
1A
 70
0
280
1
281
1
  0
BLOCK_RECORD
  5
1B
330
9
100
AcDbSymbolTableRecord
100
AcDbBlockTableRecord
  2
*Paper_Space
340
1E
 70
0
280
1
281
1
  0
ENDTAB
  0
ENDSEC
  0
SECTION
  2
BLOCKS
  0
BLOCK
  5
18
330
17
100
AcDbEntity
  8
0
100
AcDbBlockBegin
  2
*Model_Space
 70
0
 10
0.0
 20
0.0
 30
0.0
  3
*Model_Space
  1

  0
ENDBLK
  5
19
330
17
100
AcDbEntity
  8
0
100
AcDbBlockEnd
  0
BLOCK
  5
1C
330
1B
100
AcDbEntity
  8
0
100
AcDbBlockBegin
  2
*Paper_Space
 70
0
 10
0.0
 20
0.0
 30
0.0
  3
*Paper_Space
  1

  0
ENDBLK
  5
1D
330
1B
100
AcDbEntity
  8
0
100
AcDbBlockEnd
  0
ENDSEC
  0
SECTION
  2
ENTITIES
  0
LINE
  5
2E
330
17
100
AcDbEntity
  8
0
 62
7
100
AcDbLine
 10
0.5
 20
0.0
 30
0.0
 11
0.5002220185753398
 21
-0.0016754592379416948
 31
0.0
  0
LINE
  5
2F
330
17
100
AcDbEntity
  8
0
 62
7
100
AcDbLine
 10
0.5002220185753398
 20
-0.0016754592379416948
 30
0.0
 11
0.5024806178905249
 21
0.020953060329721947
 31
0.0
  0
LINE
  5
30
330
17
100
AcDbEntity
  8
0
 62
7
100
AcDbLine
 10
0.5024806178905249
 20
0.020953060329721947
 30
0.0
 11
0.5094341692640822
 21
0.0708306637289863
 31
0.0
  0
LINE
  5
31
330
17
100
AcDbEntity
  8
0
 62
7
100
AcDbLine
 10
0.5094341692640822
 20
0.0708306637289863
 30
0.0
 11
0.5240053165166618
 21
0.1491828107788622
 31
0.0
  0
LINE
  5
32
330
17
100
AcDbEntity
  8
0
 62
7
100
AcDbLine
 10
0.5240053165166618
 20
0.1491828107788622
 30
0.0
 11
0.5490186862992306
 21
0.2552554905358336
 31
0.0
  0
LINE
  5
33
330
17
100
AcDbEntity
  8
0
 62
7
100
AcDbLine
 10
0.5490186862992306
 20
0.2552554905358336
 30
0.0
 11
0.587184786475209
 21
0.38786437579196553
 31
0.0
  0
LINE
  5
34
330
17
100
AcDbEntity
  8
0
 62
7
100
AcDbLine
 10
0.587184786475209
 20
0.38786437579196553
 30
0.0
 11
0.6410734890855571
 21
0.5455260872199477
 31
0.0
  0
LINE
  5
35
330
17
100
AcDbEntity
  8
0
 62
7
100
AcDbLine
 10
0.6410734890855571
 20
0.5455260872199477
 30
0.0
 11
0.7130885371416991
 21
0.726497369360177
 31
0.0
  0
LINE
  5
36
330
17
100
AcDbEntity
  8
0
 62
7
100
AcDbLine
 10
0.7130885371416991
 20
0.726497369360177
 30
0.0
 11
0.8054436815592234
 21
0.9288000237777995
 31
0.0
  0
LINE
  5
37
330
17
100
AcDbEntity
  8
0
 62
7
100
AcDbLine
 10
0.8054436815592234
 20
0.9288000237777995
 30
0.0
 11
0.9201407275263129
 21
1.150243734866041
 31
0.0
  0
LINE
  5
38
330
17
100
AcDbEntity
  8
0
 62
7
100
AcDbLine
 10
0.9201407275263129
 20
1.150243734866041
 30
0.0
 11
1.05894971721984
 21
1.3884495171914883
 31
0.0
  0
LINE
  5
39
330
17
100
AcDbEntity
  8
0
 62
7
100
AcDbLine
 10
1.05894971721984
 20
1.3884495171914883
 30
0.0
 11
1.223391448477738
 21
1.640874452492326
 31
0.0
  0
LINE
  5
3A
330
17
100
AcDbEntity
  8
0
 62
7
100
AcDbLine
 10
1.223391448477738
 20
1.640874452492326
 30
0.0
 11
1.41472250423269
 21
1.90483779465996
 31
0.0
  0
LINE
  5
3B
330
17
100
AcDbEntity
  8
0
 62
7
100
AcDbLine
 10
1.41472250423269
 20
1.90483779465996
 30
0.0
 11
1.633922941961564
 21
2.1775483144745587
 31
0.0
  0
LINE
  5
3C
330
17
100
AcDbEntity
  8
0
 62
7
100
AcDbLine
 10
1.633922941961564
 20
2.1775483144745587
 30
0.0
 11
1.881686765636959
 21
2.45613267007355
 31
0.0
  0
LINE
  5
3D
330
17
100
AcDbEntity
  8
0
 62
7
100
AcDbLine
 10
1.881686765636959
 20
2.45613267007355
 30
0.0
 11
2.1584152747633825
 21
2.737664548001422
 31
0.0
  0
LINE
  5
3E
330
17
100
AcDbEntity
  8
0
 62
7
100
AcDbLine
 10
2.1584152747633825
 20
2.737664548001422
 30
0.0
 11
2.553973705621307
 21
2.737664548001422
 31
0.0
  0
LINE
  5
3F
330
17
100
AcDbEntity
  8
0
 62
7
100
AcDbLine
 10
2.553973705621307
 20
2.737664548001422
 30
0.0
 11
2.8307022147477308
 21
2.45613267007355
 31
0.0
  0
LINE
  5
40
330
17
100
AcDbEntity
  8
0
 62
7
100
AcDbLine
 10
2.8307022147477308
 20
2.45613267007355
 30
0.0
 11
3.0784660384231257
 21
2.1775483144745587
 31
0.0
  0
LINE
  5
41
330
17
100
AcDbEntity
  8
0
 62
7
100
AcDbLine
 10
3.0784660384231257
 20
2.1775483144745587
 30
0.0
 11
3.2976664761519996
 21
1.90483779465996
 31
0.0
  0
LINE
  5
42
330
17
100
AcDbEntity
  8
0
 62
7
100
AcDbLine
 10
3.2976664761519996
 20
1.90483779465996
 30
0.0
 11
3.4889975319069517
 21
1.640874452492326
 31
0.0
  0
LINE
  5
43
330
17
100
AcDbEntity
  8
0
 62
7
100
AcDbLine
 10
3.4889975319069517
 20
1.640874452492326
 30
0.0
 11
3.6534392631648496
 21
1.3884495171914883
 31
0.0
  0
LINE
  5
44
330
17
100
AcDbEntity
  8
0
 62
7
100
AcDbLine
 10
3.6534392631648496
 20
1.3884495171914883
 30
0.0
 11
3.7922482528583767
 21
1.150243734866041
 31
0.0
  0
LINE
  5
45
330
17
100
AcDbEntity
  8
0
 62
7
100
AcDbLine
 10
3.7922482528583767
 20
1.150243734866041
 30
0.0
 11
3.906945298825466
 21
0.9288000237777995
 31
0.0
  0
LINE
  5
46
330
17
100
AcDbEntity
  8
0
 62
7
100
AcDbLine
 10
3.906945298825466
 20
0.9288000237777995
 30
0.0
 11
3.9993004432429906
 21
0.726497369360177
 31
0.0
  0
LINE
  5
47
330
17
100
AcDbEntity
  8
0
 62
7
100
AcDbLine
 10
3.9993004432429906
 20
0.726497369360177
 30
0.0
 11
4.071315491299132
 21
0.5455260872199477
 31
0.0
  0
LINE
  5
48
330
17
100
AcDbEntity
  8
0
 62
7
100
AcDbLine
 10
4.071315491299132
 20
0.5455260872199477
 30
0.0
 11
4.125204193909481
 21
0.38786437579196553
 31
0.0
  0
LINE
  5
49
330
17
100
AcDbEntity
  8
0
 62
7
100
AcDbLine
 10
4.125204193909481
 20
0.38786437579196553
 30
0.0
 11
4.163370294085459
 21
0.2552554905358336
 31
0.0
  0
LINE
  5
4A
330
17
100
AcDbEntity
  8
0
 62
7
100
AcDbLine
 10
4.163370294085459
 20
0.2552554905358336
 30
0.0
 11
4.188383663868028
 21
0.1491828107788622
 31
0.0
  0
LINE
  5
4B
330
17
100
AcDbEntity
  8
0
 62
7
100
AcDbLine
 10
4.188383663868028
 20
0.1491828107788622
 30
0.0
 11
4.202954811120607
 21
0.0708306637289863
 31
0.0
  0
LINE
  5
4C
330
17
100
AcDbEntity
  8
0
 62
7
100
AcDbLine
 10
4.202954811120607
 20
0.0708306637289863
 30
0.0
 11
4.209908362494165
 21
0.020953060329721947
 31
0.0
  0
LINE
  5
4D
330
17
100
AcDbEntity
  8
0
 62
7
100
AcDbLine
 10
4.209908362494165
 20
0.020953060329721947
 30
0.0
 11
4.21216696180935
 21
-0.0016754592379416948
 31
0.0
  0
LINE
  5
4E
330
17
100
AcDbEntity
  8
0
 62
7
100
AcDbLine
 10
4.21216696180935
 20
-0.0016754592379416948
 30
0.0
 11
4.2132415924873134
 21
-0.029187071713790043
 31
0.0
  0
LINE
  5
4F
330
17
100
AcDbEntity
  8
0
 62
7
100
AcDbLine
 10
4.2132415924873134
 20
-0.029187071713790043
 30
0.0
 11
4.218649095430258
 21
-0.07887284707162433
 31
0.0
  0
LINE
  5
50
330
17
100
AcDbEntity
  8
0
 62
7
100
AcDbLine
 10
4.218649095430258
 20
-0.07887284707162433
 30
0.0
 11
4.228989884094959
 21
-0.12777055101341583
 31
0.0
  0
LINE
  5
51
330
17
100
AcDbEntity
  8
0
 62
7
100
AcDbLine
 10
4.228989884094959
 20
-0.12777055101341583
 30
0.0
 11
4.2441606367392914
 21
-0.17539161384480992
 31
0.0
  0
LINE
  5
52
330
17
100
AcDbEntity
  8
0
 62
7
100
AcDbLine
 10
4.2441606367392914
 20
-0.17539161384480992
 30
0.0
 11
4.264009772217616
 21
-0.22126022164742623
 31
0.0
  0
LINE
  5
53
330
17
100
AcDbEntity
  8
0
 62
7
100
AcDbLine
 10
4.264009772217616
 20
-0.22126022164742623
 30
0.0
 11
4.288338964529486
 21
-0.2649180704542467
 31
0.0
  0
LINE
  5
54
330
17
100
AcDbEntity
  8
0
 62
7
100
AcDbLine
 10
4.288338964529486
 20
-0.2649180704542467
 30
0.0
 11
4.316905124427481
 21
-0.3059289454713596
 31
0.0
  0
LINE
  5
55
330
17
100
AcDbEntity
  8
0
 62
7
100
AcDbLine
 10
4.316905124427481
 20
-0.3059289454713596
 30
0.0
 11
4.34942282828462
 21
-0.34388307959198705
 31
0.0
  0
LINE
  5
56
330
17
100
AcDbEntity
  8
0
 62
7
100
AcDbLine
 10
4.34942282828462
 20
-0.34388307959198705
 30
0.0
 11
4.385567169952884
 21
-0.3784012476539641
 31
0.0
  0
LINE
  5
57
330
17
100
AcDbEntity
  8
0
 62
7
100
AcDbLine
 10
4.385567169952884
 20
-0.3784012476539641
 30
0.0
 11
4.424977007118056
 21
-0.4091385555322054
 31
0.0
  0
LINE
  5
58
330
17
100
AcDbEntity
  8
0
 62
7
100
AcDbLine
 10
4.424977007118056
 20
-0.4091385555322054
 30
0.0
 11
4.46725856971434
 21
-0.4357878862067941
 31
0.0
  0
LINE
  5
59
330
17
100
AcDbEntity
  8
0
 62
7
100
AcDbLine
 10
4.46725856971434
 20
-0.4357878862067941
 30
0.0
 11
4.511989394344702
 21
-0.45808296837472745
 31
0.0
  0
LINE
  5
5A
330
17
100
AcDbEntity
  8
0
 62
7
100
AcDbLine
 10
4.511989394344702
 20
-0.45808296837472745
 30
0.0
 11
4.55872254539548
 21
-0.475801036944758
 31
0.0
  0
LINE
  5
5B
330
17
100
AcDbEntity
  8
0
 62
7
100
AcDbLine
 10
4.55872254539548
 20
-0.475801036944758
 30
0.0
 11
4.6069910806692995
 21
-0.4887650588325485
 31
0.0
  0
LINE
  5
5C
330
17
100
AcDbEntity
  8
0
 62
7
100
AcDbLine
 10
4.6069910806692995
 20
-0.4887650588325485
 30
0.0
 11
4.656312716917163
 21
-0.49684550181673226
 31
0.0
  0
LINE
  5
5D
330
17
100
AcDbEntity
  8
0
 62
7
100
AcDbLine
 10
4.656312716917163
 20
-0.49684550181673226
 30
0.0
 11
4.706194648653243
 21
-0.4999616287820504
 31
0.0
  0
LINE
  5
5E
330
17
100
AcDbEntity
  8
0
 62
7
100
AcDbLine
 10
4.706194648653243
 20
-0.4999616287820504
 30
0.0
 11
4.756138472104413
 21
-0.4980823044179203
 31
0.0
  0
LINE
  5
5F
330
17
100
AcDbEntity
  8
0
 62
7
100
AcDbLine
 10
4.756138472104413
 20
-0.4980823044179203
 30
0.0
 11
4.805645165095977
 21
-0.49122630631216624
 31
0.0
  0
LINE
  5
60
330
17
100
AcDbEntity
  8
0
 62
7
100
AcDbLine
 10
4.805645165095977
 20
-0.49122630631216624
 30
0.0
 11
4.854220073116303
 21
-0.4794621373315692
 31
0.0
  0
LINE
  5
61
330
17
100
AcDbEntity
  8
0
 62
7
100
AcDbLine
 10
4.854220073116303
 20
-0.4794621373315692
 30
0.0
 11
4.90137785174118
 21
-0.46290734116386606
 31
0.0
  0
LINE
  5
62
330
17
100
AcDbEntity
  8
0
 62
7
100
AcDbLine
 10
4.90137785174118
 20
-0.46290734116386606
 30
0.0
 11
4.946647316034879
 21
-0.44172732786007657
 31
0.0
  0
LINE
  5
63
330
17
100
AcDbEntity
  8
0
 62
7
100
AcDbLine
 10
4.946647316034879
 20
-0.44172732786007657
 30
0.0
 11
4.989576148474271
 21
-0.4161337211119504
 31
0.0
  0
LINE
  5
64
330
17
100
AcDbEntity
  8
0
 62
7
100
AcDbLine
 10
4.989576148474271
 20
-0.4161337211119504
 30
0.0
 11
5.029735418356007
 21
-0.3863822437779936
 31
0.0
  0
LINE
  5
65
330
17
100
AcDbEntity
  8
0
 62
7
100
AcDbLine
 10
5.029735418356007
 20
-0.3863822437779936
 30
0.0
 11
5.066723867530319
 21
-0.35277016278519596
 31
0.0
  0
LINE
  5
66
330
17
100
AcDbEntity
  8
0
 62
7
100
AcDbLine
 10
5.066723867530319
 20
-0.35277016278519596
 30
0.0
 11
5.1001719196398145
 21
-0.3156333189361604
 31
0.0
  0
LINE
  5
67
330
17
100
AcDbEntity
  8
0
 62
7
100
AcDbLine
 10
5.1001719196398145
 20
-0.3156333189361604
 30
0.0
 11
5.12974537280427
 21
-0.2753427712988188
 31
0.0
  0
LINE
  5
68
330
17
100
AcDbEntity
  8
0
 62
7
100
AcDbLine
 10
5.12974537280427
 20
-0.2753427712988188
 30
0.0
 11
5.155148738855349
 21
-0.2323010897068783
 31
0.0
  0
LINE
  5
69
330
17
100
AcDbEntity
  8
0
 62
7
100
AcDbLine
 10
5.155148738855349
 20
-0.2323010897068783
 30
0.0
 11
5.176128195756708
 21
-0.186938332415118
 31
0.0
  0
LINE
  5
6A
330
17
100
AcDbEntity
  8
0
 62
7
100
AcDbLine
 10
5.176128195756708
 20
-0.186938332415118
 30
0.0
 11
5.192474123709872
 21
-0.13970774909946293
 31
0.0
  0
LINE
  5
6B
330
17
100
AcDbEntity
  8
0
 62
7
100
AcDbLine
 10
5.192474123709872
 20
-0.13970774909946293
 30
0.0
 11
5.204023199605982
 21
-0.09108125213604751
 31
0.0
  0
LINE
  5
6C
330
17
100
AcDbEntity
  8
0
 62
7
100
AcDbLine
 10
5.204023199605982
 20
-0.09108125213604751
 30
0.0
 11
5.2106600288962985
 21
-0.0415447014087482
 31
0.0
  0
LINE
  5
6D
330
17
100
AcDbEntity
  8
0
 62
7
100
AcDbLine
 10
5.2106600288962985
 20
-0.0415447014087482
 30
0.0
 11
5.212610998960029
 21
-0.0016754592379416948
 31
0.0
  0
LINE
  5
6E
330
17
100
AcDbEntity
  8
0
 62
7
100
AcDbLine
 10
5.212610998960029
 20
-0.0016754592379416948
 30
0.0
 11
5.2148695982752145
 21
0.020953060329721947
 31
0.0
  0
LINE
  5
6F
330
17
100
AcDbEntity
  8
0
 62
7
100
AcDbLine
 10
5.2148695982752145
 20
0.020953060329721947
 30
0.0
 11
5.221823149648772
 21
0.0708306637289863
 31
0.0
  0
LINE
  5
70
330
17
100
AcDbEntity
  8
0
 62
7
100
AcDbLine
 10
5.221823149648772
 20
0.0708306637289863
 30
0.0
 11
5.236394296901351
 21
0.1491828107788622
 31
0.0
  0
LINE
  5
71
330
17
100
AcDbEntity
  8
0
 62
7
100
AcDbLine
 10
5.236394296901351
 20
0.1491828107788622
 30
0.0
 11
5.261407666683921
 21
0.2552554905358336
 31
0.0
  0
LINE
  5
72
330
17
100
AcDbEntity
  8
0
 62
7
100
AcDbLine
 10
5.261407666683921
 20
0.2552554905358336
 30
0.0
 11
5.299573766859899
 21
0.38786437579196553
 31
0.0
  0
LINE
  5
73
330
17
100
AcDbEntity
  8
0
 62
7
100
AcDbLine
 10
5.299573766859899
 20
0.38786437579196553
 30
0.0
 11
5.353462469470247
 21
0.5455260872199477
 31
0.0
  0
LINE
  5
74
330
17
100
AcDbEntity
  8
0
 62
7
100
AcDbLine
 10
5.353462469470247
 20
0.5455260872199477
 30
0.0
 11
5.425477517526389
 21
0.726497369360177
 31
0.0
  0
LINE
  5
75
330
17
100
AcDbEntity
  8
0
 62
7
100
AcDbLine
 10
5.425477517526389
 20
0.726497369360177
 30
0.0
 11
5.517832661943913
 21
0.9288000237777995
 31
0.0
  0
LINE
  5
76
330
17
100
AcDbEntity
  8
0
 62
7
100
AcDbLine
 10
5.517832661943913
 20
0.9288000237777995
 30
0.0
 11
5.632529707911003
 21
1.150243734866041
 31
0.0
  0
LINE
  5
77
330
17
100
AcDbEntity
  8
0
 62
7
100
AcDbLine
 10
5.632529707911003
 20
1.150243734866041
 30
0.0
 11
5.77133869760453
 21
1.3884495171914883
 31
0.0
  0
LINE
  5
78
330
17
100
AcDbEntity
  8
0
 62
7
100
AcDbLine
 10
5.77133869760453
 20
1.3884495171914883
 30
0.0
 11
5.935780428862428
 21
1.640874452492326
 31
0.0
  0
LINE
  5
79
330
17
100
AcDbEntity
  8
0
 62
7
100
AcDbLine
 10
5.935780428862428
 20
1.640874452492326
 30
0.0
 11
6.12711148461738
 21
1.90483779465996
 31
0.0
  0
LINE
  5
7A
330
17
100
AcDbEntity
  8
0
 62
7
100
AcDbLine
 10
6.12711148461738
 20
1.90483779465996
 30
0.0
 11
6.346311922346254
 21
2.1775483144745587
 31
0.0
  0
LINE
  5
7B
330
17
100
AcDbEntity
  8
0
 62
7
100
AcDbLine
 10
6.346311922346254
 20
2.1775483144745587
 30
0.0
 11
6.594075746021648
 21
2.45613267007355
 31
0.0
  0
LINE
  5
7C
330
17
100
AcDbEntity
  8
0
 62
7
100
AcDbLine
 10
6.594075746021648
 20
2.45613267007355
 30
0.0
 11
6.870804255148072
 21
2.737664548001422
 31
0.0
  0
LINE
  5
7D
330
17
100
AcDbEntity
  8
0
 62
7
100
AcDbLine
 10
6.870804255148072
 20
2.737664548001422
 30
0.0
 11
7.266362686005997
 21
2.737664548001422
 31
0.0
  0
LINE
  5
7E
330
17
100
AcDbEntity
  8
0
 62
7
100
AcDbLine
 10
7.266362686005997
 20
2.737664548001422
 30
0.0
 11
7.543091195132421
 21
2.45613267007355
 31
0.0
  0
LINE
  5
7F
330
17
100
AcDbEntity
  8
0
 62
7
100
AcDbLine
 10
7.543091195132421
 20
2.45613267007355
 30
0.0
 11
7.790855018807815
 21
2.1775483144745587
 31
0.0
  0
LINE
  5
80
330
17
100
AcDbEntity
  8
0
 62
7
100
AcDbLine
 10
7.790855018807815
 20
2.1775483144745587
 30
0.0
 11
8.010055456536689
 21
1.90483779465996
 31
0.0
  0
LINE
  5
81
330
17
100
AcDbEntity
  8
0
 62
7
100
AcDbLine
 10
8.010055456536689
 20
1.90483779465996
 30
0.0
 11
8.201386512291641
 21
1.640874452492326
 31
0.0
  0
LINE
  5
82
330
17
100
AcDbEntity
  8
0
 62
7
100
AcDbLine
 10
8.201386512291641
 20
1.640874452492326
 30
0.0
 11
8.36582824354954
 21
1.3884495171914883
 31
0.0
  0
LINE
  5
83
330
17
100
AcDbEntity
  8
0
 62
7
100
AcDbLine
 10
8.36582824354954
 20
1.3884495171914883
 30
0.0
 11
8.504637233243066
 21
1.150243734866041
 31
0.0
  0
LINE
  5
84
330
17
100
AcDbEntity
  8
0
 62
7
100
AcDbLine
 10
8.504637233243066
 20
1.150243734866041
 30
0.0
 11
8.619334279210156
 21
0.9288000237777995
 31
0.0
  0
LINE
  5
85
330
17
100
AcDbEntity
  8
0
 62
7
100
AcDbLine
 10
8.619334279210156
 20
0.9288000237777995
 30
0.0
 11
8.71168942362768
 21
0.726497369360177
 31
0.0
  0
LINE
  5
86
330
17
100
AcDbEntity
  8
0
 62
7
100
AcDbLine
 10
8.71168942362768
 20
0.726497369360177
 30
0.0
 11
8.783704471683823
 21
0.5455260872199477
 31
0.0
  0
LINE
  5
87
330
17
100
AcDbEntity
  8
0
 62
7
100
AcDbLine
 10
8.783704471683823
 20
0.5455260872199477
 30
0.0
 11
8.83759317429417
 21
0.38786437579196553
 31
0.0
  0
LINE
  5
88
330
17
100
AcDbEntity
  8
0
 62
7
100
AcDbLine
 10
8.83759317429417
 20
0.38786437579196553
 30
0.0
 11
8.875759274470148
 21
0.2552554905358336
 31
0.0
  0
LINE
  5
89
330
17
100
AcDbEntity
  8
0
 62
7
100
AcDbLine
 10
8.875759274470148
 20
0.2552554905358336
 30
0.0
 11
8.900772644252719
 21
0.1491828107788622
 31
0.0
  0
LINE
  5
8A
330
17
100
AcDbEntity
  8
0
 62
7
100
AcDbLine
 10
8.900772644252719
 20
0.1491828107788622
 30
0.0
 11
8.915343791505297
 21
0.0708306637289863
 31
0.0
  0
LINE
  5
8B
330
17
100
AcDbEntity
  8
0
 62
7
100
AcDbLine
 10
8.915343791505297
 20
0.0708306637289863
 30
0.0
 11
8.922297342878855
 21
0.020953060329721947
 31
0.0
  0
LINE
  5
8C
330
17
100
AcDbEntity
  8
0
 62
7
100
AcDbLine
 10
8.922297342878855
 20
0.020953060329721947
 30
0.0
 11
8.92455594219404
 21
-0.0016754592379416948
 31
0.0
  0
LINE
  5
8D
330
17
100
AcDbEntity
  8
0
 62
7
100
AcDbLine
 10
8.92455594219404
 20
-0.0016754592379416948
 30
0.0
 11
8.925630572872002
 21
-0.029187071713790043
 31
0.0
  0
LINE
  5
8E
330
17
100
AcDbEntity
  8
0
 62
7
100
AcDbLine
 10
8.925630572872002
 20
-0.029187071713790043
 30
0.0
 11
8.931038075814946
 21
-0.07887284707162433
 31
0.0
  0
LINE
  5
8F
330
17
100
AcDbEntity
  8
0
 62
7
100
AcDbLine
 10
8.931038075814946
 20
-0.07887284707162433
 30
0.0
 11
8.941378864479649
 21
-0.12777055101341583
 31
0.0
  0
LINE
  5
90
330
17
100
AcDbEntity
  8
0
 62
7
100
AcDbLine
 10
8.941378864479649
 20
-0.12777055101341583
 30
0.0
 11
8.956549617123981
 21
-0.17539161384480992
 31
0.0
  0
LINE
  5
91
330
17
100
AcDbEntity
  8
0
 62
7
100
AcDbLine
 10
8.956549617123981
 20
-0.17539161384480992
 30
0.0
 11
8.976398752602305
 21
-0.22126022164742623
 31
0.0
  0
LINE
  5
92
330
17
100
AcDbEntity
  8
0
 62
7
100
AcDbLine
 10
8.976398752602305
 20
-0.22126022164742623
 30
0.0
 11
9.000727944914175
 21
-0.2649180704542467
 31
0.0
  0
LINE
  5
93
330
17
100
AcDbEntity
  8
0
 62
7
100
AcDbLine
 10
9.000727944914175
 20
-0.2649180704542467
 30
0.0
 11
9.02929410481217
 21
-0.3059289454713596
 31
0.0
  0
LINE
  5
94
330
17
100
AcDbEntity
  8
0
 62
7
100
AcDbLine
 10
9.02929410481217
 20
-0.3059289454713596
 30
0.0
 11
9.06181180866931
 21
-0.34388307959198705
 31
0.0
  0
LINE
  5
95
330
17
100
AcDbEntity
  8
0
 62
7
100
AcDbLine
 10
9.06181180866931
 20
-0.34388307959198705
 30
0.0
 11
9.097956150337573
 21
-0.3784012476539641
 31
0.0
  0
LINE
  5
96
330
17
100
AcDbEntity
  8
0
 62
7
100
AcDbLine
 10
9.097956150337573
 20
-0.3784012476539641
 30
0.0
 11
9.137365987502745
 21
-0.4091385555322054
 31
0.0
  0
LINE
  5
97
330
17
100
AcDbEntity
  8
0
 62
7
100
AcDbLine
 10
9.137365987502745
 20
-0.4091385555322054
 30
0.0
 11
9.17964755009903
 21
-0.4357878862067941
 31
0.0
  0
LINE
  5
98
330
17
100
AcDbEntity
  8
0
 62
7
100
AcDbLine
 10
9.17964755009903
 20
-0.4357878862067941
 30
0.0
 11
9.22437837472939
 21
-0.45808296837472745
 31
0.0
  0
LINE
  5
99
330
17
100
AcDbEntity
  8
0
 62
7
100
AcDbLine
 10
9.22437837472939
 20
-0.45808296837472745
 30
0.0
 11
9.27111152578017
 21
-0.475801036944758
 31
0.0
  0
LINE
  5
9A
330
17
100
AcDbEntity
  8
0
 62
7
100
AcDbLine
 10
9.27111152578017
 20
-0.475801036944758
 30
0.0
 11
9.31938006105399
 21
-0.4887650588325485
 31
0.0
  0
LINE
  5
9B
330
17
100
AcDbEntity
  8
0
 62
7
100
AcDbLine
 10
9.31938006105399
 20
-0.4887650588325485
 30
0.0
 11
9.368701697301852
 21
-0.49684550181673226
 31
0.0
  0
LINE
  5
9C
330
17
100
AcDbEntity
  8
0
 62
7
100
AcDbLine
 10
9.368701697301852
 20
-0.49684550181673226
 30
0.0
 11
9.418583629037933
 21
-0.4999616287820504
 31
0.0
  0
LINE
  5
9D
330
17
100
AcDbEntity
  8
0
 62
7
100
AcDbLine
 10
9.418583629037933
 20
-0.4999616287820504
 30
0.0
 11
9.468527452489102
 21
-0.4980823044179203
 31
0.0
  0
LINE
  5
9E
330
17
100
AcDbEntity
  8
0
 62
7
100
AcDbLine
 10
9.468527452489102
 20
-0.4980823044179203
 30
0.0
 11
9.518034145480666
 21
-0.49122630631216624
 31
0.0
  0
LINE
  5
9F
330
17
100
AcDbEntity
  8
0
 62
7
100
AcDbLine
 10
9.518034145480666
 20
-0.49122630631216624
 30
0.0
 11
9.566609053500994
 21
-0.4794621373315692
 31
0.0
  0
LINE
  5
A0
330
17
100
AcDbEntity
  8
0
 62
7
100
AcDbLine
 10
9.566609053500994
 20
-0.4794621373315692
 30
0.0
 11
9.613766832125869
 21
-0.46290734116386606
 31
0.0
  0
LINE
  5
A1
330
17
100
AcDbEntity
  8
0
 62
7
100
AcDbLine
 10
9.613766832125869
 20
-0.46290734116386606
 30
0.0
 11
9.659036296419568
 21
-0.44172732786007657
 31
0.0
  0
LINE
  5
A2
330
17
100
AcDbEntity
  8
0
 62
7
100
AcDbLine
 10
9.659036296419568
 20
-0.44172732786007657
 30
0.0
 11
9.70196512885896
 21
-0.4161337211119504
 31
0.0
  0
LINE
  5
A3
330
17
100
AcDbEntity
  8
0
 62
7
100
AcDbLine
 10
9.70196512885896
 20
-0.4161337211119504
 30
0.0
 11
9.742124398740696
 21
-0.3863822437779936
 31
0.0
  0
LINE
  5
A4
330
17
100
AcDbEntity
  8
0
 62
7
100
AcDbLine
 10
9.742124398740696
 20
-0.3863822437779936
 30
0.0
 11
9.779112847915009
 21
-0.35277016278519596
 31
0.0
  0
LINE
  5
A5
330
17
100
AcDbEntity
  8
0
 62
7
100
AcDbLine
 10
9.779112847915009
 20
-0.35277016278519596
 30
0.0
 11
9.812560900024504
 21
-0.3156333189361604
 31
0.0
  0
LINE
  5
A6
330
17
100
AcDbEntity
  8
0
 62
7
100
AcDbLine
 10
9.812560900024504
 20
-0.3156333189361604
 30
0.0
 11
9.84213435318896
 21
-0.2753427712988188
 31
0.0
  0
LINE
  5
A7
330
17
100
AcDbEntity
  8
0
 62
7
100
AcDbLine
 10
9.84213435318896
 20
-0.2753427712988188
 30
0.0
 11
9.867537719240039
 21
-0.2323010897068783
 31
0.0
  0
LINE
  5
A8
330
17
100
AcDbEntity
  8
0
 62
7
100
AcDbLine
 10
9.867537719240039
 20
-0.2323010897068783
 30
0.0
 11
9.888517176141399
 21
-0.186938332415118
 31
0.0
  0
LINE
  5
A9
330
17
100
AcDbEntity
  8
0
 62
7
100
AcDbLine
 10
9.888517176141399
 20
-0.186938332415118
 30
0.0
 11
9.904863104094563
 21
-0.13970774909946293
 31
0.0
  0
LINE
  5
AA
330
17
100
AcDbEntity
  8
0
 62
7
100
AcDbLine
 10
9.904863104094563
 20
-0.13970774909946293
 30
0.0
 11
9.916412179990672
 21
-0.09108125213604751
 31
0.0
  0
LINE
  5
AB
330
17
100
AcDbEntity
  8
0
 62
7
100
AcDbLine
 10
9.916412179990672
 20
-0.09108125213604751
 30
0.0
 11
9.923049009280987
 21
-0.0415447014087482
 31
0.0
  0
LINE
  5
AC
330
17
100
AcDbEntity
  8
0
 62
7
100
AcDbLine
 10
9.923049009280987
 20
-0.0415447014087482
 30
0.0
 11
9.924999979344719
 21
-0.0016754592379416948
 31
0.0
  0
LINE
  5
AD
330
17
100
AcDbEntity
  8
0
 62
7
100
AcDbLine
 10
9.924999979344719
 20
-0.0016754592379416948
 30
0.0
 11
9.927258578659904
 21
0.020953060329721947
 31
0.0
  0
LINE
  5
AE
330
17
100
AcDbEntity
  8
0
 62
7
100
AcDbLine
 10
9.927258578659904
 20
0.020953060329721947
 30
0.0
 11
9.934212130033462
 21
0.0708306637289863
 31
0.0
  0
LINE
  5
AF
330
17
100
AcDbEntity
  8
0
 62
7
100
AcDbLine
 10
9.934212130033462
 20
0.0708306637289863
 30
0.0
 11
9.948783277286042
 21
0.1491828107788622
 31
0.0
  0
LINE
  5
B0
330
17
100
AcDbEntity
  8
0
 62
7
100
AcDbLine
 10
9.948783277286042
 20
0.1491828107788622
 30
0.0
 11
9.97379664706861
 21
0.2552554905358336
 31
0.0
  0
LINE
  5
B1
330
17
100
AcDbEntity
  8
0
 62
7
100
AcDbLine
 10
9.97379664706861
 20
0.2552554905358336
 30
0.0
 11
10.011962747244588
 21
0.38786437579196553
 31
0.0
  0
LINE
  5
B2
330
17
100
AcDbEntity
  8
0
 62
7
100
AcDbLine
 10
10.011962747244588
 20
0.38786437579196553
 30
0.0
 11
10.065851449854936
 21
0.5455260872199477
 31
0.0
  0
LINE
  5
B3
330
17
100
AcDbEntity
  8
0
 62
7
100
AcDbLine
 10
10.065851449854936
 20
0.5455260872199477
 30
0.0
 11
10.137866497911078
 21
0.726497369360177
 31
0.0
  0
LINE
  5
B4
330
17
100
AcDbEntity
  8
0
 62
7
100
AcDbLine
 10
10.137866497911078
 20
0.726497369360177
 30
0.0
 11
10.230221642328603
 21
0.9288000237777995
 31
0.0
  0
LINE
  5
B5
330
17
100
AcDbEntity
  8
0
 62
7
100
AcDbLine
 10
10.230221642328603
 20
0.9288000237777995
 30
0.0
 11
10.344918688295692
 21
1.150243734866041
 31
0.0
  0
LINE
  5
B6
330
17
100
AcDbEntity
  8
0
 62
7
100
AcDbLine
 10
10.344918688295692
 20
1.150243734866041
 30
0.0
 11
10.483727677989219
 21
1.3884495171914883
 31
0.0
  0
LINE
  5
B7
330
17
100
AcDbEntity
  8
0
 62
7
100
AcDbLine
 10
10.483727677989219
 20
1.3884495171914883
 30
0.0
 11
10.648169409247117
 21
1.640874452492326
 31
0.0
  0
LINE
  5
B8
330
17
100
AcDbEntity
  8
0
 62
7
100
AcDbLine
 10
10.648169409247117
 20
1.640874452492326
 30
0.0
 11
10.83950046500207
 21
1.90483779465996
 31
0.0
  0
LINE
  5
B9
330
17
100
AcDbEntity
  8
0
 62
7
100
AcDbLine
 10
10.83950046500207
 20
1.90483779465996
 30
0.0
 11
11.058700902730944
 21
2.1775483144745587
 31
0.0
  0
LINE
  5
BA
330
17
100
AcDbEntity
  8
0
 62
7
100
AcDbLine
 10
11.058700902730944
 20
2.1775483144745587
 30
0.0
 11
11.306464726406338
 21
2.45613267007355
 31
0.0
  0
LINE
  5
BB
330
17
100
AcDbEntity
  8
0
 62
7
100
AcDbLine
 10
11.306464726406338
 20
2.45613267007355
 30
0.0
 11
11.583193235532761
 21
2.737664548001422
 31
0.0
  0
LINE
  5
BC
330
17
100
AcDbEntity
  8
0
 62
7
100
AcDbLine
 10
11.583193235532761
 20
2.737664548001422
 30
0.0
 11
11.978751666390686
 21
2.737664548001422
 31
0.0
  0
LINE
  5
BD
330
17
100
AcDbEntity
  8
0
 62
7
100
AcDbLine
 10
11.978751666390686
 20
2.737664548001422
 30
0.0
 11
12.25548017551711
 21
2.45613267007355
 31
0.0
  0
LINE
  5
BE
330
17
100
AcDbEntity
  8
0
 62
7
100
AcDbLine
 10
12.25548017551711
 20
2.45613267007355
 30
0.0
 11
12.503243999192506
 21
2.1775483144745587
 31
0.0
  0
LINE
  5
BF
330
17
100
AcDbEntity
  8
0
 62
7
100
AcDbLine
 10
12.503243999192506
 20
2.1775483144745587
 30
0.0
 11
12.722444436921378
 21
1.90483779465996
 31
0.0
  0
LINE
  5
C0
330
17
100
AcDbEntity
  8
0
 62
7
100
AcDbLine
 10
12.722444436921378
 20
1.90483779465996
 30
0.0
 11
12.913775492676331
 21
1.640874452492326
 31
0.0
  0
LINE
  5
C1
330
17
100
AcDbEntity
  8
0
 62
7
100
AcDbLine
 10
12.913775492676331
 20
1.640874452492326
 30
0.0
 11
13.078217223934228
 21
1.3884495171914883
 31
0.0
  0
LINE
  5
C2
330
17
100
AcDbEntity
  8
0
 62
7
100
AcDbLine
 10
13.078217223934228
 20
1.3884495171914883
 30
0.0
 11
13.217026213627756
 21
1.150243734866041
 31
0.0
  0
LINE
  5
C3
330
17
100
AcDbEntity
  8
0
 62
7
100
AcDbLine
 10
13.217026213627756
 20
1.150243734866041
 30
0.0
 11
13.331723259594845
 21
0.9288000237777995
 31
0.0
  0
LINE
  5
C4
330
17
100
AcDbEntity
  8
0
 62
7
100
AcDbLine
 10
13.331723259594845
 20
0.9288000237777995
 30
0.0
 11
13.42407840401237
 21
0.726497369360177
 31
0.0
  0
LINE
  5
C5
330
17
100
AcDbEntity
  8
0
 62
7
100
AcDbLine
 10
13.42407840401237
 20
0.726497369360177
 30
0.0
 11
13.49609345206851
 21
0.5455260872199477
 31
0.0
  0
LINE
  5
C6
330
17
100
AcDbEntity
  8
0
 62
7
100
AcDbLine
 10
13.49609345206851
 20
0.5455260872199477
 30
0.0
 11
13.54998215467886
 21
0.38786437579196553
 31
0.0
  0
LINE
  5
C7
330
17
100
AcDbEntity
  8
0
 62
7
100
AcDbLine
 10
13.54998215467886
 20
0.38786437579196553
 30
0.0
 11
13.588148254854838
 21
0.2552554905358336
 31
0.0
  0
LINE
  5
C8
330
17
100
AcDbEntity
  8
0
 62
7
100
AcDbLine
 10
13.588148254854838
 20
0.2552554905358336
 30
0.0
 11
13.613161624637407
 21
0.1491828107788622
 31
0.0
  0
LINE
  5
C9
330
17
100
AcDbEntity
  8
0
 62
7
100
AcDbLine
 10
13.613161624637407
 20
0.1491828107788622
 30
0.0
 11
13.627732771889987
 21
0.0708306637289863
 31
0.0
  0
LINE
  5
CA
330
17
100
AcDbEntity
  8
0
 62
7
100
AcDbLine
 10
13.627732771889987
 20
0.0708306637289863
 30
0.0
 11
13.634686323263544
 21
0.020953060329721947
 31
0.0
  0
LINE
  5
CB
330
17
100
AcDbEntity
  8
0
 62
7
100
AcDbLine
 10
13.634686323263544
 20
0.020953060329721947
 30
0.0
 11
13.63694492257873
 21
-0.0016754592379416948
 31
0.0
  0
LINE
  5
CC
330
17
100
AcDbEntity
  8
0
 62
7
100
AcDbLine
 10
13.63694492257873
 20
-0.0016754592379416948
 30
0.0
 11
13.638019553256694
 21
-0.029187071713790043
 31
0.0
  0
LINE
  5
CD
330
17
100
AcDbEntity
  8
0
 62
7
100
AcDbLine
 10
13.638019553256694
 20
-0.029187071713790043
 30
0.0
 11
13.643427056199638
 21
-0.07887284707162433
 31
0.0
  0
LINE
  5
CE
330
17
100
AcDbEntity
  8
0
 62
7
100
AcDbLine
 10
13.643427056199638
 20
-0.07887284707162433
 30
0.0
 11
13.653767844864339
 21
-0.12777055101341583
 31
0.0
  0
LINE
  5
CF
330
17
100
AcDbEntity
  8
0
 62
7
100
AcDbLine
 10
13.653767844864339
 20
-0.12777055101341583
 30
0.0
 11
13.66893859750867
 21
-0.17539161384480992
 31
0.0
  0
LINE
  5
D0
330
17
100
AcDbEntity
  8
0
 62
7
100
AcDbLine
 10
13.66893859750867
 20
-0.17539161384480992
 30
0.0
 11
13.688787732986995
 21
-0.22126022164742623
 31
0.0
  0
LINE
  5
D1
330
17
100
AcDbEntity
  8
0
 62
7
100
AcDbLine
 10
13.688787732986995
 20
-0.22126022164742623
 30
0.0
 11
13.713116925298866
 21
-0.2649180704542467
 31
0.0
  0
LINE
  5
D2
330
17
100
AcDbEntity
  8
0
 62
7
100
AcDbLine
 10
13.713116925298866
 20
-0.2649180704542467
 30
0.0
 11
13.741683085196861
 21
-0.3059289454713596
 31
0.0
  0
LINE
  5
D3
330
17
100
AcDbEntity
  8
0
 62
7
100
AcDbLine
 10
13.741683085196861
 20
-0.3059289454713596
 30
0.0
 11
13.774200789054
 21
-0.34388307959198705
 31
0.0
  0
LINE
  5
D4
330
17
100
AcDbEntity
  8
0
 62
7
100
AcDbLine
 10
13.774200789054
 20
-0.34388307959198705
 30
0.0
 11
13.810345130722263
 21
-0.3784012476539641
 31
0.0
  0
LINE
  5
D5
330
17
100
AcDbEntity
  8
0
 62
7
100
AcDbLine
 10
13.810345130722263
 20
-0.3784012476539641
 30
0.0
 11
13.849754967887435
 21
-0.4091385555322054
 31
0.0
  0
LINE
  5
D6
330
17
100
AcDbEntity
  8
0
 62
7
100
AcDbLine
 10
13.849754967887435
 20
-0.4091385555322054
 30
0.0
 11
13.892036530483718
 21
-0.4357878862067941
 31
0.0
  0
LINE
  5
D7
330
17
100
AcDbEntity
  8
0
 62
7
100
AcDbLine
 10
13.892036530483718
 20
-0.4357878862067941
 30
0.0
 11
13.936767355114082
 21
-0.45808296837472745
 31
0.0
  0
LINE
  5
D8
330
17
100
AcDbEntity
  8
0
 62
7
100
AcDbLine
 10
13.936767355114082
 20
-0.45808296837472745
 30
0.0
 11
13.983500506164859
 21
-0.475801036944758
 31
0.0
  0
LINE
  5
D9
330
17
100
AcDbEntity
  8
0
 62
7
100
AcDbLine
 10
13.983500506164859
 20
-0.475801036944758
 30
0.0
 11
14.031769041438679
 21
-0.4887650588325485
 31
0.0
  0
LINE
  5
DA
330
17
100
AcDbEntity
  8
0
 62
7
100
AcDbLine
 10
14.031769041438679
 20
-0.4887650588325485
 30
0.0
 11
14.081090677686543
 21
-0.49684550181673226
 31
0.0
  0
LINE
  5
DB
330
17
100
AcDbEntity
  8
0
 62
7
100
AcDbLine
 10
14.081090677686543
 20
-0.49684550181673226
 30
0.0
 11
14.130972609422622
 21
-0.4999616287820504
 31
0.0
  0
LINE
  5
DC
330
17
100
AcDbEntity
  8
0
 62
7
100
AcDbLine
 10
14.130972609422622
 20
-0.4999616287820504
 30
0.0
 11
14.180916432873794
 21
-0.4980823044179203
 31
0.0
  0
LINE
  5
DD
330
17
100
AcDbEntity
  8
0
 62
7
100
AcDbLine
 10
14.180916432873794
 20
-0.4980823044179203
 30
0.0
 11
14.230423125865357
 21
-0.49122630631216624
 31
0.0
  0
LINE
  5
DE
330
17
100
AcDbEntity
  8
0
 62
7
100
AcDbLine
 10
14.230423125865357
 20
-0.49122630631216624
 30
0.0
 11
14.278998033885681
 21
-0.4794621373315692
 31
0.0
  0
LINE
  5
DF
330
17
100
AcDbEntity
  8
0
 62
7
100
AcDbLine
 10
14.278998033885681
 20
-0.4794621373315692
 30
0.0
 11
14.32615581251056
 21
-0.46290734116386606
 31
0.0
  0
LINE
  5
E0
330
17
100
AcDbEntity
  8
0
 62
7
100
AcDbLine
 10
14.32615581251056
 20
-0.46290734116386606
 30
0.0
 11
14.371425276804258
 21
-0.44172732786007657
 31
0.0
  0
LINE
  5
E1
330
17
100
AcDbEntity
  8
0
 62
7
100
AcDbLine
 10
14.371425276804258
 20
-0.44172732786007657
 30
0.0
 11
14.41435410924365
 21
-0.4161337211119504
 31
0.0
  0
LINE
  5
E2
330
17
100
AcDbEntity
  8
0
 62
7
100
AcDbLine
 10
14.41435410924365
 20
-0.4161337211119504
 30
0.0
 11
14.454513379125387
 21
-0.3863822437779936
 31
0.0
  0
LINE
  5
E3
330
17
100
AcDbEntity
  8
0
 62
7
100
AcDbLine
 10
14.454513379125387
 20
-0.3863822437779936
 30
0.0
 11
14.491501828299699
 21
-0.35277016278519596
 31
0.0
  0
LINE
  5
E4
330
17
100
AcDbEntity
  8
0
 62
7
100
AcDbLine
 10
14.491501828299699
 20
-0.35277016278519596
 30
0.0
 11
14.524949880409194
 21
-0.3156333189361604
 31
0.0
  0
LINE
  5
E5
330
17
100
AcDbEntity
  8
0
 62
7
100
AcDbLine
 10
14.524949880409194
 20
-0.3156333189361604
 30
0.0
 11
14.554523333573648
 21
-0.2753427712988188
 31
0.0
  0
LINE
  5
E6
330
17
100
AcDbEntity
  8
0
 62
7
100
AcDbLine
 10
14.554523333573648
 20
-0.2753427712988188
 30
0.0
 11
14.579926699624728
 21
-0.2323010897068783
 31
0.0
  0
LINE
  5
E7
330
17
100
AcDbEntity
  8
0
 62
7
100
AcDbLine
 10
14.579926699624728
 20
-0.2323010897068783
 30
0.0
 11
14.600906156526086
 21
-0.186938332415118
 31
0.0
  0
LINE
  5
E8
330
17
100
AcDbEntity
  8
0
 62
7
100
AcDbLine
 10
14.600906156526086
 20
-0.186938332415118
 30
0.0
 11
14.61725208447925
 21
-0.13970774909946293
 31
0.0
  0
LINE
  5
E9
330
17
100
AcDbEntity
  8
0
 62
7
100
AcDbLine
 10
14.61725208447925
 20
-0.13970774909946293
 30
0.0
 11
14.62880116037536
 21
-0.09108125213604751
 31
0.0
  0
LINE
  5
EA
330
17
100
AcDbEntity
  8
0
 62
7
100
AcDbLine
 10
14.62880116037536
 20
-0.09108125213604751
 30
0.0
 11
14.635437989665679
 21
-0.0415447014087482
 31
0.0
  0
LINE
  5
EB
330
17
100
AcDbEntity
  8
0
 62
7
100
AcDbLine
 10
14.635437989665679
 20
-0.0415447014087482
 30
0.0
 11
14.637388959729408
 21
-0.0016754592379416948
 31
0.0
  0
LINE
  5
EC
330
17
100
AcDbEntity
  8
0
 62
7
100
AcDbLine
 10
14.637388959729408
 20
-0.0016754592379416948
 30
0.0
 11
14.639647559044594
 21
0.020953060329721947
 31
0.0
  0
LINE
  5
ED
330
17
100
AcDbEntity
  8
0
 62
7
100
AcDbLine
 10
14.639647559044594
 20
0.020953060329721947
 30
0.0
 11
14.646601110418151
 21
0.0708306637289863
 31
0.0
  0
LINE
  5
EE
330
17
100
AcDbEntity
  8
0
 62
7
100
AcDbLine
 10
14.646601110418151
 20
0.0708306637289863
 30
0.0
 11
14.661172257670732
 21
0.1491828107788622
 31
0.0
  0
LINE
  5
EF
330
17
100
AcDbEntity
  8
0
 62
7
100
AcDbLine
 10
14.661172257670732
 20
0.1491828107788622
 30
0.0
 11
14.6861856274533
 21
0.2552554905358336
 31
0.0
  0
LINE
  5
F0
330
17
100
AcDbEntity
  8
0
 62
7
100
AcDbLine
 10
14.6861856274533
 20
0.2552554905358336
 30
0.0
 11
14.724351727629278
 21
0.38786437579196553
 31
0.0
  0
LINE
  5
F1
330
17
100
AcDbEntity
  8
0
 62
7
100
AcDbLine
 10
14.724351727629278
 20
0.38786437579196553
 30
0.0
 11
14.778240430239626
 21
0.5455260872199477
 31
0.0
  0
LINE
  5
F2
330
17
100
AcDbEntity
  8
0
 62
7
100
AcDbLine
 10
14.778240430239626
 20
0.5455260872199477
 30
0.0
 11
14.850255478295768
 21
0.726497369360177
 31
0.0
  0
LINE
  5
F3
330
17
100
AcDbEntity
  8
0
 62
7
100
AcDbLine
 10
14.850255478295768
 20
0.726497369360177
 30
0.0
 11
14.942610622713293
 21
0.9288000237777995
 31
0.0
  0
LINE
  5
F4
330
17
100
AcDbEntity
  8
0
 62
7
100
AcDbLine
 10
14.942610622713293
 20
0.9288000237777995
 30
0.0
 11
15.057307668680382
 21
1.150243734866041
 31
0.0
  0
LINE
  5
F5
330
17
100
AcDbEntity
  8
0
 62
7
100
AcDbLine
 10
15.057307668680382
 20
1.150243734866041
 30
0.0
 11
15.19611665837391
 21
1.3884495171914883
 31
0.0
  0
LINE
  5
F6
330
17
100
AcDbEntity
  8
0
 62
7
100
AcDbLine
 10
15.19611665837391
 20
1.3884495171914883
 30
0.0
 11
15.360558389631807
 21
1.640874452492326
 31
0.0
  0
LINE
  5
F7
330
17
100
AcDbEntity
  8
0
 62
7
100
AcDbLine
 10
15.360558389631807
 20
1.640874452492326
 30
0.0
 11
15.55188944538676
 21
1.90483779465996
 31
0.0
  0
LINE
  5
F8
330
17
100
AcDbEntity
  8
0
 62
7
100
AcDbLine
 10
15.55188944538676
 20
1.90483779465996
 30
0.0
 11
15.771089883115632
 21
2.1775483144745587
 31
0.0
  0
LINE
  5
F9
330
17
100
AcDbEntity
  8
0
 62
7
100
AcDbLine
 10
15.771089883115632
 20
2.1775483144745587
 30
0.0
 11
16.018853706791027
 21
2.45613267007355
 31
0.0
  0
LINE
  5
FA
330
17
100
AcDbEntity
  8
0
 62
7
100
AcDbLine
 10
16.018853706791027
 20
2.45613267007355
 30
0.0
 11
16.295582215917452
 21
2.737664548001422
 31
0.0
  0
LINE
  5
FB
330
17
100
AcDbEntity
  8
0
 62
7
100
AcDbLine
 10
16.295582215917452
 20
2.737664548001422
 30
0.0
 11
16.691140646775377
 21
2.737664548001422
 31
0.0
  0
LINE
  5
FC
330
17
100
AcDbEntity
  8
0
 62
7
100
AcDbLine
 10
16.691140646775377
 20
2.737664548001422
 30
0.0
 11
16.9678691559018
 21
2.45613267007355
 31
0.0
  0
LINE
  5
FD
330
17
100
AcDbEntity
  8
0
 62
7
100
AcDbLine
 10
16.9678691559018
 20
2.45613267007355
 30
0.0
 11
17.215632979577194
 21
2.1775483144745587
 31
0.0
  0
LINE
  5
FE
330
17
100
AcDbEntity
  8
0
 62
7
100
AcDbLine
 10
17.215632979577194
 20
2.1775483144745587
 30
0.0
 11
17.43483341730607
 21
1.90483779465996
 31
0.0
  0
LINE
  5
FF
330
17
100
AcDbEntity
  8
0
 62
7
100
AcDbLine
 10
17.43483341730607
 20
1.90483779465996
 30
0.0
 11
17.62616447306102
 21
1.640874452492326
 31
0.0
  0
LINE
  5
100
330
17
100
AcDbEntity
  8
0
 62
7
100
AcDbLine
 10
17.62616447306102
 20
1.640874452492326
 30
0.0
 11
17.79060620431892
 21
1.3884495171914883
 31
0.0
  0
LINE
  5
101
330
17
100
AcDbEntity
  8
0
 62
7
100
AcDbLine
 10
17.79060620431892
 20
1.3884495171914883
 30
0.0
 11
17.929415194012446
 21
1.150243734866041
 31
0.0
  0
LINE
  5
102
330
17
100
AcDbEntity
  8
0
 62
7
100
AcDbLine
 10
17.929415194012446
 20
1.150243734866041
 30
0.0
 11
18.044112239979533
 21
0.9288000237777995
 31
0.0
  0
LINE
  5
103
330
17
100
AcDbEntity
  8
0
 62
7
100
AcDbLine
 10
18.044112239979533
 20
0.9288000237777995
 30
0.0
 11
18.136467384397058
 21
0.726497369360177
 31
0.0
  0
LINE
  5
104
330
17
100
AcDbEntity
  8
0
 62
7
100
AcDbLine
 10
18.136467384397058
 20
0.726497369360177
 30
0.0
 11
18.208482432453202
 21
0.5455260872199477
 31
0.0
  0
LINE
  5
105
330
17
100
AcDbEntity
  8
0
 62
7
100
AcDbLine
 10
18.208482432453202
 20
0.5455260872199477
 30
0.0
 11
18.26237113506355
 21
0.38786437579196553
 31
0.0
  0
LINE
  5
106
330
17
100
AcDbEntity
  8
0
 62
7
100
AcDbLine
 10
18.26237113506355
 20
0.38786437579196553
 30
0.0
 11
18.300537235239528
 21
0.2552554905358336
 31
0.0
  0
LINE
  5
107
330
17
100
AcDbEntity
  8
0
 62
7
100
AcDbLine
 10
18.300537235239528
 20
0.2552554905358336
 30
0.0
 11
18.325550605022098
 21
0.1491828107788622
 31
0.0
  0
LINE
  5
108
330
17
100
AcDbEntity
  8
0
 62
7
100
AcDbLine
 10
18.325550605022098
 20
0.1491828107788622
 30
0.0
 11
18.340121752274676
 21
0.0708306637289863
 31
0.0
  0
LINE
  5
109
330
17
100
AcDbEntity
  8
0
 62
7
100
AcDbLine
 10
18.340121752274676
 20
0.0708306637289863
 30
0.0
 11
18.347075303648232
 21
0.020953060329721947
 31
0.0
  0
LINE
  5
10A
330
17
100
AcDbEntity
  8
0
 62
7
100
AcDbLine
 10
18.347075303648232
 20
0.020953060329721947
 30
0.0
 11
18.34933390296342
 21
-0.0016754592379416948
 31
0.0
  0
LINE
  5
10B
330
17
100
AcDbEntity
  8
0
 62
7
100
AcDbLine
 10
18.34933390296342
 20
-0.0016754592379416948
 30
0.0
 11
18.35040853364138
 21
-0.029187071713790043
 31
0.0
  0
LINE
  5
10C
330
17
100
AcDbEntity
  8
0
 62
7
100
AcDbLine
 10
18.35040853364138
 20
-0.029187071713790043
 30
0.0
 11
18.355816036584326
 21
-0.07887284707162433
 31
0.0
  0
LINE
  5
10D
330
17
100
AcDbEntity
  8
0
 62
7
100
AcDbLine
 10
18.355816036584326
 20
-0.07887284707162433
 30
0.0
 11
18.36615682524903
 21
-0.12777055101341583
 31
0.0
  0
LINE
  5
10E
330
17
100
AcDbEntity
  8
0
 62
7
100
AcDbLine
 10
18.36615682524903
 20
-0.12777055101341583
 30
0.0
 11
18.38132757789336
 21
-0.17539161384480992
 31
0.0
  0
LINE
  5
10F
330
17
100
AcDbEntity
  8
0
 62
7
100
AcDbLine
 10
18.38132757789336
 20
-0.17539161384480992
 30
0.0
 11
18.401176713371683
 21
-0.22126022164742623
 31
0.0
  0
LINE
  5
110
330
17
100
AcDbEntity
  8
0
 62
7
100
AcDbLine
 10
18.401176713371683
 20
-0.22126022164742623
 30
0.0
 11
18.425505905683554
 21
-0.2649180704542467
 31
0.0
  0
LINE
  5
111
330
17
100
AcDbEntity
  8
0
 62
7
100
AcDbLine
 10
18.425505905683554
 20
-0.2649180704542467
 30
0.0
 11
18.45407206558155
 21
-0.3059289454713596
 31
0.0
  0
LINE
  5
112
330
17
100
AcDbEntity
  8
0
 62
7
100
AcDbLine
 10
18.45407206558155
 20
-0.3059289454713596
 30
0.0
 11
18.486589769438687
 21
-0.34388307959198705
 31
0.0
  0
LINE
  5
113
330
17
100
AcDbEntity
  8
0
 62
7
100
AcDbLine
 10
18.486589769438687
 20
-0.34388307959198705
 30
0.0
 11
18.522734111106953
 21
-0.3784012476539641
 31
0.0
  0
LINE
  5
114
330
17
100
AcDbEntity
  8
0
 62
7
100
AcDbLine
 10
18.522734111106953
 20
-0.3784012476539641
 30
0.0
 11
18.562143948272123
 21
-0.4091385555322054
 31
0.0
  0
LINE
  5
115
330
17
100
AcDbEntity
  8
0
 62
7
100
AcDbLine
 10
18.562143948272123
 20
-0.4091385555322054
 30
0.0
 11
18.60442551086841
 21
-0.4357878862067941
 31
0.0
  0
LINE
  5
116
330
17
100
AcDbEntity
  8
0
 62
7
100
AcDbLine
 10
18.60442551086841
 20
-0.4357878862067941
 30
0.0
 11
18.64915633549877
 21
-0.45808296837472745
 31
0.0
  0
LINE
  5
117
330
17
100
AcDbEntity
  8
0
 62
7
100
AcDbLine
 10
18.64915633549877
 20
-0.45808296837472745
 30
0.0
 11
18.69588948654955
 21
-0.475801036944758
 31
0.0
  0
LINE
  5
118
330
17
100
AcDbEntity
  8
0
 62
7
100
AcDbLine
 10
18.69588948654955
 20
-0.475801036944758
 30
0.0
 11
18.744158021823367
 21
-0.4887650588325485
 31
0.0
  0
LINE
  5
119
330
17
100
AcDbEntity
  8
0
 62
7
100
AcDbLine
 10
18.744158021823367
 20
-0.4887650588325485
 30
0.0
 11
18.79347965807123
 21
-0.49684550181673226
 31
0.0
  0
LINE
  5
11A
330
17
100
AcDbEntity
  8
0
 62
7
100
AcDbLine
 10
18.79347965807123
 20
-0.49684550181673226
 30
0.0
 11
18.843361589807312
 21
-0.4999616287820504
 31
0.0
  0
LINE
  5
11B
330
17
100
AcDbEntity
  8
0
 62
7
100
AcDbLine
 10
18.843361589807312
 20
-0.4999616287820504
 30
0.0
 11
18.89330541325848
 21
-0.4980823044179203
 31
0.0
  0
LINE
  5
11C
330
17
100
AcDbEntity
  8
0
 62
7
100
AcDbLine
 10
18.89330541325848
 20
-0.4980823044179203
 30
0.0
 11
18.942812106250045
 21
-0.49122630631216624
 31
0.0
  0
LINE
  5
11D
330
17
100
AcDbEntity
  8
0
 62
7
100
AcDbLine
 10
18.942812106250045
 20
-0.49122630631216624
 30
0.0
 11
18.991387014270373
 21
-0.4794621373315692
 31
0.0
  0
LINE
  5
11E
330
17
100
AcDbEntity
  8
0
 62
7
100
AcDbLine
 10
18.991387014270373
 20
-0.4794621373315692
 30
0.0
 11
19.038544792895248
 21
-0.46290734116386606
 31
0.0
  0
LINE
  5
11F
330
17
100
AcDbEntity
  8
0
 62
7
100
AcDbLine
 10
19.038544792895248
 20
-0.46290734116386606
 30
0.0
 11
19.083814257188948
 21
-0.44172732786007657
 31
0.0
  0
LINE
  5
120
330
17
100
AcDbEntity
  8
0
 62
7
100
AcDbLine
 10
19.083814257188948
 20
-0.44172732786007657
 30
0.0
 11
19.12674308962834
 21
-0.4161337211119504
 31
0.0
  0
LINE
  5
121
330
17
100
AcDbEntity
  8
0
 62
7
100
AcDbLine
 10
19.12674308962834
 20
-0.4161337211119504
 30
0.0
 11
19.166902359510075
 21
-0.3863822437779936
 31
0.0
  0
LINE
  5
122
330
17
100
AcDbEntity
  8
0
 62
7
100
AcDbLine
 10
19.166902359510075
 20
-0.3863822437779936
 30
0.0
 11
19.20389080868439
 21
-0.35277016278519596
 31
0.0
  0
LINE
  5
123
330
17
100
AcDbEntity
  8
0
 62
7
100
AcDbLine
 10
19.20389080868439
 20
-0.35277016278519596
 30
0.0
 11
19.237338860793884
 21
-0.3156333189361604
 31
0.0
  0
LINE
  5
124
330
17
100
AcDbEntity
  8
0
 62
7
100
AcDbLine
 10
19.237338860793884
 20
-0.3156333189361604
 30
0.0
 11
19.26691231395834
 21
-0.2753427712988188
 31
0.0
  0
LINE
  5
125
330
17
100
AcDbEntity
  8
0
 62
7
100
AcDbLine
 10
19.26691231395834
 20
-0.2753427712988188
 30
0.0
 11
19.292315680009416
 21
-0.2323010897068783
 31
0.0
  0
LINE
  5
126
330
17
100
AcDbEntity
  8
0
 62
7
100
AcDbLine
 10
19.292315680009416
 20
-0.2323010897068783
 30
0.0
 11
19.313295136910778
 21
-0.186938332415118
 31
0.0
  0
LINE
  5
127
330
17
100
AcDbEntity
  8
0
 62
7
100
AcDbLine
 10
19.313295136910778
 20
-0.186938332415118
 30
0.0
 11
19.329641064863942
 21
-0.13970774909946293
 31
0.0
  0
LINE
  5
128
330
17
100
AcDbEntity
  8
0
 62
7
100
AcDbLine
 10
19.329641064863942
 20
-0.13970774909946293
 30
0.0
 11
19.34119014076005
 21
-0.09108125213604751
 31
0.0
  0
LINE
  5
129
330
17
100
AcDbEntity
  8
0
 62
7
100
AcDbLine
 10
19.34119014076005
 20
-0.09108125213604751
 30
0.0
 11
19.347826970050367
 21
-0.0415447014087482
 31
0.0
  0
LINE
  5
12A
330
17
100
AcDbEntity
  8
0
 62
7
100
AcDbLine
 10
19.347826970050367
 20
-0.0415447014087482
 30
0.0
 11
19.349777940114098
 21
-0.0016754592379416948
 31
0.0
  0
LINE
  5
12B
330
17
100
AcDbEntity
  8
0
 62
7
100
AcDbLine
 10
19.349777940114098
 20
-0.0016754592379416948
 30
0.0
 11
19.352036539429285
 21
0.020953060329721947
 31
0.0
  0
LINE
  5
12C
330
17
100
AcDbEntity
  8
0
 62
7
100
AcDbLine
 10
19.352036539429285
 20
0.020953060329721947
 30
0.0
 11
19.35899009080284
 21
0.0708306637289863
 31
0.0
  0
LINE
  5
12D
330
17
100
AcDbEntity
  8
0
 62
7
100
AcDbLine
 10
19.35899009080284
 20
0.0708306637289863
 30
0.0
 11
19.37356123805542
 21
0.1491828107788622
 31
0.0
  0
LINE
  5
12E
330
17
100
AcDbEntity
  8
0
 62
7
100
AcDbLine
 10
19.37356123805542
 20
0.1491828107788622
 30
0.0
 11
19.39857460783799
 21
0.2552554905358336
 31
0.0
  0
LINE
  5
12F
330
17
100
AcDbEntity
  8
0
 62
7
100
AcDbLine
 10
19.39857460783799
 20
0.2552554905358336
 30
0.0
 11
19.436740708013968
 21
0.38786437579196553
 31
0.0
  0
LINE
  5
130
330
17
100
AcDbEntity
  8
0
 62
7
100
AcDbLine
 10
19.436740708013968
 20
0.38786437579196553
 30
0.0
 11
19.490629410624315
 21
0.5455260872199477
 31
0.0
  0
LINE
  5
131
330
17
100
AcDbEntity
  8
0
 62
7
100
AcDbLine
 10
19.490629410624315
 20
0.5455260872199477
 30
0.0
 11
19.56264445868046
 21
0.726497369360177
 31
0.0
  0
LINE
  5
132
330
17
100
AcDbEntity
  8
0
 62
7
100
AcDbLine
 10
19.56264445868046
 20
0.726497369360177
 30
0.0
 11
19.65499960309798
 21
0.9288000237777995
 31
0.0
  0
LINE
  5
133
330
17
100
AcDbEntity
  8
0
 62
7
100
AcDbLine
 10
19.65499960309798
 20
0.9288000237777995
 30
0.0
 11
19.76969664906507
 21
1.150243734866041
 31
0.0
  0
LINE
  5
134
330
17
100
AcDbEntity
  8
0
 62
7
100
AcDbLine
 10
19.76969664906507
 20
1.150243734866041
 30
0.0
 11
19.908505638758598
 21
1.3884495171914883
 31
0.0
  0
LINE
  5
135
330
17
100
AcDbEntity
  8
0
 62
7
100
AcDbLine
 10
19.908505638758598
 20
1.3884495171914883
 30
0.0
 11
20.072947370016497
 21
1.640874452492326
 31
0.0
  0
LINE
  5
136
330
17
100
AcDbEntity
  8
0
 62
7
100
AcDbLine
 10
20.072947370016497
 20
1.640874452492326
 30
0.0
 11
20.264278425771447
 21
1.90483779465996
 31
0.0
  0
LINE
  5
137
330
17
100
AcDbEntity
  8
0
 62
7
100
AcDbLine
 10
20.264278425771447
 20
1.90483779465996
 30
0.0
 11
20.483478863500324
 21
2.1775483144745587
 31
0.0
  0
LINE
  5
138
330
17
100
AcDbEntity
  8
0
 62
7
100
AcDbLine
 10
20.483478863500324
 20
2.1775483144745587
 30
0.0
 11
20.73124268717572
 21
2.45613267007355
 31
0.0
  0
LINE
  5
139
330
17
100
AcDbEntity
  8
0
 62
7
100
AcDbLine
 10
20.73124268717572
 20
2.45613267007355
 30
0.0
 11
21.00797119630214
 21
2.737664548001422
 31
0.0
  0
LINE
  5
13A
330
17
100
AcDbEntity
  8
0
 62
7
100
AcDbLine
 10
21.00797119630214
 20
2.737664548001422
 30
0.0
 11
21.403529627160065
 21
2.737664548001422
 31
0.0
  0
LINE
  5
13B
330
17
100
AcDbEntity
  8
0
 62
7
100
AcDbLine
 10
21.403529627160065
 20
2.737664548001422
 30
0.0
 11
21.68025813628649
 21
2.45613267007355
 31
0.0
  0
LINE
  5
13C
330
17
100
AcDbEntity
  8
0
 62
7
100
AcDbLine
 10
21.68025813628649
 20
2.45613267007355
 30
0.0
 11
21.928021959961885
 21
2.1775483144745587
 31
0.0
  0
LINE
  5
13D
330
17
100
AcDbEntity
  8
0
 62
7
100
AcDbLine
 10
21.928021959961885
 20
2.1775483144745587
 30
0.0
 11
22.147222397690758
 21
1.90483779465996
 31
0.0
  0
LINE
  5
13E
330
17
100
AcDbEntity
  8
0
 62
7
100
AcDbLine
 10
22.147222397690758
 20
1.90483779465996
 30
0.0
 11
22.338553453445712
 21
1.640874452492326
 31
0.0
  0
LINE
  5
13F
330
17
100
AcDbEntity
  8
0
 62
7
100
AcDbLine
 10
22.338553453445712
 20
1.640874452492326
 30
0.0
 11
22.502995184703607
 21
1.3884495171914883
 31
0.0
  0
LINE
  5
140
330
17
100
AcDbEntity
  8
0
 62
7
100
AcDbLine
 10
22.502995184703607
 20
1.3884495171914883
 30
0.0
 11
22.641804174397137
 21
1.150243734866041
 31
0.0
  0
LINE
  5
141
330
17
100
AcDbEntity
  8
0
 62
7
100
AcDbLine
 10
22.641804174397137
 20
1.150243734866041
 30
0.0
 11
22.756501220364225
 21
0.9288000237777995
 31
0.0
  0
LINE
  5
142
330
17
100
AcDbEntity
  8
0
 62
7
100
AcDbLine
 10
22.756501220364225
 20
0.9288000237777995
 30
0.0
 11
22.84885636478175
 21
0.726497369360177
 31
0.0
  0
LINE
  5
143
330
17
100
AcDbEntity
  8
0
 62
7
100
AcDbLine
 10
22.84885636478175
 20
0.726497369360177
 30
0.0
 11
22.92087141283789
 21
0.5455260872199477
 31
0.0
  0
LINE
  5
144
330
17
100
AcDbEntity
  8
0
 62
7
100
AcDbLine
 10
22.92087141283789
 20
0.5455260872199477
 30
0.0
 11
22.97476011544824
 21
0.38786437579196553
 31
0.0
  0
LINE
  5
145
330
17
100
AcDbEntity
  8
0
 62
7
100
AcDbLine
 10
22.97476011544824
 20
0.38786437579196553
 30
0.0
 11
23.01292621562422
 21
0.2552554905358336
 31
0.0
  0
LINE
  5
146
330
17
100
AcDbEntity
  8
0
 62
7
100
AcDbLine
 10
23.01292621562422
 20
0.2552554905358336
 30
0.0
 11
23.037939585406786
 21
0.1491828107788622
 31
0.0
  0
LINE
  5
147
330
17
100
AcDbEntity
  8
0
 62
7
100
AcDbLine
 10
23.037939585406786
 20
0.1491828107788622
 30
0.0
 11
23.052510732659364
 21
0.0708306637289863
 31
0.0
  0
LINE
  5
148
330
17
100
AcDbEntity
  8
0
 62
7
100
AcDbLine
 10
23.052510732659364
 20
0.0708306637289863
 30
0.0
 11
23.059464284032924
 21
0.020953060329721947
 31
0.0
  0
LINE
  5
149
330
17
100
AcDbEntity
  8
0
 62
7
100
AcDbLine
 10
23.059464284032924
 20
0.020953060329721947
 30
0.0
 11
23.06172288334811
 21
-0.0016754592379416948
 31
0.0
  0
LINE
  5
14A
330
17
100
AcDbEntity
  8
0
 62
7
100
AcDbLine
 10
23.06172288334811
 20
-0.0016754592379416948
 30
0.0
 11
23.062797514026073
 21
-0.029187071713790043
 31
0.0
  0
LINE
  5
14B
330
17
100
AcDbEntity
  8
0
 62
7
100
AcDbLine
 10
23.062797514026073
 20
-0.029187071713790043
 30
0.0
 11
23.068205016969017
 21
-0.07887284707162433
 31
0.0
  0
LINE
  5
14C
330
17
100
AcDbEntity
  8
0
 62
7
100
AcDbLine
 10
23.068205016969017
 20
-0.07887284707162433
 30
0.0
 11
23.078545805633716
 21
-0.12777055101341583
 31
0.0
  0
LINE
  5
14D
330
17
100
AcDbEntity
  8
0
 62
7
100
AcDbLine
 10
23.078545805633716
 20
-0.12777055101341583
 30
0.0
 11
23.09371655827805
 21
-0.17539161384480992
 31
0.0
  0
LINE
  5
14E
330
17
100
AcDbEntity
  8
0
 62
7
100
AcDbLine
 10
23.09371655827805
 20
-0.17539161384480992
 30
0.0
 11
23.113565693756374
 21
-0.22126022164742623
 31
0.0
  0
LINE
  5
14F
330
17
100
AcDbEntity
  8
0
 62
7
100
AcDbLine
 10
23.113565693756374
 20
-0.22126022164742623
 30
0.0
 11
23.137894886068246
 21
-0.2649180704542467
 31
0.0
  0
LINE
  5
150
330
17
100
AcDbEntity
  8
0
 62
7
100
AcDbLine
 10
23.137894886068246
 20
-0.2649180704542467
 30
0.0
 11
23.16646104596624
 21
-0.3059289454713596
 31
0.0
  0
LINE
  5
151
330
17
100
AcDbEntity
  8
0
 62
7
100
AcDbLine
 10
23.16646104596624
 20
-0.3059289454713596
 30
0.0
 11
23.19897874982338
 21
-0.34388307959198705
 31
0.0
  0
LINE
  5
152
330
17
100
AcDbEntity
  8
0
 62
7
100
AcDbLine
 10
23.19897874982338
 20
-0.34388307959198705
 30
0.0
 11
23.235123091491644
 21
-0.3784012476539641
 31
0.0
  0
LINE
  5
153
330
17
100
AcDbEntity
  8
0
 62
7
100
AcDbLine
 10
23.235123091491644
 20
-0.3784012476539641
 30
0.0
 11
23.274532928656814
 21
-0.4091385555322054
 31
0.0
  0
LINE
  5
154
330
17
100
AcDbEntity
  8
0
 62
7
100
AcDbLine
 10
23.274532928656814
 20
-0.4091385555322054
 30
0.0
 11
23.316814491253098
 21
-0.4357878862067941
 31
0.0
  0
LINE
  5
155
330
17
100
AcDbEntity
  8
0
 62
7
100
AcDbLine
 10
23.316814491253098
 20
-0.4357878862067941
 30
0.0
 11
23.36154531588346
 21
-0.45808296837472745
 31
0.0
  0
LINE
  5
156
330
17
100
AcDbEntity
  8
0
 62
7
100
AcDbLine
 10
23.36154531588346
 20
-0.45808296837472745
 30
0.0
 11
23.408278466934238
 21
-0.475801036944758
 31
0.0
  0
LINE
  5
157
330
17
100
AcDbEntity
  8
0
 62
7
100
AcDbLine
 10
23.408278466934238
 20
-0.475801036944758
 30
0.0
 11
23.456547002208058
 21
-0.4887650588325485
 31
0.0
  0
LINE
  5
158
330
17
100
AcDbEntity
  8
0
 62
7
100
AcDbLine
 10
23.456547002208058
 20
-0.4887650588325485
 30
0.0
 11
23.505868638455922
 21
-0.49684550181673226
 31
0.0
  0
LINE
  5
159
330
17
100
AcDbEntity
  8
0
 62
7
100
AcDbLine
 10
23.505868638455922
 20
-0.49684550181673226
 30
0.0
 11
23.555750570192004
 21
-0.4999616287820504
 31
0.0
  0
LINE
  5
15A
330
17
100
AcDbEntity
  8
0
 62
7
100
AcDbLine
 10
23.555750570192004
 20
-0.4999616287820504
 30
0.0
 11
23.605694393643173
 21
-0.4980823044179203
 31
0.0
  0
LINE
  5
15B
330
17
100
AcDbEntity
  8
0
 62
7
100
AcDbLine
 10
23.605694393643173
 20
-0.4980823044179203
 30
0.0
 11
23.655201086634737
 21
-0.49122630631216624
 31
0.0
  0
LINE
  5
15C
330
17
100
AcDbEntity
  8
0
 62
7
100
AcDbLine
 10
23.655201086634737
 20
-0.49122630631216624
 30
0.0
 11
23.70377599465506
 21
-0.4794621373315692
 31
0.0
  0
LINE
  5
15D
330
17
100
AcDbEntity
  8
0
 62
7
100
AcDbLine
 10
23.70377599465506
 20
-0.4794621373315692
 30
0.0
 11
23.75093377327994
 21
-0.46290734116386606
 31
0.0
  0
LINE
  5
15E
330
17
100
AcDbEntity
  8
0
 62
7
100
AcDbLine
 10
23.75093377327994
 20
-0.46290734116386606
 30
0.0
 11
23.796203237573636
 21
-0.44172732786007657
 31
0.0
  0
LINE
  5
15F
330
17
100
AcDbEntity
  8
0
 62
7
100
AcDbLine
 10
23.796203237573636
 20
-0.44172732786007657
 30
0.0
 11
23.83913207001303
 21
-0.4161337211119504
 31
0.0
  0
LINE
  5
160
330
17
100
AcDbEntity
  8
0
 62
7
100
AcDbLine
 10
23.83913207001303
 20
-0.4161337211119504
 30
0.0
 11
23.879291339894767
 21
-0.3863822437779936
 31
0.0
  0
LINE
  5
161
330
17
100
AcDbEntity
  8
0
 62
7
100
AcDbLine
 10
23.879291339894767
 20
-0.3863822437779936
 30
0.0
 11
23.91627978906908
 21
-0.35277016278519596
 31
0.0
  0
LINE
  5
162
330
17
100
AcDbEntity
  8
0
 62
7
100
AcDbLine
 10
23.91627978906908
 20
-0.35277016278519596
 30
0.0
 11
23.94972784117857
 21
-0.3156333189361604
 31
0.0
  0
LINE
  5
163
330
17
100
AcDbEntity
  8
0
 62
7
100
AcDbLine
 10
23.94972784117857
 20
-0.3156333189361604
 30
0.0
 11
23.979301294343028
 21
-0.2753427712988188
 31
0.0
  0
LINE
  5
164
330
17
100
AcDbEntity
  8
0
 62
7
100
AcDbLine
 10
23.979301294343028
 20
-0.2753427712988188
 30
0.0
 11
24.004704660394108
 21
-0.2323010897068783
 31
0.0
  0
LINE
  5
165
330
17
100
AcDbEntity
  8
0
 62
7
100
AcDbLine
 10
24.004704660394108
 20
-0.2323010897068783
 30
0.0
 11
24.025684117295466
 21
-0.186938332415118
 31
0.0
  0
LINE
  5
166
330
17
100
AcDbEntity
  8
0
 62
7
100
AcDbLine
 10
24.025684117295466
 20
-0.186938332415118
 30
0.0
 11
24.04203004524863
 21
-0.13970774909946293
 31
0.0
  0
LINE
  5
167
330
17
100
AcDbEntity
  8
0
 62
7
100
AcDbLine
 10
24.04203004524863
 20
-0.13970774909946293
 30
0.0
 11
24.05357912114474
 21
-0.09108125213604751
 31
0.0
  0
LINE
  5
168
330
17
100
AcDbEntity
  8
0
 62
7
100
AcDbLine
 10
24.05357912114474
 20
-0.09108125213604751
 30
0.0
 11
24.060215950435058
 21
-0.0415447014087482
 31
0.0
  0
LINE
  5
169
330
17
100
AcDbEntity
  8
0
 62
7
100
AcDbLine
 10
24.060215950435058
 20
-0.0415447014087482
 30
0.0
 11
24.062166920498786
 21
-0.0016754592379416948
 31
0.0
  0
LINE
  5
16A
330
17
100
AcDbEntity
  8
0
 62
7
100
AcDbLine
 10
24.062166920498786
 20
-0.0016754592379416948
 30
0.0
 11
24.064425519813973
 21
0.020953060329721947
 31
0.0
  0
LINE
  5
16B
330
17
100
AcDbEntity
  8
0
 62
7
100
AcDbLine
 10
24.064425519813973
 20
0.020953060329721947
 30
0.0
 11
24.07137907118753
 21
0.0708306637289863
 31
0.0
  0
LINE
  5
16C
330
17
100
AcDbEntity
  8
0
 62
7
100
AcDbLine
 10
24.07137907118753
 20
0.0708306637289863
 30
0.0
 11
24.085950218440107
 21
0.1491828107788622
 31
0.0
  0
LINE
  5
16D
330
17
100
AcDbEntity
  8
0
 62
7
100
AcDbLine
 10
24.085950218440107
 20
0.1491828107788622
 30
0.0
 11
24.110963588222678
 21
0.2552554905358336
 31
0.0
  0
LINE
  5
16E
330
17
100
AcDbEntity
  8
0
 62
7
100
AcDbLine
 10
24.110963588222678
 20
0.2552554905358336
 30
0.0
 11
24.149129688398656
 21
0.38786437579196553
 31
0.0
  0
LINE
  5
16F
330
17
100
AcDbEntity
  8
0
 62
7
100
AcDbLine
 10
24.149129688398656
 20
0.38786437579196553
 30
0.0
 11
24.203018391009003
 21
0.5455260872199477
 31
0.0
  0
LINE
  5
170
330
17
100
AcDbEntity
  8
0
 62
7
100
AcDbLine
 10
24.203018391009003
 20
0.5455260872199477
 30
0.0
 11
24.275033439065147
 21
0.726497369360177
 31
0.0
  0
LINE
  5
171
330
17
100
AcDbEntity
  8
0
 62
7
100
AcDbLine
 10
24.275033439065147
 20
0.726497369360177
 30
0.0
 11
24.36738858348267
 21
0.9288000237777995
 31
0.0
  0
LINE
  5
172
330
17
100
AcDbEntity
  8
0
 62
7
100
AcDbLine
 10
24.36738858348267
 20
0.9288000237777995
 30
0.0
 11
24.48208562944976
 21
1.150243734866041
 31
0.0
  0
LINE
  5
173
330
17
100
AcDbEntity
  8
0
 62
7
100
AcDbLine
 10
24.48208562944976
 20
1.150243734866041
 30
0.0
 11
24.620894619143286
 21
1.3884495171914883
 31
0.0
  0
LINE
  5
174
330
17
100
AcDbEntity
  8
0
 62
7
100
AcDbLine
 10
24.620894619143286
 20
1.3884495171914883
 30
0.0
 11
24.785336350401185
 21
1.640874452492326
 31
0.0
  0
LINE
  5
175
330
17
100
AcDbEntity
  8
0
 62
7
100
AcDbLine
 10
24.785336350401185
 20
1.640874452492326
 30
0.0
 11
24.976667406156135
 21
1.90483779465996
 31
0.0
  0
LINE
  5
176
330
17
100
AcDbEntity
  8
0
 62
7
100
AcDbLine
 10
24.976667406156135
 20
1.90483779465996
 30
0.0
 11
25.19586784388501
 21
2.1775483144745587
 31
0.0
  0
LINE
  5
177
330
17
100
AcDbEntity
  8
0
 62
7
100
AcDbLine
 10
25.19586784388501
 20
2.1775483144745587
 30
0.0
 11
25.443631667560407
 21
2.45613267007355
 31
0.0
  0
LINE
  5
178
330
17
100
AcDbEntity
  8
0
 62
7
100
AcDbLine
 10
25.443631667560407
 20
2.45613267007355
 30
0.0
 11
25.720360176686828
 21
2.737664548001422
 31
0.0
  0
LINE
  5
179
330
17
100
AcDbEntity
  8
0
 62
7
100
AcDbLine
 10
25.720360176686828
 20
2.737664548001422
 30
0.0
 11
26.115918607544753
 21
2.737664548001422
 31
0.0
  0
LINE
  5
17A
330
17
100
AcDbEntity
  8
0
 62
7
100
AcDbLine
 10
26.115918607544753
 20
2.737664548001422
 30
0.0
 11
26.392647116671178
 21
2.45613267007355
 31
0.0
  0
LINE
  5
17B
330
17
100
AcDbEntity
  8
0
 62
7
100
AcDbLine
 10
26.392647116671178
 20
2.45613267007355
 30
0.0
 11
26.640410940346573
 21
2.1775483144745587
 31
0.0
  0
LINE
  5
17C
330
17
100
AcDbEntity
  8
0
 62
7
100
AcDbLine
 10
26.640410940346573
 20
2.1775483144745587
 30
0.0
 11
26.859611378075446
 21
1.90483779465996
 31
0.0
  0
LINE
  5
17D
330
17
100
AcDbEntity
  8
0
 62
7
100
AcDbLine
 10
26.859611378075446
 20
1.90483779465996
 30
0.0
 11
27.0509424338304
 21
1.640874452492326
 31
0.0
  0
LINE
  5
17E
330
17
100
AcDbEntity
  8
0
 62
7
100
AcDbLine
 10
27.0509424338304
 20
1.640874452492326
 30
0.0
 11
27.215384165088295
 21
1.3884495171914883
 31
0.0
  0
LINE
  5
17F
330
17
100
AcDbEntity
  8
0
 62
7
100
AcDbLine
 10
27.215384165088295
 20
1.3884495171914883
 30
0.0
 11
27.354193154781825
 21
1.150243734866041
 31
0.0
  0
LINE
  5
180
330
17
100
AcDbEntity
  8
0
 62
7
100
AcDbLine
 10
27.354193154781825
 20
1.150243734866041
 30
0.0
 11
27.468890200748913
 21
0.9288000237777995
 31
0.0
  0
LINE
  5
181
330
17
100
AcDbEntity
  8
0
 62
7
100
AcDbLine
 10
27.468890200748913
 20
0.9288000237777995
 30
0.0
 11
27.561245345166437
 21
0.726497369360177
 31
0.0
  0
LINE
  5
182
330
17
100
AcDbEntity
  8
0
 62
7
100
AcDbLine
 10
27.561245345166437
 20
0.726497369360177
 30
0.0
 11
27.633260393222578
 21
0.5455260872199477
 31
0.0
  0
LINE
  5
183
330
17
100
AcDbEntity
  8
0
 62
7
100
AcDbLine
 10
27.633260393222578
 20
0.5455260872199477
 30
0.0
 11
27.68714909583293
 21
0.38786437579196553
 31
0.0
  0
LINE
  5
184
330
17
100
AcDbEntity
  8
0
 62
7
100
AcDbLine
 10
27.68714909583293
 20
0.38786437579196553
 30
0.0
 11
27.725315196008907
 21
0.2552554905358336
 31
0.0
  0
LINE
  5
185
330
17
100
AcDbEntity
  8
0
 62
7
100
AcDbLine
 10
27.725315196008907
 20
0.2552554905358336
 30
0.0
 11
27.750328565791474
 21
0.1491828107788622
 31
0.0
  0
LINE
  5
186
330
17
100
AcDbEntity
  8
0
 62
7
100
AcDbLine
 10
27.750328565791474
 20
0.1491828107788622
 30
0.0
 11
27.764899713044052
 21
0.0708306637289863
 31
0.0
  0
LINE
  5
187
330
17
100
AcDbEntity
  8
0
 62
7
100
AcDbLine
 10
27.764899713044052
 20
0.0708306637289863
 30
0.0
 11
27.77185326441761
 21
0.020953060329721947
 31
0.0
  0
LINE
  5
188
330
17
100
AcDbEntity
  8
0
 62
7
100
AcDbLine
 10
27.77185326441761
 20
0.020953060329721947
 30
0.0
 11
27.7741118637328
 21
-0.0016754592379416948
 31
0.0
  0
LINE
  5
189
330
17
100
AcDbEntity
  8
0
 62
7
100
AcDbLine
 10
27.7741118637328
 20
-0.0016754592379416948
 30
0.0
 11
27.77518649441076
 21
-0.029187071713790043
 31
0.0
  0
LINE
  5
18A
330
17
100
AcDbEntity
  8
0
 62
7
100
AcDbLine
 10
27.77518649441076
 20
-0.029187071713790043
 30
0.0
 11
27.780593997353705
 21
-0.07887284707162433
 31
0.0
  0
LINE
  5
18B
330
17
100
AcDbEntity
  8
0
 62
7
100
AcDbLine
 10
27.780593997353705
 20
-0.07887284707162433
 30
0.0
 11
27.790934786018404
 21
-0.12777055101341583
 31
0.0
  0
LINE
  5
18C
330
17
100
AcDbEntity
  8
0
 62
7
100
AcDbLine
 10
27.790934786018404
 20
-0.12777055101341583
 30
0.0
 11
27.806105538662738
 21
-0.17539161384480992
 31
0.0
  0
LINE
  5
18D
330
17
100
AcDbEntity
  8
0
 62
7
100
AcDbLine
 10
27.806105538662738
 20
-0.17539161384480992
 30
0.0
 11
27.825954674141062
 21
-0.22126022164742623
 31
0.0
  0
LINE
  5
18E
330
17
100
AcDbEntity
  8
0
 62
7
100
AcDbLine
 10
27.825954674141062
 20
-0.22126022164742623
 30
0.0
 11
27.850283866452934
 21
-0.2649180704542467
 31
0.0
  0
LINE
  5
18F
330
17
100
AcDbEntity
  8
0
 62
7
100
AcDbLine
 10
27.850283866452934
 20
-0.2649180704542467
 30
0.0
 11
27.87885002635093
 21
-0.3059289454713596
 31
0.0
  0
LINE
  5
190
330
17
100
AcDbEntity
  8
0
 62
7
100
AcDbLine
 10
27.87885002635093
 20
-0.3059289454713596
 30
0.0
 11
27.911367730208067
 21
-0.34388307959198705
 31
0.0
  0
LINE
  5
191
330
17
100
AcDbEntity
  8
0
 62
7
100
AcDbLine
 10
27.911367730208067
 20
-0.34388307959198705
 30
0.0
 11
27.947512071876332
 21
-0.3784012476539641
 31
0.0
  0
LINE
  5
192
330
17
100
AcDbEntity
  8
0
 62
7
100
AcDbLine
 10
27.947512071876332
 20
-0.3784012476539641
 30
0.0
 11
27.986921909041502
 21
-0.4091385555322054
 31
0.0
  0
LINE
  5
193
330
17
100
AcDbEntity
  8
0
 62
7
100
AcDbLine
 10
27.986921909041502
 20
-0.4091385555322054
 30
0.0
 11
28.029203471637786
 21
-0.4357878862067941
 31
0.0
  0
LINE
  5
194
330
17
100
AcDbEntity
  8
0
 62
7
100
AcDbLine
 10
28.029203471637786
 20
-0.4357878862067941
 30
0.0
 11
28.07393429626815
 21
-0.45808296837472745
 31
0.0
  0
LINE
  5
195
330
17
100
AcDbEntity
  8
0
 62
7
100
AcDbLine
 10
28.07393429626815
 20
-0.45808296837472745
 30
0.0
 11
28.120667447318926
 21
-0.475801036944758
 31
0.0
  0
LINE
  5
196
330
17
100
AcDbEntity
  8
0
 62
7
100
AcDbLine
 10
28.120667447318926
 20
-0.475801036944758
 30
0.0
 11
28.168935982592746
 21
-0.4887650588325485
 31
0.0
  0
LINE
  5
197
330
17
100
AcDbEntity
  8
0
 62
7
100
AcDbLine
 10
28.168935982592746
 20
-0.4887650588325485
 30
0.0
 11
28.21825761884061
 21
-0.49684550181673226
 31
0.0
  0
LINE
  5
198
330
17
100
AcDbEntity
  8
0
 62
7
100
AcDbLine
 10
28.21825761884061
 20
-0.49684550181673226
 30
0.0
 11
28.26813955057669
 21
-0.4999616287820504
 31
0.0
  0
LINE
  5
199
330
17
100
AcDbEntity
  8
0
 62
7
100
AcDbLine
 10
28.26813955057669
 20
-0.4999616287820504
 30
0.0
 11
28.31808337402786
 21
-0.4980823044179203
 31
0.0
  0
LINE
  5
19A
330
17
100
AcDbEntity
  8
0
 62
7
100
AcDbLine
 10
28.31808337402786
 20
-0.4980823044179203
 30
0.0
 11
28.367590067019425
 21
-0.49122630631216624
 31
0.0
  0
LINE
  5
19B
330
17
100
AcDbEntity
  8
0
 62
7
100
AcDbLine
 10
28.367590067019425
 20
-0.49122630631216624
 30
0.0
 11
28.41616497503975
 21
-0.4794621373315692
 31
0.0
  0
LINE
  5
19C
330
17
100
AcDbEntity
  8
0
 62
7
100
AcDbLine
 10
28.41616497503975
 20
-0.4794621373315692
 30
0.0
 11
28.463322753664627
 21
-0.46290734116386606
 31
0.0
  0
LINE
  5
19D
330
17
100
AcDbEntity
  8
0
 62
7
100
AcDbLine
 10
28.463322753664627
 20
-0.46290734116386606
 30
0.0
 11
28.508592217958324
 21
-0.44172732786007657
 31
0.0
  0
LINE
  5
19E
330
17
100
AcDbEntity
  8
0
 62
7
100
AcDbLine
 10
28.508592217958324
 20
-0.44172732786007657
 30
0.0
 11
28.551521050397717
 21
-0.4161337211119504
 31
0.0
  0
LINE
  5
19F
330
17
100
AcDbEntity
  8
0
 62
7
100
AcDbLine
 10
28.551521050397717
 20
-0.4161337211119504
 30
0.0
 11
28.591680320279455
 21
-0.3863822437779936
 31
0.0
  0
LINE
  5
1A0
330
17
100
AcDbEntity
  8
0
 62
7
100
AcDbLine
 10
28.591680320279455
 20
-0.3863822437779936
 30
0.0
 11
28.628668769453768
 21
-0.35277016278519596
 31
0.0
  0
LINE
  5
1A1
330
17
100
AcDbEntity
  8
0
 62
7
100
AcDbLine
 10
28.628668769453768
 20
-0.35277016278519596
 30
0.0
 11
28.66211682156326
 21
-0.3156333189361604
 31
0.0
  0
LINE
  5
1A2
330
17
100
AcDbEntity
  8
0
 62
7
100
AcDbLine
 10
28.66211682156326
 20
-0.3156333189361604
 30
0.0
 11
28.691690274727716
 21
-0.2753427712988188
 31
0.0
  0
LINE
  5
1A3
330
17
100
AcDbEntity
  8
0
 62
7
100
AcDbLine
 10
28.691690274727716
 20
-0.2753427712988188
 30
0.0
 11
28.717093640778796
 21
-0.2323010897068783
 31
0.0
  0
LINE
  5
1A4
330
17
100
AcDbEntity
  8
0
 62
7
100
AcDbLine
 10
28.717093640778796
 20
-0.2323010897068783
 30
0.0
 11
28.738073097680154
 21
-0.186938332415118
 31
0.0
  0
LINE
  5
1A5
330
17
100
AcDbEntity
  8
0
 62
7
100
AcDbLine
 10
28.738073097680154
 20
-0.186938332415118
 30
0.0
 11
28.754419025633318
 21
-0.13970774909946293
 31
0.0
  0
LINE
  5
1A6
330
17
100
AcDbEntity
  8
0
 62
7
100
AcDbLine
 10
28.754419025633318
 20
-0.13970774909946293
 30
0.0
 11
28.765968101529428
 21
-0.09108125213604751
 31
0.0
  0
LINE
  5
1A7
330
17
100
AcDbEntity
  8
0
 62
7
100
AcDbLine
 10
28.765968101529428
 20
-0.09108125213604751
 30
0.0
 11
28.772604930819746
 21
-0.0415447014087482
 31
0.0
  0
LINE
  5
1A8
330
17
100
AcDbEntity
  8
0
 62
7
100
AcDbLine
 10
28.772604930819746
 20
-0.0415447014087482
 30
0.0
 11
28.774555900883477
 21
-0.0016754592379416948
 31
0.0
  0
LINE
  5
1A9
330
17
100
AcDbEntity
  8
0
 62
7
100
AcDbLine
 10
28.774555900883477
 20
-0.0016754592379416948
 30
0.0
 11
28.776814500198665
 21
0.020953060329721947
 31
0.0
  0
LINE
  5
1AA
330
17
100
AcDbEntity
  8
0
 62
7
100
AcDbLine
 10
28.776814500198665
 20
0.020953060329721947
 30
0.0
 11
28.78376805157222
 21
0.0708306637289863
 31
0.0
  0
LINE
  5
1AB
330
17
100
AcDbEntity
  8
0
 62
7
100
AcDbLine
 10
28.78376805157222
 20
0.0708306637289863
 30
0.0
 11
28.7983391988248
 21
0.1491828107788622
 31
0.0
  0
LINE
  5
1AC
330
17
100
AcDbEntity
  8
0
 62
7
100
AcDbLine
 10
28.7983391988248
 20
0.1491828107788622
 30
0.0
 11
28.82335256860737
 21
0.2552554905358336
 31
0.0
  0
LINE
  5
1AD
330
17
100
AcDbEntity
  8
0
 62
7
100
AcDbLine
 10
28.82335256860737
 20
0.2552554905358336
 30
0.0
 11
28.861518668783347
 21
0.38786437579196553
 31
0.0
  0
LINE
  5
1AE
330
17
100
AcDbEntity
  8
0
 62
7
100
AcDbLine
 10
28.861518668783347
 20
0.38786437579196553
 30
0.0
 11
28.915407371393695
 21
0.5455260872199477
 31
0.0
  0
LINE
  5
1AF
330
17
100
AcDbEntity
  8
0
 62
7
100
AcDbLine
 10
28.915407371393695
 20
0.5455260872199477
 30
0.0
 11
28.987422419449835
 21
0.726497369360177
 31
0.0
  0
LINE
  5
1B0
330
17
100
AcDbEntity
  8
0
 62
7
100
AcDbLine
 10
28.987422419449835
 20
0.726497369360177
 30
0.0
 11
29.07977756386736
 21
0.9288000237777995
 31
0.0
  0
LINE
  5
1B1
330
17
100
AcDbEntity
  8
0
 62
7
100
AcDbLine
 10
29.07977756386736
 20
0.9288000237777995
 30
0.0
 11
29.19447460983445
 21
1.150243734866041
 31
0.0
  0
LINE
  5
1B2
330
17
100
AcDbEntity
  8
0
 62
7
100
AcDbLine
 10
29.19447460983445
 20
1.150243734866041
 30
0.0
 11
29.333283599527977
 21
1.3884495171914883
 31
0.0
  0
LINE
  5
1B3
330
17
100
AcDbEntity
  8
0
 62
7
100
AcDbLine
 10
29.333283599527977
 20
1.3884495171914883
 30
0.0
 11
29.497725330785876
 21
1.640874452492326
 31
0.0
  0
LINE
  5
1B4
330
17
100
AcDbEntity
  8
0
 62
7
100
AcDbLine
 10
29.497725330785876
 20
1.640874452492326
 30
0.0
 11
29.689056386540827
 21
1.90483779465996
 31
0.0
  0
LINE
  5
1B5
330
17
100
AcDbEntity
  8
0
 62
7
100
AcDbLine
 10
29.689056386540827
 20
1.90483779465996
 30
0.0
 11
29.908256824269703
 21
2.1775483144745587
 31
0.0
  0
LINE
  5
1B6
330
17
100
AcDbEntity
  8
0
 62
7
100
AcDbLine
 10
29.908256824269703
 20
2.1775483144745587
 30
0.0
 11
30.1560206479451
 21
2.45613267007355
 31
0.0
  0
LINE
  5
1B7
330
17
100
AcDbEntity
  8
0
 62
7
100
AcDbLine
 10
30.1560206479451
 20
2.45613267007355
 30
0.0
 11
30.43274915707152
 21
2.737664548001422
 31
0.0
  0
LINE
  5
1B8
330
17
100
AcDbEntity
  8
0
 62
7
100
AcDbLine
 10
30.43274915707152
 20
2.737664548001422
 30
0.0
 11
30.828307587929444
 21
2.737664548001422
 31
0.0
  0
LINE
  5
1B9
330
17
100
AcDbEntity
  8
0
 62
7
100
AcDbLine
 10
30.828307587929444
 20
2.737664548001422
 30
0.0
 11
31.10503609705587
 21
2.45613267007355
 31
0.0
  0
LINE
  5
1BA
330
17
100
AcDbEntity
  8
0
 62
7
100
AcDbLine
 10
31.10503609705587
 20
2.45613267007355
 30
0.0
 11
31.352799920731265
 21
2.1775483144745587
 31
0.0
  0
LINE
  5
1BB
330
17
100
AcDbEntity
  8
0
 62
7
100
AcDbLine
 10
31.352799920731265
 20
2.1775483144745587
 30
0.0
 11
31.572000358460137
 21
1.90483779465996
 31
0.0
  0
LINE
  5
1BC
330
17
100
AcDbEntity
  8
0
 62
7
100
AcDbLine
 10
31.572000358460137
 20
1.90483779465996
 30
0.0
 11
31.763331414215088
 21
1.640874452492326
 31
0.0
  0
LINE
  5
1BD
330
17
100
AcDbEntity
  8
0
 62
7
100
AcDbLine
 10
31.763331414215088
 20
1.640874452492326
 30
0.0
 11
31.927773145472987
 21
1.3884495171914883
 31
0.0
  0
LINE
  5
1BE
330
17
100
AcDbEntity
  8
0
 62
7
100
AcDbLine
 10
31.927773145472987
 20
1.3884495171914883
 30
0.0
 11
32.06658213516651
 21
1.150243734866041
 31
0.0
  0
LINE
  5
1BF
330
17
100
AcDbEntity
  8
0
 62
7
100
AcDbLine
 10
32.06658213516651
 20
1.150243734866041
 30
0.0
 11
32.181279181133604
 21
0.9288000237777995
 31
0.0
  0
LINE
  5
1C0
330
17
100
AcDbEntity
  8
0
 62
7
100
AcDbLine
 10
32.181279181133604
 20
0.9288000237777995
 30
0.0
 11
32.27363432555113
 21
0.726497369360177
 31
0.0
  0
LINE
  5
1C1
330
17
100
AcDbEntity
  8
0
 62
7
100
AcDbLine
 10
32.27363432555113
 20
0.726497369360177
 30
0.0
 11
32.34564937360727
 21
0.5455260872199477
 31
0.0
  0
LINE
  5
1C2
330
17
100
AcDbEntity
  8
0
 62
7
100
AcDbLine
 10
32.34564937360727
 20
0.5455260872199477
 30
0.0
 11
32.39953807621762
 21
0.38786437579196553
 31
0.0
  0
LINE
  5
1C3
330
17
100
AcDbEntity
  8
0
 62
7
100
AcDbLine
 10
32.39953807621762
 20
0.38786437579196553
 30
0.0
 11
32.437704176393595
 21
0.2552554905358336
 31
0.0
  0
LINE
  5
1C4
330
17
100
AcDbEntity
  8
0
 62
7
100
AcDbLine
 10
32.437704176393595
 20
0.2552554905358336
 30
0.0
 11
32.462717546176165
 21
0.1491828107788622
 31
0.0
  0
LINE
  5
1C5
330
17
100
AcDbEntity
  8
0
 62
7
100
AcDbLine
 10
32.462717546176165
 20
0.1491828107788622
 30
0.0
 11
32.47728869342875
 21
0.0708306637289863
 31
0.0
  0
LINE
  5
1C6
330
17
100
AcDbEntity
  8
0
 62
7
100
AcDbLine
 10
32.47728869342875
 20
0.0708306637289863
 30
0.0
 11
32.4842422448023
 21
0.020953060329721947
 31
0.0
  0
LINE
  5
1C7
330
17
100
AcDbEntity
  8
0
 62
7
100
AcDbLine
 10
32.4842422448023
 20
0.020953060329721947
 30
0.0
 11
32.48650084411749
 21
-0.0016754592379416948
 31
0.0
  0
LINE
  5
1C8
330
17
100
AcDbEntity
  8
0
 62
7
100
AcDbLine
 10
32.48650084411749
 20
-0.0016754592379416948
 30
0.0
 11
32.48757547479545
 21
-0.029187071713790043
 31
0.0
  0
LINE
  5
1C9
330
17
100
AcDbEntity
  8
0
 62
7
100
AcDbLine
 10
32.48757547479545
 20
-0.029187071713790043
 30
0.0
 11
32.49298297773839
 21
-0.07887284707162433
 31
0.0
  0
LINE
  5
1CA
330
17
100
AcDbEntity
  8
0
 62
7
100
AcDbLine
 10
32.49298297773839
 20
-0.07887284707162433
 30
0.0
 11
32.5033237664031
 21
-0.12777055101341583
 31
0.0
  0
LINE
  5
1CB
330
17
100
AcDbEntity
  8
0
 62
7
100
AcDbLine
 10
32.5033237664031
 20
-0.12777055101341583
 30
0.0
 11
32.51849451904743
 21
-0.17539161384480992
 31
0.0
  0
LINE
  5
1CC
330
17
100
AcDbEntity
  8
0
 62
7
100
AcDbLine
 10
32.51849451904743
 20
-0.17539161384480992
 30
0.0
 11
32.538343654525754
 21
-0.22126022164742623
 31
0.0
  0
LINE
  5
1CD
330
17
100
AcDbEntity
  8
0
 62
7
100
AcDbLine
 10
32.538343654525754
 20
-0.22126022164742623
 30
0.0
 11
32.56267284683762
 21
-0.2649180704542467
 31
0.0
  0
LINE
  5
1CE
330
17
100
AcDbEntity
  8
0
 62
7
100
AcDbLine
 10
32.56267284683762
 20
-0.2649180704542467
 30
0.0
 11
32.59123900673562
 21
-0.3059289454713596
 31
0.0
  0
LINE
  5
1CF
330
17
100
AcDbEntity
  8
0
 62
7
100
AcDbLine
 10
32.59123900673562
 20
-0.3059289454713596
 30
0.0
 11
32.62375671059276
 21
-0.34388307959198705
 31
0.0
  0
LINE
  5
1D0
330
17
100
AcDbEntity
  8
0
 62
7
100
AcDbLine
 10
32.62375671059276
 20
-0.34388307959198705
 30
0.0
 11
32.65990105226102
 21
-0.3784012476539641
 31
0.0
  0
LINE
  5
1D1
330
17
100
AcDbEntity
  8
0
 62
7
100
AcDbLine
 10
32.65990105226102
 20
-0.3784012476539641
 30
0.0
 11
32.699310889426194
 21
-0.4091385555322054
 31
0.0
  0
LINE
  5
1D2
330
17
100
AcDbEntity
  8
0
 62
7
100
AcDbLine
 10
32.699310889426194
 20
-0.4091385555322054
 30
0.0
 11
32.74159245202248
 21
-0.4357878862067941
 31
0.0
  0
LINE
  5
1D3
330
17
100
AcDbEntity
  8
0
 62
7
100
AcDbLine
 10
32.74159245202248
 20
-0.4357878862067941
 30
0.0
 11
32.78632327665284
 21
-0.45808296837472745
 31
0.0
  0
LINE
  5
1D4
330
17
100
AcDbEntity
  8
0
 62
7
100
AcDbLine
 10
32.78632327665284
 20
-0.45808296837472745
 30
0.0
 11
32.83305642770362
 21
-0.475801036944758
 31
0.0
  0
LINE
  5
1D5
330
17
100
AcDbEntity
  8
0
 62
7
100
AcDbLine
 10
32.83305642770362
 20
-0.475801036944758
 30
0.0
 11
32.88132496297744
 21
-0.4887650588325485
 31
0.0
  0
LINE
  5
1D6
330
17
100
AcDbEntity
  8
0
 62
7
100
AcDbLine
 10
32.88132496297744
 20
-0.4887650588325485
 30
0.0
 11
32.9306465992253
 21
-0.49684550181673226
 31
0.0
  0
LINE
  5
1D7
330
17
100
AcDbEntity
  8
0
 62
7
100
AcDbLine
 10
32.9306465992253
 20
-0.49684550181673226
 30
0.0
 11
32.98052853096138
 21
-0.4999616287820504
 31
0.0
  0
LINE
  5
1D8
330
17
100
AcDbEntity
  8
0
 62
7
100
AcDbLine
 10
32.98052853096138
 20
-0.4999616287820504
 30
0.0
 11
33.03047235441255
 21
-0.4980823044179203
 31
0.0
  0
LINE
  5
1D9
330
17
100
AcDbEntity
  8
0
 62
7
100
AcDbLine
 10
33.03047235441255
 20
-0.4980823044179203
 30
0.0
 11
33.079979047404116
 21
-0.49122630631216624
 31
0.0
  0
LINE
  5
1DA
330
17
100
AcDbEntity
  8
0
 62
7
100
AcDbLine
 10
33.079979047404116
 20
-0.49122630631216624
 30
0.0
 11
33.128553955424444
 21
-0.4794621373315692
 31
0.0
  0
LINE
  5
1DB
330
17
100
AcDbEntity
  8
0
 62
7
100
AcDbLine
 10
33.128553955424444
 20
-0.4794621373315692
 30
0.0
 11
33.175711734049315
 21
-0.46290734116386606
 31
0.0
  0
LINE
  5
1DC
330
17
100
AcDbEntity
  8
0
 62
7
100
AcDbLine
 10
33.175711734049315
 20
-0.46290734116386606
 30
0.0
 11
33.22098119834302
 21
-0.44172732786007657
 31
0.0
  0
LINE
  5
1DD
330
17
100
AcDbEntity
  8
0
 62
7
100
AcDbLine
 10
33.22098119834302
 20
-0.44172732786007657
 30
0.0
 11
33.26391003078241
 21
-0.4161337211119504
 31
0.0
  0
LINE
  5
1DE
330
17
100
AcDbEntity
  8
0
 62
7
100
AcDbLine
 10
33.26391003078241
 20
-0.4161337211119504
 30
0.0
 11
33.304069300664146
 21
-0.3863822437779936
 31
0.0
  0
LINE
  5
1DF
330
17
100
AcDbEntity
  8
0
 62
7
100
AcDbLine
 10
33.304069300664146
 20
-0.3863822437779936
 30
0.0
 11
33.341057749838455
 21
-0.35277016278519596
 31
0.0
  0
LINE
  5
1E0
330
17
100
AcDbEntity
  8
0
 62
7
100
AcDbLine
 10
33.341057749838455
 20
-0.35277016278519596
 30
0.0
 11
33.374505801947954
 21
-0.3156333189361604
 31
0.0
  0
LINE
  5
1E1
330
17
100
AcDbEntity
  8
0
 62
7
100
AcDbLine
 10
33.374505801947954
 20
-0.3156333189361604
 30
0.0
 11
33.40407925511241
 21
-0.2753427712988188
 31
0.0
  0
LINE
  5
1E2
330
17
100
AcDbEntity
  8
0
 62
7
100
AcDbLine
 10
33.40407925511241
 20
-0.2753427712988188
 30
0.0
 11
33.42948262116349
 21
-0.2323010897068783
 31
0.0
  0
LINE
  5
1E3
330
17
100
AcDbEntity
  8
0
 62
7
100
AcDbLine
 10
33.42948262116349
 20
-0.2323010897068783
 30
0.0
 11
33.450462078064845
 21
-0.186938332415118
 31
0.0
  0
LINE
  5
1E4
330
17
100
AcDbEntity
  8
0
 62
7
100
AcDbLine
 10
33.450462078064845
 20
-0.186938332415118
 30
0.0
 11
33.46680800601801
 21
-0.13970774909946293
 31
0.0
  0
LINE
  5
1E5
330
17
100
AcDbEntity
  8
0
 62
7
100
AcDbLine
 10
33.46680800601801
 20
-0.13970774909946293
 30
0.0
 11
33.47835708191412
 21
-0.09108125213604751
 31
0.0
  0
LINE
  5
1E6
330
17
100
AcDbEntity
  8
0
 62
7
100
AcDbLine
 10
33.47835708191412
 20
-0.09108125213604751
 30
0.0
 11
33.484993911204434
 21
-0.0415447014087482
 31
0.0
  0
LINE
  5
1E7
330
17
100
AcDbEntity
  8
0
 62
7
100
AcDbLine
 10
33.484993911204434
 20
-0.0415447014087482
 30
0.0
 11
33.489203480583356
 21
0.020953060329721947
 31
0.0
  0
LINE
  5
1E8
330
17
100
AcDbEntity
  8
0
 62
7
100
AcDbLine
 10
33.489203480583356
 20
0.020953060329721947
 30
0.0
 11
33.49615703195691
 21
0.0708306637289863
 31
0.0
  0
LINE
  5
1E9
330
17
100
AcDbEntity
  8
0
 62
7
100
AcDbLine
 10
33.49615703195691
 20
0.0708306637289863
 30
0.0
 11
33.510728179209494
 21
0.1491828107788622
 31
0.0
  0
LINE
  5
1EA
330
17
100
AcDbEntity
  8
0
 62
7
100
AcDbLine
 10
33.510728179209494
 20
0.1491828107788622
 30
0.0
 11
33.53574154899206
 21
0.2552554905358336
 31
0.0
  0
LINE
  5
1EB
330
17
100
AcDbEntity
  8
0
 62
7
100
AcDbLine
 10
33.53574154899206
 20
0.2552554905358336
 30
0.0
 11
33.573907649168035
 21
0.38786437579196553
 31
0.0
  0
LINE
  5
1EC
330
17
100
AcDbEntity
  8
0
 62
7
100
AcDbLine
 10
33.573907649168035
 20
0.38786437579196553
 30
0.0
 11
33.627796351778386
 21
0.5455260872199477
 31
0.0
  0
LINE
  5
1ED
330
17
100
AcDbEntity
  8
0
 62
7
100
AcDbLine
 10
33.627796351778386
 20
0.5455260872199477
 30
0.0
 11
33.69981139983453
 21
0.726497369360177
 31
0.0
  0
LINE
  5
1EE
330
17
100
AcDbEntity
  8
0
 62
7
100
AcDbLine
 10
33.69981139983453
 20
0.726497369360177
 30
0.0
 11
33.792166544252055
 21
0.9288000237777995
 31
0.0
  0
LINE
  5
1EF
330
17
100
AcDbEntity
  8
0
 62
7
100
AcDbLine
 10
33.792166544252055
 20
0.9288000237777995
 30
0.0
 11
33.906863590219146
 21
1.150243734866041
 31
0.0
  0
LINE
  5
1F0
330
17
100
AcDbEntity
  8
0
 62
7
100
AcDbLine
 10
33.906863590219146
 20
1.150243734866041
 30
0.0
 11
34.04567257991267
 21
1.3884495171914883
 31
0.0
  0
LINE
  5
1F1
330
17
100
AcDbEntity
  8
0
 62
7
100
AcDbLine
 10
34.04567257991267
 20
1.3884495171914883
 30
0.0
 11
34.21011431117057
 21
1.640874452492326
 31
0.0
  0
LINE
  5
1F2
330
17
100
AcDbEntity
  8
0
 62
7
100
AcDbLine
 10
34.21011431117057
 20
1.640874452492326
 30
0.0
 11
34.40144536692552
 21
1.90483779465996
 31
0.0
  0
LINE
  5
1F3
330
17
100
AcDbEntity
  8
0
 62
7
100
AcDbLine
 10
34.40144536692552
 20
1.90483779465996
 30
0.0
 11
34.620645804654394
 21
2.1775483144745587
 31
0.0
  0
LINE
  5
1F4
330
17
100
AcDbEntity
  8
0
 62
7
100
AcDbLine
 10
34.620645804654394
 20
2.1775483144745587
 30
0.0
 11
34.868409628329786
 21
2.45613267007355
 31
0.0
  0
LINE
  5
1F5
330
17
100
AcDbEntity
  8
0
 62
7
100
AcDbLine
 10
34.868409628329786
 20
2.45613267007355
 30
0.0
 11
35.145138137456215
 21
2.737664548001422
 31
0.0
  0
LINE
  5
1F6
330
17
100
AcDbEntity
  8
0
 62
7
100
AcDbLine
 10
35.145138137456215
 20
2.737664548001422
 30
0.0
 11
35.54069656831414
 21
2.737664548001422
 31
0.0
  0
LINE
  5
1F7
330
17
100
AcDbEntity
  8
0
 62
7
100
AcDbLine
 10
35.54069656831414
 20
2.737664548001422
 30
0.0
 11
35.81742507744056
 21
2.45613267007355
 31
0.0
  0
LINE
  5
1F8
330
17
100
AcDbEntity
  8
0
 62
7
100
AcDbLine
 10
35.81742507744056
 20
2.45613267007355
 30
0.0
 11
36.06518890111595
 21
2.1775483144745587
 31
0.0
  0
LINE
  5
1F9
330
17
100
AcDbEntity
  8
0
 62
7
100
AcDbLine
 10
36.06518890111595
 20
2.1775483144745587
 30
0.0
 11
36.28438933884483
 21
1.90483779465996
 31
0.0
  0
LINE
  5
1FA
330
17
100
AcDbEntity
  8
0
 62
7
100
AcDbLine
 10
36.28438933884483
 20
1.90483779465996
 30
0.0
 11
36.47572039459978
 21
1.640874452492326
 31
0.0
  0
LINE
  5
1FB
330
17
100
AcDbEntity
  8
0
 62
7
100
AcDbLine
 10
36.47572039459978
 20
1.640874452492326
 30
0.0
 11
36.64016212585768
 21
1.3884495171914883
 31
0.0
  0
LINE
  5
1FC
330
17
100
AcDbEntity
  8
0
 62
7
100
AcDbLine
 10
36.64016212585768
 20
1.3884495171914883
 30
0.0
 11
36.77897111555121
 21
1.150243734866041
 31
0.0
  0
LINE
  5
1FD
330
17
100
AcDbEntity
  8
0
 62
7
100
AcDbLine
 10
36.77897111555121
 20
1.150243734866041
 30
0.0
 11
36.89366816151829
 21
0.9288000237777995
 31
0.0
  0
LINE
  5
1FE
330
17
100
AcDbEntity
  8
0
 62
7
100
AcDbLine
 10
36.89366816151829
 20
0.9288000237777995
 30
0.0
 11
36.98602330593582
 21
0.726497369360177
 31
0.0
  0
LINE
  5
1FF
330
17
100
AcDbEntity
  8
0
 62
7
100
AcDbLine
 10
36.98602330593582
 20
0.726497369360177
 30
0.0
 11
37.05803835399196
 21
0.5455260872199477
 31
0.0
  0
LINE
  5
200
330
17
100
AcDbEntity
  8
0
 62
7
100
AcDbLine
 10
37.05803835399196
 20
0.5455260872199477
 30
0.0
 11
37.11192705660231
 21
0.38786437579196553
 31
0.0
  0
LINE
  5
201
330
17
100
AcDbEntity
  8
0
 62
7
100
AcDbLine
 10
37.11192705660231
 20
0.38786437579196553
 30
0.0
 11
37.15009315677829
 21
0.2552554905358336
 31
0.0
  0
LINE
  5
202
330
17
100
AcDbEntity
  8
0
 62
7
100
AcDbLine
 10
37.15009315677829
 20
0.2552554905358336
 30
0.0
 11
37.17510652656086
 21
0.1491828107788622
 31
0.0
  0
LINE
  5
203
330
17
100
AcDbEntity
  8
0
 62
7
100
AcDbLine
 10
37.17510652656086
 20
0.1491828107788622
 30
0.0
 11
37.189677673813435
 21
0.0708306637289863
 31
0.0
  0
LINE
  5
204
330
17
100
AcDbEntity
  8
0
 62
7
100
AcDbLine
 10
37.189677673813435
 20
0.0708306637289863
 30
0.0
 11
37.19663122518699
 21
0.020953060329721947
 31
0.0
  0
LINE
  5
205
330
17
100
AcDbEntity
  8
0
 62
7
100
AcDbLine
 10
37.19663122518699
 20
0.020953060329721947
 30
0.0
 11
37.19663122518699
 21
-2.0
 31
0.0
  0
LINE
  5
206
330
17
100
AcDbEntity
  8
0
 62
7
100
AcDbLine
 10
37.19663122518699
 20
-2.0
 30
0.0
 11
0.5
 21
-2.0
 31
0.0
  0
LINE
  5
207
330
17
100
AcDbEntity
  8
0
 62
7
100
AcDbLine
 10
0.5
 20
-2.0
 30
0.0
 11
0.5
 21
0.0
 31
0.0
  0
TEXT
  5
208
330
17
100
AcDbEntity
  8
TEXTLAYER
100
AcDbText
 10
0.0
 20
0.2
 30
0.0
 40
2.5
  1
Test
 72
1
 11
0.0
 21
0.2
 31
0.0
100
AcDbText
  0
ENDSEC
  0
SECTION
  2
OBJECTS
  0
DICTIONARY
  5
A
330
0
100
AcDbDictionary
281
1
  3
ACAD_COLOR
350
B
  3
ACAD_GROUP
350
C
  3
ACAD_LAYOUT
350
D
  3
ACAD_MATERIAL
350
E
  3
ACAD_MLEADERSTYLE
350
F
  3
ACAD_MLINESTYLE
350
10
  3
ACAD_PLOTSETTINGS
350
11
  3
ACAD_PLOTSTYLENAME
350
12
  3
ACAD_SCALELIST
350
14
  3
ACAD_TABLESTYLE
350
15
  3
ACAD_VISUALSTYLE
350
16
  0
DICTIONARY
  5
B
330
A
100
AcDbDictionary
281
1
  0
DICTIONARY
  5
C
330
A
100
AcDbDictionary
281
1
  0
DICTIONARY
  5
D
330
A
100
AcDbDictionary
281
1
  3
Model
350
1A
  3
Layout1
350
1E
  0
DICTIONARY
  5
E
330
A
100
AcDbDictionary
281
1
  3
ByBlock
350
1F
  3
ByLayer
350
20
  3
Global
350
21
  0
DICTIONARY
  5
F
330
A
100
AcDbDictionary
281
1
  3
Standard
350
2C
  0
DICTIONARY
  5
10
330
A
100
AcDbDictionary
281
1
  3
Standard
350
22
  0
DICTIONARY
  5
11
330
A
100
AcDbDictionary
281
1
  0
ACDBDICTIONARYWDFLT
  5
12
330
A
100
AcDbDictionary
281
1
  3
Normal
350
13
100
AcDbDictionaryWithDefault
340
13
  0
ACDBPLACEHOLDER
  5
13
330
12
  0
DICTIONARY
  5
14
330
A
100
AcDbDictionary
281
1
  0
DICTIONARY
  5
15
330
A
100
AcDbDictionary
281
1
  0
DICTIONARY
  5
16
330
A
100
AcDbDictionary
281
1
  0
LAYOUT
  5
1A
330
D
100
AcDbPlotSettings
  1

  2
Adobe PDF
  4
A4
  6

 40
3.175
 41
3.175
 42
3.175
 43
3.175
 44
209.91
 45
297.03
 46
0.0
 47
0.0
 48
0.0
 49
0.0
140
0.0
141
0.0
142
1.0
143
1.0
 70
688
 72
0
 73
1
 74
5
  7

 75
16
 76
0
 77
2
 78
300
147
1.0
148
0.0
149
0.0
100
AcDbLayout
  1
Model
 70
1
 71
0
 10
-3.175
 20
-3.175
 11
293.857
 21
206.735
 12
0.0
 22
0.0
 32
0.0
 14
29.068
 24
20.356
 34
0.0
 15
261.614
 25
183.204
 35
0.0
146
0.0
 13
0.0
 23
0.0
 33
0.0
 16
1.0
 26
0.0
 36
0.0
 17
0.0
 27
1.0
 37
0.0
 76
1
330
17
  0
LAYOUT
  5
1E
330
D
100
AcDbPlotSettings
  1

  2
Adobe PDF
  4
A4
  6

 40
3.175
 41
3.175
 42
3.175
 43
3.175
 44
209.91
 45
297.03
 46
0.0
 47
0.0
 48
0.0
 49
0.0
140
0.0
141
0.0
142
1.0
143
1.0
 70
688
 72
0
 73
1
 74
5
  7

 75
16
 76
0
 77
2
 78
300
147
1.0
148
0.0
149
0.0
100
AcDbLayout
  1
Layout1
 70
1
 71
1
 10
-3.175
 20
-3.175
 11
293.857
 21
206.735
 12
0.0
 22
0.0
 32
0.0
 14
29.068
 24
20.356
 34
0.0
 15
261.614
 25
183.204
 35
0.0
146
0.0
 13
0.0
 23
0.0
 33
0.0
 16
1.0
 26
0.0
 36
0.0
 17
0.0
 27
1.0
 37
0.0
 76
1
330
1B
  0
MATERIAL
  5
1F
102
{ACAD_REACTORS
330
E
102
}
330
E
100
AcDbMaterial
  1
ByBlock
  2

 70
0
 40
1.0
 71
1
 41
1.0
 91
-1023410177
 42
1.0
 72
1
  3

 73
1
 74
1
 75
1
 44
0.5
 73
0
 45
1.0
 46
1.0
 77
1
  4

 78
1
 79
1
170
1
 48
1.0
171
1
  6

172
1
173
1
174
1
140
1.0
141
1.0
175
1
  7

176
1
177
1
178
1
143
1.0
179
1
  8

270
1
271
1
272
1
145
1.0
146
1.0
273
1
  9

274
1
275
1
276
1
 42
1.0
 72
1
  3

 73
1
 74
1
 75
1
 94
63
  0
MATERIAL
  5
20
102
{ACAD_REACTORS
330
E
102
}
330
E
100
AcDbMaterial
  1
ByLayer
  2

 70
0
 40
1.0
 71
1
 41
1.0
 91
-1023410177
 42
1.0
 72
1
  3

 73
1
 74
1
 75
1
 44
0.5
 73
0
 45
1.0
 46
1.0
 77
1
  4

 78
1
 79
1
170
1
 48
1.0
171
1
  6

172
1
173
1
174
1
140
1.0
141
1.0
175
1
  7

176
1
177
1
178
1
143
1.0
179
1
  8

270
1
271
1
272
1
145
1.0
146
1.0
273
1
  9

274
1
275
1
276
1
 42
1.0
 72
1
  3

 73
1
 74
1
 75
1
 94
63
  0
MATERIAL
  5
21
102
{ACAD_REACTORS
330
E
102
}
330
E
100
AcDbMaterial
  1
Global
  2

 70
0
 40
1.0
 71
1
 41
1.0
 91
-1023410177
 42
1.0
 72
1
  3

 73
1
 74
1
 75
1
 44
0.5
 73
0
 45
1.0
 46
1.0
 77
1
  4

 78
1
 79
1
170
1
 48
1.0
171
1
  6

172
1
173
1
174
1
140
1.0
141
1.0
175
1
  7

176
1
177
1
178
1
143
1.0
179
1
  8

270
1
271
1
272
1
145
1.0
146
1.0
273
1
  9

274
1
275
1
276
1
 42
1.0
 72
1
  3

 73
1
 74
1
 75
1
 94
63
  0
MLINESTYLE
  5
22
102
{ACAD_REACTORS
330
10
102
}
330
10
100
AcDbMlineStyle
  2
Standard
 70
0
  3

 62
256
 51
90.0
 52
90.0
 71
2
 49
0.5
 62
256
  6
BYLAYER
 49
-0.5
 62
256
  6
BYLAYER
  0
MLEADERSTYLE
  5
2C
102
{ACAD_REACTORS
330
F
102
}
330
F
100
AcDbMLeaderStyle
179
2
170
2
171
1
172
0
 90
2
 40
0.0
 41
0.0
173
1
 91
-1056964608
 92
-2
290
1
 42
2.0
291
1
 43
8.0
  3
Standard
 44
4.0
300

342
29
174
1
175
1
176
0
178
1
 93
-1056964608
 45
4.0
292
0
297
0
 46
4.0
 94
-1056964608
 47
1.0
 49
0.0
140
1.0
294
1
141
0.0
177
0
142
1.0
295
0
296
0
143
3.75
271
0
272
9
272
9
  0
ENDSEC
  0
EOF
