  0
SECTION
  2
HEADER
  9
$ACADVER
  1
AC1024
  9
$ACADMAINTVER
 70
6
  9
$DWGCODEPAGE
  3
ANSI_1252
  9
$LASTSAVEDBY
  1
ezdxf
  9
$INSBASE
 10
0.0
 20
0.0
 30
0.0
  9
$EXTMIN
 10
-100
 20
-100
 30
-100
  9
$EXTMAX
 10
100
 20
100
 30
100
  9
$LIMMIN
 10
0.0
 20
0.0
  9
$LIMMAX
 10
420.0
 20
297.0
  9
$ORTHOMODE
 70
0
  9
$REGENMODE
 70
1
  9
$FILLMODE
 70
1
  9
$QTEXTMODE
 70
0
  9
$MIRRTEXT
 70
1
  9
$LTSCALE
 40
1.0
  9
$ATTMODE
 70
1
  9
$TEXTSIZE
 40
2.5
  9
$TRACEWID
 40
1.0
  9
$TEXTSTYLE
  7
Standard
  9
$CLAYER
  8
0
  9
$CELTYPE
  6
ByLayer
  9
$CECOLOR
 62
256
  9
$CELTSCALE
 40
1.0
  9
$DISPSILH
 70
0
  9
$DIMSCALE
 40
1.0
  9
$DIMASZ
 40
2.5
  9
$DIMEXO
 40
0.625
  9
$DIMDLI
 40
3.75
  9
$DIMRND
 40
0.0
  9
$DIMDLE
 40
0.0
  9
$DIMEXE
 40
1.25
  9
$DIMTP
 40
0.0
  9
$DIMTM
 40
0.0
  9
$DIMTXT
 40
2.5
  9
$DIMCEN
 40
2.5
  9
$DIMTSZ
 40
0.0
  9
$DIMTOL
 70
0
  9
$DIMLIM
 70
0
  9
$DIMTIH
 70
0
  9
$DIMTOH
 70
0
  9
$DIMSE1
 70
0
  9
$DIMSE2
 70
0
  9
$DIMTAD
 70
1
  9
$DIMZIN
 70
8
  9
$DIMBLK
  1

  9
$DIMASO
 70
1
  9
$DIMSHO
 70
1
  9
$DIMPOST
  1

  9
$DIMAPOST
  1

  9
$DIMALT
 70
0
  9
$DIMALTD
 70
3
  9
$DIMALTF
 40
0.03937007874
  9
$DIMLFAC
 40
1.0
  9
$DIMTOFL
 70
1
  9
$DIMTVP
 40
0.0
  9
$DIMTIX
 70
0
  9
$DIMSOXD
 70
0
  9
$DIMSAH
 70
0
  9
$DIMBLK1
  1

  9
$DIMBLK2
  1

  9
$DIMSTYLE
  2
ISO-25
  9
$DIMCLRD
 70
0
  9
$DIMCLRE
 70
0
  9
$DIMCLRT
 70
0
  9
$DIMTFAC
 40
1.0
  9
$DIMGAP
 40
0.625
  9
$DIMJUST
 70
0
  9
$DIMSD1
 70
0
  9
$DIMSD2
 70
0
  9
$DIMTOLJ
 70
0
  9
$DIMTZIN
 70
8
  9
$DIMALTZ
 70
0
  9
$DIMALTTZ
 70
0
  9
$DIMUPT
 70
0
  9
$DIMDEC
 70
2
  9
$DIMTDEC
 70
2
  9
$DIMALTU
 70
2
  9
$DIMALTTD
 70
3
  9
$DIMTXSTY
  7
Standard
  9
$DIMAUNIT
 70
0
  9
$DIMADEC
 70
0
  9
$DIMALTRND
 40
0.0
  9
$DIMAZIN
 70
0
  9
$DIMDSEP
 70
44
  9
$DIMATFIT
 70
3
  9
$DIMFRAC
 70
0
  9
$DIMLDRBLK
  1

  9
$DIMLUNIT
 70
2
  9
$DIMLWD
 70
-2
  9
$DIMLWE
 70
-2
  9
$DIMTMOVE
 70
0
  9
$DIMFXL
 40
1.0
  9
$DIMFXLON
 70
0
  9
$DIMJOGANG
 40
0.785398163397
  9
$DIMTFILL
 70
0
  9
$DIMTFILLCLR
 70
0
  9
$DIMARCSYM
 70
0
  9
$DIMLTYPE
  6

  9
$DIMLTEX1
  6

  9
$DIMLTEX2
  6

  9
$DIMTXTDIRECTION
 70
0
  9
$LUNITS
 70
2
  9
$LUPREC
 70
4
  9
$SKETCHINC
 40
1.0
  9
$FILLETRAD
 40
10.0
  9
$AUNITS
 70
0
  9
$AUPREC
 70
2
  9
$MENU
  1
.
  9
$ELEVATION
 40
0.0
  9
$PELEVATION
 40
0.0
  9
$THICKNESS
 40
0.0
  9
$LIMCHECK
 70
0
  9
$CHAMFERA
 40
0.0
  9
$CHAMFERB
 40
0.0
  9
$CHAMFERC
 40
0.0
  9
$CHAMFERD
 40
0.0
  9
$SKPOLY
 70
0
  9
$TDCREATE
 40
2458908.3335648146
  9
$TDUCREATE
 40
2458532.153996898
  9
$TDUPDATE
 40
2458908.3335648146
  9
$TDUUPDATE
 40
2458532.1544311
  9
$TDINDWG
 40
0.0
  9
$TDUSRTIMER
 40
0.0
  9
$USRTIMER
 70
1
  9
$ANGBASE
 50
0.0
  9
$ANGDIR
 70
0
  9
$PDMODE
 70
0
  9
$PDSIZE
 40
0.0
  9
$PLINEWID
 40
0.0
  9
$SPLFRAME
 70
0
  9
$SPLINETYPE
 70
6
  9
$SPLINESEGS
 70
8
  9
$HANDSEED
  5
2E
  9
$SURFTAB1
 70
6
  9
$SURFTAB2
 70
6
  9
$SURFTYPE
 70
6
  9
$SURFU
 70
6
  9
$SURFV
 70
6
  9
$UCSBASE
  2

  9
$UCSNAME
  2

  9
$UCSORG
 10
0.0
 20
0.0
 30
0.0
  9
$UCSXDIR
 10
1.0
 20
0.0
 30
0.0
  9
$UCSYDIR
 10
0.0
 20
1.0
 30
0.0
  9
$UCSORTHOREF
  2

  9
$UCSORTHOVIEW
 70
0
  9
$UCSORGTOP
 10
0.0
 20
0.0
 30
0.0
  9
$UCSORGBOTTOM
 10
0.0
 20
0.0
 30
0.0
  9
$UCSORGLEFT
 10
0.0
 20
0.0
 30
0.0
  9
$UCSORGRIGHT
 10
0.0
 20
0.0
 30
0.0
  9
$UCSORGFRONT
 10
0.0
 20
0.0
 30
0.0
  9
$UCSORGBACK
 10
0.0
 20
0.0
 30
0.0
  9
$PUCSBASE
  2

  9
$PUCSNAME
  2

  9
$PUCSORG
 10
0.0
 20
0.0
 30
0.0
  9
$PUCSXDIR
 10
1.0
 20
0.0
 30
0.0
  9
$PUCSYDIR
 10
0.0
 20
1.0
 30
0.0
  9
$PUCSORTHOREF
  2

  9
$PUCSORTHOVIEW
 70
0
  9
$PUCSORGTOP
 10
0.0
 20
0.0
 30
0.0
  9
$PUCSORGBOTTOM
 10
0.0
 20
0.0
 30
0.0
  9
$PUCSORGLEFT
 10
0.0
 20
0.0
 30
0.0
  9
$PUCSORGRIGHT
 10
0.0
 20
0.0
 30
0.0
  9
$PUCSORGFRONT
 10
0.0
 20
0.0
 30
0.0
  9
$PUCSORGBACK
 10
0.0
 20
0.0
 30
0.0
  9
$USERI1
 70
0
  9
$USERI2
 70
0
  9
$USERI3
 70
0
  9
$USERI4
 70
0
  9
$USERI5
 70
0
  9
$USERR1
 40
0.0
  9
$USERR2
 40
0.0
  9
$USERR3
 40
0.0
  9
$USERR4
 40
0.0
  9
$USERR5
 40
0.0
  9
$WORLDVIEW
 70
1
  9
$SHADEDGE
 70
3
  9
$SHADEDIF
 70
70
  9
$TILEMODE
 70
1
  9
$MAXACTVP
 70
64
  9
$PINSBASE
 10
0.0
 20
0.0
 30
0.0
  9
$PLIMCHECK
 70
0
  9
$PEXTMIN
 10
1e+20
 20
1e+20
 30
1e+20
  9
$PEXTMAX
 10
-1e+20
 20
-1e+20
 30
-1e+20
  9
$PLIMMIN
 10
0.0
 20
0.0
  9
$PLIMMAX
 10
420.0
 20
297.0
  9
$UNITMODE
 70
0
  9
$VISRETAIN
 70
1
  9
$PLINEGEN
 70
0
  9
$PSLTSCALE
 70
1
  9
$TREEDEPTH
 70
3020
  9
$CMLSTYLE
  2
Standard
  9
$CMLJUST
 70
0
  9
$CMLSCALE
 40
20.0
  9
$PROXYGRAPHICS
 70
1
  9
$MEASUREMENT
 70
1
  9
$CELWEIGHT
370
-1
  9
$ENDCAPS
280
0
  9
$JOINSTYLE
280
0
  9
$LWDISPLAY
290
0
  9
$INSUNITS
 70
6
  9
$HYPERLINKBASE
  1

  9
$STYLESHEET
  1

  9
$XEDIT
290
1
  9
$CEPSNTYPE
380
0
  9
$PSTYLEMODE
290
1
  9
$FINGERPRINTGUID
  2
A8186482-5A32-11EA-AB9E-C0B5D7C13410
  9
$VERSIONGUID
  2
A819EB28-5A32-11EA-BFDA-C0B5D7C13410
  9
$EXTNAMES
290
1
  9
$PSVPSCALE
 40
0.0
  9
$OLESTARTUP
290
0
  9
$SORTENTS
280
127
  9
$INDEXCTL
280
0
  9
$HIDETEXT
280
1
  9
$XCLIPFRAME
280
2
  9
$HALOGAP
280
0
  9
$OBSCOLOR
 70
257
  9
$OBSLTYPE
280
0
  9
$INTERSECTIONDISPLAY
280
0
  9
$INTERSECTIONCOLOR
 70
257
  9
$DIMASSOC
280
2
  9
$PROJECTNAME
  1

  9
$CAMERADISPLAY
290
0
  9
$LENSLENGTH
 40
50.0
  9
$CAMERAHEIGHT
 40
0.0
  9
$STEPSPERSEC
 40
24.0
  9
$STEPSIZE
 40
100.0
  9
$3DDWFPREC
 40
2.0
  9
$PSOLWIDTH
 40
0.005
  9
$PSOLHEIGHT
 40
0.08
  9
$LOFTANG1
 40
1.570796326795
  9
$LOFTANG2
 40
1.570796326795
  9
$LOFTMAG1
 40
0.0
  9
$LOFTMAG2
 40
0.0
  9
$LOFTPARAM
 70
7
  9
$LOFTNORMALS
280
1
  9
$LATITUDE
 40
37.795
  9
$LONGITUDE
 40
-122.394
  9
$NORTHDIRECTION
 40
0.0
  9
$TIMEZONE
 70
-8000
  9
$LIGHTGLYPHDISPLAY
280
1
  9
$TILEMODELIGHTSYNCH
280
1
  9
$CMATERIAL
347
20
  9
$SOLIDHIST
280
0
  9
$SHOWHIST
280
1
  9
$DWFFRAME
280
2
  9
$DGNFRAME
280
2
  9
$REALWORLDSCALE
290
1
  9
$INTERFERECOLOR
 62
256
  9
$CSHADOW
280
0
  9
$SHADOWPLANELOCATION
 40
0.0
  0
ENDSEC
  0
SECTION
  2
CLASSES
  0
CLASS
  1
ACDBDICTIONARYWDFLT
  2
AcDbDictionaryWithDefault
  3
ObjectDBX Classes
 90
0
 91
0
280
0
281
0
  0
CLASS
  1
SUN
  2
AcDbSun
  3
SCENEOE
 90
1153
 91
0
280
0
281
0
  0
CLASS
  1
VISUALSTYLE
  2
AcDbVisualStyle
  3
ObjectDBX Classes
 90
4095
 91
0
280
0
281
0
  0
CLASS
  1
MATERIAL
  2
AcDbMaterial
  3
ObjectDBX Classes
 90
1153
 91
0
280
0
281
0
  0
CLASS
  1
SCALE
  2
AcDbScale
  3
ObjectDBX Classes
 90
1153
 91
0
280
0
281
0
  0
CLASS
  1
TABLESTYLE
  2
AcDbTableStyle
  3
ObjectDBX Classes
 90
4095
 91
0
280
0
281
0
  0
CLASS
  1
MLEADERSTYLE
  2
AcDbMLeaderStyle
  3
ACDB_MLEADERSTYLE_CLASS
 90
4095
 91
0
280
0
281
0
  0
CLASS
  1
DICTIONARYVAR
  2
AcDbDictionaryVar
  3
ObjectDBX Classes
 90
0
 91
0
280
0
281
0
  0
CLASS
  1
CELLSTYLEMAP
  2
AcDbCellStyleMap
  3
ObjectDBX Classes
 90
1152
 91
0
280
0
281
0
  0
CLASS
  1
MENTALRAYRENDERSETTINGS
  2
AcDbMentalRayRenderSettings
  3
SCENEOE
 90
1024
 91
0
280
0
281
0
  0
CLASS
  1
ACDBDETAILVIEWSTYLE
  2
AcDbDetailViewStyle
  3
ObjectDBX Classes
 90
1025
 91
0
280
0
281
0
  0
CLASS
  1
ACDBSECTIONVIEWSTYLE
  2
AcDbSectionViewStyle
  3
ObjectDBX Classes
 90
1025
 91
0
280
0
281
0
  0
CLASS
  1
RASTERVARIABLES
  2
AcDbRasterVariables
  3
ISM
 90
0
 91
0
280
0
281
0
  0
CLASS
  1
ACDBPLACEHOLDER
  2
AcDbPlaceHolder
  3
ObjectDBX Classes
 90
0
 91
0
280
0
281
0
  0
CLASS
  1
LAYOUT
  2
AcDbLayout
  3
ObjectDBX Classes
 90
0
 91
0
280
0
281
0
  0
ENDSEC
  0
SECTION
  2
TABLES
  0
TABLE
  2
VPORT
  5
8
330
0
100
AcDbSymbolTable
 70
1
  0
VPORT
  5
23
330
8
100
AcDbSymbolTableRecord
100
AcDbViewportTableRecord
  2
*Active
 70
0
 10
0.0
 20
0.0
 11
1.0
 21
1.0
 12
70.0
 22
50.0
 13
0.0
 23
0.0
 14
0.5
 24
0.5
 15
0.5
 25
0.5
 16
0.0
 26
0.0
 36
1.0
 17
0.0
 27
0.0
 37
0.0
 40
1.0
 41
1.34
 42
50.0
 43
0.0
 44
0.0
 50
0.0
 51
0.0
 71
0
 72
1000
 73
1
 74
3
 75
0
 76
0
 77
0
 78
0
281
0
 65
0
146
0.0
  0
ENDTAB
  0
TABLE
  2
LTYPE
  5
2
330
0
100
AcDbSymbolTable
 70
3
  0
LTYPE
  5
24
330
2
100
AcDbSymbolTableRecord
100
AcDbLinetypeTableRecord
  2
ByBlock
 70
0
  3

 72
65
 73
0
 40
0.0
  0
LTYPE
  5
25
330
2
100
AcDbSymbolTableRecord
100
AcDbLinetypeTableRecord
  2
ByLayer
 70
0
  3

 72
65
 73
0
 40
0.0
  0
LTYPE
  5
26
330
2
100
AcDbSymbolTableRecord
100
AcDbLinetypeTableRecord
  2
Continuous
 70
0
  3

 72
65
 73
0
 40
0.0
  0
ENDTAB
  0
TABLE
  2
LAYER
  5
1
330
0
100
AcDbSymbolTable
 70
2
  0
LAYER
  5
27
330
1
100
AcDbSymbolTableRecord
100
AcDbLayerTableRecord
  2
0
 70
0
 62
7
  6
Continuous
370
-3
390
13
347
21
  0
LAYER
  5
28
330
1
100
AcDbSymbolTableRecord
100
AcDbLayerTableRecord
  2
Defpoints
 70
0
 62
7
  6
Continuous
290
0
370
-3
390
13
347
21
  0
ENDTAB
  0
TABLE
  2
STYLE
  5
5
330
0
100
AcDbSymbolTable
 70
1
  0
STYLE
  5
29
330
5
100
AcDbSymbolTableRecord
100
AcDbTextStyleTableRecord
  2
Standard
 70
0
 40
0.0
 41
1.0
 50
0.0
 71
0
 42
2.5
  3
txt
  4

  0
ENDTAB
  0
TABLE
  2
VIEW
  5
7
330
0
100
AcDbSymbolTable
 70
0
  0
ENDTAB
  0
TABLE
  2
UCS
  5
6
330
0
100
AcDbSymbolTable
 70
0
  0
ENDTAB
  0
TABLE
  2
APPID
  5
3
330
0
100
AcDbSymbolTable
 70
1
  0
APPID
  5
2A
330
3
100
AcDbSymbolTableRecord
100
AcDbRegAppTableRecord
  2
ACAD
 70
0
  0
ENDTAB
  0
TABLE
  2
DIMSTYLE
  5
4
330
0
100
AcDbSymbolTable
 70
1
100
AcDbDimStyleTable
  0
DIMSTYLE
105
2B
330
4
100
AcDbSymbolTableRecord
100
AcDbDimStyleTableRecord
  2
Standard
 70
0
 40
1.0
 41
2.5
 42
0.625
 43
3.75
 44
1.25
 45
0.0
 46
0.0
 47
0.0
 48
0.0
 49
2.5
140
2.5
141
2.5
142
0.0
143
0.03937007874
144
1.0
145
0.0
146
1.0
147
0.625
148
0.0
 69
0
 70
0
 71
0
 72
0
 73
0
 74
0
 75
0
 76
0
 77
1
 78
8
 79
0
170
0
171
3
172
1
173
0
174
0
175
0
176
0
177
0
178
0
179
0
271
0
272
2
273
2
274
3
275
0
276
0
277
2
278
44
279
0
280
0
281
0
282
0
283
0
284
8
285
0
286
0
288
0
289
3
290
0
371
-2
372
-2
  0
ENDTAB
  0
TABLE
  2
BLOCK_RECORD
  5
9
330
0
100
AcDbSymbolTable
 70
2
  0
BLOCK_RECORD
  5
17
330
9
100
AcDbSymbolTableRecord
100
AcDbBlockTableRecord
  2
*Model_Space
340
1A
 70
0
280
1
281
1
  0
BLOCK_RECORD
  5
1B
330
9
100
AcDbSymbolTableRecord
100
AcDbBlockTableRecord
  2
*Paper_Space
340
1E
 70
0
280
1
281
1
  0
ENDTAB
  0
ENDSEC
  0
SECTION
  2
BLOCKS
  0
BLOCK
  5
18
330
17
100
AcDbEntity
  8
0
100
AcDbBlockBegin
  2
*Model_Space
 70
0
 10
0.0
 20
0.0
 30
0.0
  3
*Model_Space
  1

  0
ENDBLK
  5
19
330
17
100
AcDbEntity
  8
0
100
AcDbBlockEnd
  0
BLOCK
  5
1C
330
1B
100
AcDbEntity
  8
0
100
AcDbBlockBegin
  2
*Paper_Space
 70
0
 10
0.0
 20
0.0
 30
0.0
  3
*Paper_Space
  1

  0
ENDBLK
  5
1D
330
1B
100
AcDbEntity
  8
0
100
AcDbBlockEnd
  0
ENDSEC
  0
SECTION
  2
ENTITIES
  0
LWPOLYLINE
  5
2D
330
17
100
AcDbEntity
  8
0
100
AcDbPolyline
 90
420
 70
0
 43
0.0
 10
0.5
 20
0.0
 10
0.5024806178905249
 20
0.020953060329721947
 10
0.5094341692640822
 20
0.0708306637289863
 10
0.5240053165166618
 20
0.1491828107788622
 10
0.5490186862992306
 20
0.2552554905358336
 10
0.587184786475209
 20
0.38786437579196553
 10
0.6410734890855571
 20
0.5455260872199477
 10
0.7130885371416991
 20
0.726497369360177
 10
0.8054436815592234
 20
0.9288000237777995
 10
0.9201407275263129
 20
1.150243734866041
 10
1.05894971721984
 20
1.3884495171914883
 10
1.223391448477738
 20
1.640874452492326
 10
1.41472250423269
 20
1.90483779465996
 10
1.726870149357103
 20
1.90483779465996
 10
1.9182012051120552
 20
1.640874452492326
 10
2.082642936369953
 20
1.3884495171914883
 10
2.22145192606348
 20
1.150243734866041
 10
2.3361489720305695
 20
0.9288000237777995
 10
2.428504116448094
 20
0.726497369360177
 10
2.500519164504236
 20
0.5455260872199477
 10
2.554407867114584
 20
0.38786437579196553
 10
2.5925739672905626
 20
0.2552554905358336
 10
2.6175873370731315
 20
0.1491828107788622
 10
2.6321584843257106
 20
0.0708306637289863
 10
2.6391120356992683
 20
0.020953060329721947
 10
2.6413706350144532
 20
-0.0016754592379416948
 10
2.6424452656924164
 20
-0.029187071713790043
 10
2.6478527686353606
 20
-0.07887284707162433
 10
2.658193557300063
 20
-0.12777055101341583
 10
2.673364309944395
 20
-0.17539161384480992
 10
2.6932134454227197
 20
-0.22126022164742623
 10
2.717542637734589
 20
-0.2649180704542467
 10
2.746108797632585
 20
-0.3059289454713596
 10
2.778626501489723
 20
-0.34388307959198705
 10
2.814770843157987
 20
-0.3784012476539641
 10
2.854180680323159
 20
-0.4091385555322054
 10
2.8964622429194433
 20
-0.4357878862067941
 10
2.9411930675498055
 20
-0.45808296837472745
 10
2.9879262186005833
 20
-0.475801036944758
 10
3.036194753874403
 20
-0.4887650588325485
 10
3.085516390122266
 20
-0.49684550181673226
 10
3.1353983218583465
 20
-0.4999616287820504
 10
3.1853421453095168
 20
-0.4980823044179203
 10
3.234848838301081
 20
-0.49122630631216624
 10
3.2834237463214064
 20
-0.4794621373315692
 10
3.330581524946284
 20
-0.46290734116386606
 10
3.3758509892399817
 20
-0.44172732786007657
 10
3.418779821679374
 20
-0.4161337211119504
 10
3.4589390915611107
 20
-0.3863822437779936
 10
3.495927540735423
 20
-0.35277016278519596
 10
3.529375592844918
 20
-0.3156333189361604
 10
3.558949046009373
 20
-0.2753427712988188
 10
3.584352412060453
 20
-0.2323010897068783
 10
3.605331868961811
 20
-0.186938332415118
 10
3.6216777969149763
 20
-0.13970774909946293
 10
3.6332268728110853
 20
-0.09108125213604751
 10
3.639863702101402
 20
-0.0415447014087482
 10
3.644073271480318
 20
0.020953060329721947
 10
3.6510268228538756
 20
0.0708306637289863
 10
3.6655979701064547
 20
0.1491828107788622
 10
3.6906113398890237
 20
0.2552554905358336
 10
3.7287774400650022
 20
0.38786437579196553
 10
3.78266614267535
 20
0.5455260872199477
 10
3.854681190731492
 20
0.726497369360177
 10
3.9470363351490168
 20
0.9288000237777995
 10
4.061733381116106
 20
1.150243734866041
 10
4.200542370809633
 20
1.3884495171914883
 10
4.364984102067531
 20
1.640874452492326
 10
4.556315157822484
 20
1.90483779465996
 10
4.868462802946896
 20
1.90483779465996
 10
5.059793858701848
 20
1.640874452492326
 10
5.224235589959746
 20
1.3884495171914883
 10
5.363044579653273
 20
1.150243734866041
 10
5.477741625620363
 20
0.9288000237777995
 10
5.570096770037887
 20
0.726497369360177
 10
5.64211181809403
 20
0.5455260872199477
 10
5.696000520704377
 20
0.38786437579196553
 10
5.734166620880355
 20
0.2552554905358336
 10
5.759179990662925
 20
0.1491828107788622
 10
5.773751137915504
 20
0.0708306637289863
 10
5.7807046892890614
 20
0.020953060329721947
 10
5.782963288604247
 20
-0.0016754592379416948
 10
5.784037919282209
 20
-0.029187071713790043
 10
5.789445422225153
 20
-0.07887284707162433
 10
5.799786210889856
 20
-0.12777055101341583
 10
5.814956963534188
 20
-0.17539161384480992
 10
5.834806099012512
 20
-0.22126022164742623
 10
5.859135291324382
 20
-0.2649180704542467
 10
5.887701451222378
 20
-0.3059289454713596
 10
5.920219155079517
 20
-0.34388307959198705
 10
5.95636349674778
 20
-0.3784012476539641
 10
5.995773333912952
 20
-0.4091385555322054
 10
6.038054896509236
 20
-0.4357878862067941
 10
6.082785721139599
 20
-0.45808296837472745
 10
6.129518872190376
 20
-0.475801036944758
 10
6.177787407464196
 20
-0.4887650588325485
 10
6.227109043712059
 20
-0.49684550181673226
 10
6.27699097544814
 20
-0.4999616287820504
 10
6.32693479889931
 20
-0.4980823044179203
 10
6.3764414918908745
 20
-0.49122630631216624
 10
6.4250163999111995
 20
-0.4794621373315692
 10
6.472174178536077
 20
-0.46290734116386606
 10
6.517443642829775
 20
-0.44172732786007657
 10
6.560372475269167
 20
-0.4161337211119504
 10
6.600531745150904
 20
-0.3863822437779936
 10
6.637520194325216
 20
-0.35277016278519596
 10
6.670968246434711
 20
-0.3156333189361604
 10
6.700541699599166
 20
-0.2753427712988188
 10
6.7259450656502455
 20
-0.2323010897068783
 10
6.746924522551604
 20
-0.186938332415118
 10
6.76327045050477
 20
-0.13970774909946293
 10
6.774819526400878
 20
-0.09108125213604751
 10
6.781456355691195
 20
-0.0415447014087482
 10
6.785665925070111
 20
0.020953060329721947
 10
6.792619476443669
 20
0.0708306637289863
 10
6.807190623696248
 20
0.1491828107788622
 10
6.832203993478817
 20
0.2552554905358336
 10
6.870370093654795
 20
0.38786437579196553
 10
6.924258796265144
 20
0.5455260872199477
 10
6.996273844321285
 20
0.726497369360177
 10
7.08862898873881
 20
0.9288000237777995
 10
7.203326034705899
 20
1.150243734866041
 10
7.342135024399426
 20
1.3884495171914883
 10
7.506576755657324
 20
1.640874452492326
 10
7.697907811412277
 20
1.90483779465996
 10
8.010055456536689
 20
1.90483779465996
 10
8.201386512291641
 20
1.640874452492326
 10
8.36582824354954
 20
1.3884495171914883
 10
8.504637233243066
 20
1.150243734866041
 10
8.619334279210156
 20
0.9288000237777995
 10
8.71168942362768
 20
0.726497369360177
 10
8.783704471683823
 20
0.5455260872199477
 10
8.83759317429417
 20
0.38786437579196553
 10
8.875759274470148
 20
0.2552554905358336
 10
8.900772644252719
 20
0.1491828107788622
 10
8.915343791505297
 20
0.0708306637289863
 10
8.922297342878855
 20
0.020953060329721947
 10
8.92455594219404
 20
-0.0016754592379416948
 10
8.925630572872002
 20
-0.029187071713790043
 10
8.931038075814946
 20
-0.07887284707162433
 10
8.941378864479649
 20
-0.12777055101341583
 10
8.956549617123981
 20
-0.17539161384480992
 10
8.976398752602305
 20
-0.22126022164742623
 10
9.000727944914175
 20
-0.2649180704542467
 10
9.029294104812172
 20
-0.3059289454713596
 10
9.06181180866931
 20
-0.34388307959198705
 10
9.097956150337573
 20
-0.3784012476539641
 10
9.137365987502745
 20
-0.4091385555322054
 10
9.17964755009903
 20
-0.4357878862067941
 10
9.224378374729392
 20
-0.45808296837472745
 10
9.271111525780169
 20
-0.475801036944758
 10
9.31938006105399
 20
-0.4887650588325485
 10
9.368701697301852
 20
-0.49684550181673226
 10
9.418583629037933
 20
-0.4999616287820504
 10
9.468527452489102
 20
-0.4980823044179203
 10
9.518034145480668
 20
-0.49122630631216624
 10
9.566609053500994
 20
-0.4794621373315692
 10
9.61376683212587
 20
-0.46290734116386606
 10
9.659036296419568
 20
-0.44172732786007657
 10
9.70196512885896
 20
-0.4161337211119504
 10
9.742124398740696
 20
-0.3863822437779936
 10
9.779112847915009
 20
-0.35277016278519596
 10
9.812560900024504
 20
-0.3156333189361604
 10
9.842134353188959
 20
-0.2753427712988188
 10
9.867537719240039
 20
-0.2323010897068783
 10
9.888517176141397
 20
-0.186938332415118
 10
9.904863104094563
 20
-0.13970774909946293
 10
9.916412179990672
 20
-0.09108125213604751
 10
9.923049009280987
 20
-0.0415447014087482
 10
9.927258578659904
 20
0.020953060329721947
 10
9.934212130033462
 20
0.0708306637289863
 10
9.948783277286042
 20
0.1491828107788622
 10
9.97379664706861
 20
0.2552554905358336
 10
10.011962747244588
 20
0.38786437579196553
 10
10.065851449854936
 20
0.5455260872199477
 10
10.137866497911078
 20
0.726497369360177
 10
10.230221642328603
 20
0.9288000237777995
 10
10.344918688295692
 20
1.150243734866041
 10
10.483727677989219
 20
1.3884495171914883
 10
10.648169409247117
 20
1.640874452492326
 10
10.83950046500207
 20
1.90483779465996
 10
11.151648110126482
 20
1.90483779465996
 10
11.342979165881435
 20
1.640874452492326
 10
11.507420897139333
 20
1.3884495171914883
 10
11.64622988683286
 20
1.150243734866041
 10
11.760926932799949
 20
0.9288000237777995
 10
11.853282077217473
 20
0.726497369360177
 10
11.925297125273616
 20
0.5455260872199477
 10
11.979185827883963
 20
0.38786437579196553
 10
12.017351928059941
 20
0.2552554905358336
 10
12.042365297842512
 20
0.1491828107788622
 10
12.05693644509509
 20
0.0708306637289863
 10
12.063889996468648
 20
0.020953060329721947
 10
12.066148595783833
 20
-0.0016754592379416948
 10
12.067223226461795
 20
-0.029187071713790043
 10
12.07263072940474
 20
-0.07887284707162433
 10
12.082971518069442
 20
-0.12777055101341583
 10
12.098142270713774
 20
-0.17539161384480992
 10
12.117991406192099
 20
-0.22126022164742623
 10
12.142320598503968
 20
-0.2649180704542467
 10
12.170886758401965
 20
-0.3059289454713596
 10
12.203404462259103
 20
-0.34388307959198705
 10
12.239548803927367
 20
-0.3784012476539641
 10
12.278958641092538
 20
-0.4091385555322054
 10
12.321240203688824
 20
-0.4357878862067941
 10
12.365971028319185
 20
-0.45808296837472745
 10
12.412704179369962
 20
-0.475801036944758
 10
12.460972714643782
 20
-0.4887650588325485
 10
12.510294350891645
 20
-0.49684550181673226
 10
12.560176282627726
 20
-0.4999616287820504
 10
12.610120106078895
 20
-0.4980823044179203
 10
12.65962679907046
 20
-0.49122630631216624
 10
12.708201707090787
 20
-0.4794621373315692
 10
12.755359485715664
 20
-0.46290734116386606
 10
12.800628950009362
 20
-0.44172732786007657
 10
12.843557782448753
 20
-0.4161337211119504
 10
12.88371705233049
 20
-0.3863822437779936
 10
12.920705501504802
 20
-0.35277016278519596
 10
12.954153553614297
 20
-0.3156333189361604
 10
12.983727006778752
 20
-0.2753427712988188
 10
13.009130372829832
 20
-0.2323010897068783
 10
13.03010982973119
 20
-0.186938332415118
 10
13.046455757684356
 20
-0.13970774909946293
 10
13.058004833580465
 20
-0.09108125213604751
 10
13.06464166287078
 20
-0.0415447014087482
 10
13.068851232249697
 20
0.020953060329721947
 10
13.075804783623255
 20
0.0708306637289863
 10
13.090375930875835
 20
0.1491828107788622
 10
13.115389300658403
 20
0.2552554905358336
 10
13.153555400834382
 20
0.38786437579196553
 10
13.207444103444729
 20
0.5455260872199477
 10
13.279459151500872
 20
0.726497369360177
 10
13.371814295918396
 20
0.9288000237777995
 10
13.486511341885485
 20
1.150243734866041
 10
13.625320331579012
 20
1.3884495171914883
 10
13.78976206283691
 20
1.640874452492326
 10
13.981093118591863
 20
1.90483779465996
 10
14.293240763716275
 20
1.90483779465996
 10
14.484571819471228
 20
1.640874452492326
 10
14.649013550729126
 20
1.3884495171914883
 10
14.787822540422653
 20
1.150243734866041
 10
14.902519586389742
 20
0.9288000237777995
 10
14.994874730807267
 20
0.726497369360177
 10
15.066889778863409
 20
0.5455260872199477
 10
15.120778481473756
 20
0.38786437579196553
 10
15.158944581649735
 20
0.2552554905358336
 10
15.183957951432305
 20
0.1491828107788622
 10
15.198529098684883
 20
0.0708306637289863
 10
15.20548265005844
 20
0.020953060329721947
 10
15.207741249373626
 20
-0.0016754592379416948
 10
15.208815880051588
 20
-0.029187071713790043
 10
15.214223382994533
 20
-0.07887284707162433
 10
15.224564171659235
 20
-0.12777055101341583
 10
15.239734924303567
 20
-0.17539161384480992
 10
15.259584059781892
 20
-0.22126022164742623
 10
15.283913252093761
 20
-0.2649180704542467
 10
15.312479411991758
 20
-0.3059289454713596
 10
15.344997115848896
 20
-0.34388307959198705
 10
15.38114145751716
 20
-0.3784012476539641
 10
15.420551294682332
 20
-0.4091385555322054
 10
15.462832857278617
 20
-0.4357878862067941
 10
15.507563681908978
 20
-0.45808296837472745
 10
15.554296832959755
 20
-0.475801036944758
 10
15.602565368233575
 20
-0.4887650588325485
 10
15.651887004481438
 20
-0.49684550181673226
 10
15.701768936217519
 20
-0.4999616287820504
 10
15.751712759668688
 20
-0.4980823044179203
 10
15.801219452660254
 20
-0.49122630631216624
 10
15.84979436068058
 20
-0.4794621373315692
 10
15.896952139305457
 20
-0.46290734116386606
 10
15.942221603599155
 20
-0.44172732786007657
 10
15.985150436038547
 20
-0.4161337211119504
 10
16.025309705920282
 20
-0.3863822437779936
 10
16.062298155094595
 20
-0.35277016278519596
 10
16.09574620720409
 20
-0.3156333189361604
 10
16.125319660368547
 20
-0.2753427712988188
 10
16.150723026419627
 20
-0.2323010897068783
 10
16.171702483320985
 20
-0.186938332415118
 10
16.18804841127415
 20
-0.13970774909946293
 10
16.19959748717026
 20
-0.09108125213604751
 10
16.206234316460574
 20
-0.0415447014087482
 10
16.210443885839492
 20
0.020953060329721947
 10
16.217397437213048
 20
0.0708306637289863
 10
16.231968584465626
 20
0.1491828107788622
 10
16.256981954248197
 20
0.2552554905358336
 10
16.295148054424175
 20
0.38786437579196553
 10
16.349036757034522
 20
0.5455260872199477
 10
16.421051805090663
 20
0.726497369360177
 10
16.513406949508187
 20
0.9288000237777995
 10
16.62810399547528
 20
1.150243734866041
 10
16.766912985168805
 20
1.3884495171914883
 10
16.931354716426704
 20
1.640874452492326
 10
17.122685772181654
 20
1.90483779465996
 10
17.43483341730607
 20
1.90483779465996
 10
17.62616447306102
 20
1.640874452492326
 10
17.79060620431892
 20
1.3884495171914883
 10
17.929415194012446
 20
1.150243734866041
 10
18.044112239979533
 20
0.9288000237777995
 10
18.136467384397058
 20
0.726497369360177
 10
18.208482432453202
 20
0.5455260872199477
 10
18.26237113506355
 20
0.38786437579196553
 10
18.300537235239528
 20
0.2552554905358336
 10
18.325550605022098
 20
0.1491828107788622
 10
18.340121752274676
 20
0.0708306637289863
 10
18.347075303648232
 20
0.020953060329721947
 10
18.34933390296342
 20
-0.0016754592379416948
 10
18.35040853364138
 20
-0.029187071713790043
 10
18.355816036584326
 20
-0.07887284707162433
 10
18.36615682524903
 20
-0.12777055101341583
 10
18.38132757789336
 20
-0.17539161384480992
 10
18.401176713371687
 20
-0.22126022164742623
 10
18.425505905683554
 20
-0.2649180704542467
 10
18.45407206558155
 20
-0.3059289454713596
 10
18.486589769438687
 20
-0.34388307959198705
 10
18.522734111106953
 20
-0.3784012476539641
 10
18.562143948272123
 20
-0.4091385555322054
 10
18.60442551086841
 20
-0.4357878862067941
 10
18.64915633549877
 20
-0.45808296837472745
 10
18.69588948654955
 20
-0.475801036944758
 10
18.744158021823367
 20
-0.4887650588325485
 10
18.79347965807123
 20
-0.49684550181673226
 10
18.843361589807312
 20
-0.4999616287820504
 10
18.89330541325848
 20
-0.4980823044179203
 10
18.942812106250045
 20
-0.49122630631216624
 10
18.991387014270373
 20
-0.4794621373315692
 10
19.038544792895248
 20
-0.46290734116386606
 10
19.083814257188948
 20
-0.44172732786007657
 10
19.12674308962834
 20
-0.4161337211119504
 10
19.166902359510075
 20
-0.3863822437779936
 10
19.20389080868439
 20
-0.35277016278519596
 10
19.237338860793884
 20
-0.3156333189361604
 10
19.26691231395834
 20
-0.2753427712988188
 10
19.29231568000942
 20
-0.2323010897068783
 10
19.313295136910778
 20
-0.186938332415118
 10
19.329641064863942
 20
-0.13970774909946293
 10
19.34119014076005
 20
-0.09108125213604751
 10
19.347826970050367
 20
-0.0415447014087482
 10
19.352036539429285
 20
0.020953060329721947
 10
19.35899009080284
 20
0.0708306637289863
 10
19.37356123805542
 20
0.1491828107788622
 10
19.39857460783799
 20
0.2552554905358336
 10
19.436740708013968
 20
0.38786437579196553
 10
19.490629410624315
 20
0.5455260872199477
 10
19.56264445868046
 20
0.726497369360177
 10
19.65499960309798
 20
0.9288000237777995
 10
19.76969664906507
 20
1.150243734866041
 10
19.908505638758598
 20
1.3884495171914883
 10
20.072947370016497
 20
1.640874452492326
 10
20.264278425771447
 20
1.90483779465996
 10
20.576426070895863
 20
1.90483779465996
 10
20.767757126650814
 20
1.640874452492326
 10
20.932198857908713
 20
1.3884495171914883
 10
21.07100784760224
 20
1.150243734866041
 10
21.18570489356933
 20
0.9288000237777995
 10
21.278060037986855
 20
0.726497369360177
 10
21.350075086042995
 20
0.5455260872199477
 10
21.403963788653343
 20
0.38786437579196553
 10
21.44212988882932
 20
0.2552554905358336
 10
21.46714325861189
 20
0.1491828107788622
 10
21.48171440586447
 20
0.0708306637289863
 10
21.48866795723803
 20
0.020953060329721947
 10
21.490926556553212
 20
-0.0016754592379416948
 10
21.492001187231175
 20
-0.029187071713790043
 10
21.49740869017412
 20
-0.07887284707162433
 10
21.50774947883882
 20
-0.12777055101341583
 10
21.522920231483155
 20
-0.17539161384480992
 10
21.54276936696148
 20
-0.22126022164742623
 10
21.567098559273347
 20
-0.2649180704542467
 10
21.595664719171342
 20
-0.3059289454713596
 10
21.62818242302848
 20
-0.34388307959198705
 10
21.664326764696746
 20
-0.3784012476539641
 10
21.70373660186192
 20
-0.4091385555322054
 10
21.746018164458203
 20
-0.4357878862067941
 10
21.790748989088563
 20
-0.45808296837472745
 10
21.837482140139343
 20
-0.475801036944758
 10
21.885750675413163
 20
-0.4887650588325485
 10
21.935072311661024
 20
-0.49684550181673226
 10
21.984954243397105
 20
-0.4999616287820504
 10
22.034898066848275
 20
-0.4980823044179203
 10
22.08440475983984
 20
-0.49122630631216624
 10
22.132979667860166
 20
-0.4794621373315692
 10
22.18013744648504
 20
-0.46290734116386606
 10
22.22540691077874
 20
-0.44172732786007657
 10
22.26833574321813
 20
-0.4161337211119504
 10
22.30849501309987
 20
-0.3863822437779936
 10
22.34548346227418
 20
-0.35277016278519596
 10
22.378931514383677
 20
-0.3156333189361604
 10
22.408504967548133
 20
-0.2753427712988188
 10
22.433908333599213
 20
-0.2323010897068783
 10
22.45488779050057
 20
-0.186938332415118
 10
22.471233718453735
 20
-0.13970774909946293
 10
22.482782794349845
 20
-0.09108125213604751
 10
22.48941962364016
 20
-0.0415447014087482
 10
22.49362919301908
 20
0.020953060329721947
 10
22.500582744392634
 20
0.0708306637289863
 10
22.515153891645213
 20
0.1491828107788622
 10
22.540167261427783
 20
0.2552554905358336
 10
22.57833336160376
 20
0.38786437579196553
 10
22.63222206421411
 20
0.5455260872199477
 10
22.70423711227025
 20
0.726497369360177
 10
22.796592256687774
 20
0.9288000237777995
 10
22.911289302654865
 20
1.150243734866041
 10
23.05009829234839
 20
1.3884495171914883
 10
23.21454002360629
 20
1.640874452492326
 10
23.40587107936124
 20
1.90483779465996
 10
23.718018724485656
 20
1.90483779465996
 10
23.909349780240607
 20
1.640874452492326
 10
24.073791511498506
 20
1.3884495171914883
 10
24.212600501192032
 20
1.150243734866041
 10
24.32729754715912
 20
0.9288000237777995
 10
24.419652691576644
 20
0.726497369360177
 10
24.49166773963279
 20
0.5455260872199477
 10
24.545556442243136
 20
0.38786437579196553
 10
24.583722542419114
 20
0.2552554905358336
 10
24.608735912201684
 20
0.1491828107788622
 10
24.623307059454262
 20
0.0708306637289863
 10
24.63026061082782
 20
0.020953060329721947
 10
24.63026061082782
 20
-2.0
 10
0.5
 20
-2.0
 10
0.5
 20
0.0
  0
ENDSEC
  0
SECTION
  2
OBJECTS
  0
DICTIONARY
  5
A
330
0
100
AcDbDictionary
281
1
  3
ACAD_COLOR
350
B
  3
ACAD_GROUP
350
C
  3
ACAD_LAYOUT
350
D
  3
ACAD_MATERIAL
350
E
  3
ACAD_MLEADERSTYLE
350
F
  3
ACAD_MLINESTYLE
350
10
  3
ACAD_PLOTSETTINGS
350
11
  3
ACAD_PLOTSTYLENAME
350
12
  3
ACAD_SCALELIST
350
14
  3
ACAD_TABLESTYLE
350
15
  3
ACAD_VISUALSTYLE
350
16
  0
DICTIONARY
  5
B
330
A
100
AcDbDictionary
281
1
  0
DICTIONARY
  5
C
330
A
100
AcDbDictionary
281
1
  0
DICTIONARY
  5
D
330
A
100
AcDbDictionary
281
1
  3
Model
350
1A
  3
Layout1
350
1E
  0
DICTIONARY
  5
E
330
A
100
AcDbDictionary
281
1
  3
ByBlock
350
1F
  3
ByLayer
350
20
  3
Global
350
21
  0
DICTIONARY
  5
F
330
A
100
AcDbDictionary
281
1
  3
Standard
350
2C
  0
DICTIONARY
  5
10
330
A
100
AcDbDictionary
281
1
  3
Standard
350
22
  0
DICTIONARY
  5
11
330
A
100
AcDbDictionary
281
1
  0
ACDBDICTIONARYWDFLT
  5
12
330
A
100
AcDbDictionary
281
1
  3
Normal
350
13
100
AcDbDictionaryWithDefault
340
13
  0
ACDBPLACEHOLDER
  5
13
330
12
  0
DICTIONARY
  5
14
330
A
100
AcDbDictionary
281
1
  0
DICTIONARY
  5
15
330
A
100
AcDbDictionary
281
1
  0
DICTIONARY
  5
16
330
A
100
AcDbDictionary
281
1
  0
LAYOUT
  5
1A
330
D
100
AcDbPlotSettings
  1

  2
Adobe PDF
  4
A4
  6

 40
3.175
 41
3.175
 42
3.175
 43
3.175
 44
209.91
 45
297.03
 46
0.0
 47
0.0
 48
0.0
 49
0.0
140
0.0
141
0.0
142
1.0
143
1.0
 70
688
 72
0
 73
1
 74
5
  7

 75
16
 76
0
 77
2
 78
300
147
1.0
148
0.0
149
0.0
100
AcDbLayout
  1
Model
 70
1
 71
0
 10
-3.175
 20
-3.175
 11
293.857
 21
206.735
 12
0.0
 22
0.0
 32
0.0
 14
29.068
 24
20.356
 34
0.0
 15
261.614
 25
183.204
 35
0.0
146
0.0
 13
0.0
 23
0.0
 33
0.0
 16
1.0
 26
0.0
 36
0.0
 17
0.0
 27
1.0
 37
0.0
 76
1
330
17
  0
LAYOUT
  5
1E
330
D
100
AcDbPlotSettings
  1

  2
Adobe PDF
  4
A4
  6

 40
3.175
 41
3.175
 42
3.175
 43
3.175
 44
209.91
 45
297.03
 46
0.0
 47
0.0
 48
0.0
 49
0.0
140
0.0
141
0.0
142
1.0
143
1.0
 70
688
 72
0
 73
1
 74
5
  7

 75
16
 76
0
 77
2
 78
300
147
1.0
148
0.0
149
0.0
100
AcDbLayout
  1
Layout1
 70
1
 71
1
 10
-3.175
 20
-3.175
 11
293.857
 21
206.735
 12
0.0
 22
0.0
 32
0.0
 14
29.068
 24
20.356
 34
0.0
 15
261.614
 25
183.204
 35
0.0
146
0.0
 13
0.0
 23
0.0
 33
0.0
 16
1.0
 26
0.0
 36
0.0
 17
0.0
 27
1.0
 37
0.0
 76
1
330
1B
  0
MATERIAL
  5
1F
102
{ACAD_REACTORS
330
E
102
}
330
E
100
AcDbMaterial
  1
ByBlock
  2

 70
0
 40
1.0
 71
1
 41
1.0
 91
-1023410177
 42
1.0
 72
1
  3

 73
1
 74
1
 75
1
 44
0.5
 73
0
 45
1.0
 46
1.0
 77
1
  4

 78
1
 79
1
170
1
 48
1.0
171
1
  6

172
1
173
1
174
1
140
1.0
141
1.0
175
1
  7

176
1
177
1
178
1
143
1.0
179
1
  8

270
1
271
1
272
1
145
1.0
146
1.0
273
1
  9

274
1
275
1
276
1
 42
1.0
 72
1
  3

 73
1
 74
1
 75
1
 94
63
  0
MATERIAL
  5
20
102
{ACAD_REACTORS
330
E
102
}
330
E
100
AcDbMaterial
  1
ByLayer
  2

 70
0
 40
1.0
 71
1
 41
1.0
 91
-1023410177
 42
1.0
 72
1
  3

 73
1
 74
1
 75
1
 44
0.5
 73
0
 45
1.0
 46
1.0
 77
1
  4

 78
1
 79
1
170
1
 48
1.0
171
1
  6

172
1
173
1
174
1
140
1.0
141
1.0
175
1
  7

176
1
177
1
178
1
143
1.0
179
1
  8

270
1
271
1
272
1
145
1.0
146
1.0
273
1
  9

274
1
275
1
276
1
 42
1.0
 72
1
  3

 73
1
 74
1
 75
1
 94
63
  0
MATERIAL
  5
21
102
{ACAD_REACTORS
330
E
102
}
330
E
100
AcDbMaterial
  1
Global
  2

 70
0
 40
1.0
 71
1
 41
1.0
 91
-1023410177
 42
1.0
 72
1
  3

 73
1
 74
1
 75
1
 44
0.5
 73
0
 45
1.0
 46
1.0
 77
1
  4

 78
1
 79
1
170
1
 48
1.0
171
1
  6

172
1
173
1
174
1
140
1.0
141
1.0
175
1
  7

176
1
177
1
178
1
143
1.0
179
1
  8

270
1
271
1
272
1
145
1.0
146
1.0
273
1
  9

274
1
275
1
276
1
 42
1.0
 72
1
  3

 73
1
 74
1
 75
1
 94
63
  0
MLINESTYLE
  5
22
102
{ACAD_REACTORS
330
10
102
}
330
10
100
AcDbMlineStyle
  2
Standard
 70
0
  3

 62
256
 51
90.0
 52
90.0
 71
2
 49
0.5
 62
256
  6
BYLAYER
 49
-0.5
 62
256
  6
BYLAYER
  0
MLEADERSTYLE
  5
2C
102
{ACAD_REACTORS
330
F
102
}
330
F
100
AcDbMLeaderStyle
179
2
170
2
171
1
172
0
 90
2
 40
0.0
 41
0.0
173
1
 91
-1056964608
 92
-2
290
1
 42
2.0
291
1
 43
8.0
  3
Standard
 44
4.0
300

342
29
174
1
175
1
176
0
178
1
 93
-1056964608
 45
4.0
292
0
297
0
 46
4.0
 94
-1056964608
 47
1.0
 49
0.0
140
1.0
294
1
141
0.0
177
0
142
1.0
295
0
296
0
143
3.75
271
0
272
9
272
9
  0
ENDSEC
  0
EOF
